{"glyphs":{"0":{"ha":689,"x_min":1,"x_max":690,"o":"m 6 400 q 64 690 21 564 q 167 901 107 817 q 297 1030 226 986 q 440 1074 368 1074 q 545 1048 501 1074 q 617 980 589 1022 q 661 881 646 938 q 683 765 676 825 q 689 643 690 704 q 683 528 688 582 q 680 464 683 494 q 672 413 676 433 q 633 190 658 293 q 570 12 608 88 q 478 -107 532 -64 q 350 -150 424 -150 q 215 -123 272 -150 q 119 -51 158 -96 q 55 51 79 -7 q 18 169 31 108 q 3 290 6 231 q 6 400 1 350 m 349 -7 q 422 22 392 -7 q 474 106 453 51 q 508 236 494 160 q 532 407 522 313 q 537 460 536 435 q 540 510 538 485 q 546 731 550 647 q 531 860 542 815 q 507 920 519 906 q 488 935 494 935 q 362 783 410 908 q 290 451 314 658 q 287 416 289 435 q 285 372 285 397 q 279 251 281 317 q 284 127 278 185 q 305 31 290 69 q 349 -7 319 -7 z "},"1":{"ha":383,"x_min":8,"x_max":376,"o":"m 69 367 q 78 443 71 382 q 97 589 85 504 q 127 771 110 674 q 168 957 144 868 q 147 931 161 935 q 122 924 133 926 q 95 922 110 922 q 69 922 81 922 q 31 932 44 922 q 13 955 18 942 q 8 983 8 968 q 8 1011 8 999 q 17 1033 8 1022 q 36 1044 25 1043 q 73 1051 46 1046 q 133 1060 100 1056 q 198 1069 165 1065 q 251 1072 231 1072 q 310 1060 290 1074 q 351 1013 329 1046 q 375 870 374 967 q 372 607 376 774 l 367 471 q 364 405 365 442 q 360 326 363 368 q 356 241 358 285 q 350 156 353 197 q 344 34 347 89 q 342 -49 342 -21 q 303 -136 336 -111 q 225 -161 269 -161 q 153 -141 188 -161 q 96 -70 119 -121 q 62 67 72 -19 q 61 285 51 153 q 61 318 58 306 q 67 340 64 331 q 69 355 68 347 q 69 367 69 363 z "},"2":{"ha":710,"x_min":7,"x_max":717,"o":"m 646 -129 q 633 -148 643 -140 q 613 -156 624 -156 q 540 -152 574 -154 q 478 -149 507 -150 q 416 -143 446 -146 q 356 -140 386 -140 q 288 -144 324 -140 q 207 -156 251 -147 l 182 -160 q 151 -167 167 -164 q 124 -171 135 -171 q 83 -162 103 -171 q 46 -139 63 -154 q 19 -102 29 -124 q 7 -56 8 -81 q 13 -18 10 -33 q 24 15 15 -3 q 49 59 32 33 q 96 129 65 85 q 252 351 181 247 q 376 545 324 456 q 458 711 428 635 q 490 851 488 788 q 478 924 490 900 q 449 946 465 949 q 376 920 410 942 q 318 865 343 899 q 280 788 293 832 q 267 694 267 744 q 266 672 264 682 q 271 654 268 661 l 272 635 q 259 617 272 626 q 229 599 246 607 q 198 585 213 590 q 179 579 183 579 q 136 608 156 579 q 117 711 117 638 q 143 840 117 774 q 215 958 169 906 q 318 1045 260 1011 q 440 1079 376 1079 q 535 1065 483 1079 q 628 1010 586 1050 q 693 901 669 971 q 704 722 717 832 q 672 561 696 639 q 613 411 647 483 q 538 270 579 339 q 456 135 497 201 l 457 138 l 411 57 l 378 18 q 471 11 419 15 q 566 -3 522 7 q 639 -28 610 -12 q 667 -65 668 -43 l 646 -129 z "},"3":{"ha":683,"x_min":22,"x_max":699,"o":"m 290 -160 q 176 -133 221 -156 q 101 -76 131 -111 q 57 2 72 -42 q 32 93 42 46 q 34 146 22 119 q 67 185 46 172 q 113 188 89 197 q 149 138 136 179 q 197 35 174 75 q 249 -1 219 -4 q 307 17 278 0 q 360 70 336 35 q 401 158 385 106 q 421 279 417 210 q 419 331 422 306 q 408 374 415 356 q 392 405 401 393 q 371 417 382 417 q 368 415 371 415 q 363 414 365 414 q 357 413 360 414 l 333 406 q 272 391 304 399 q 224 383 239 383 q 172 390 190 383 q 146 410 154 397 q 137 440 138 422 q 139 479 136 457 q 160 514 139 496 q 217 543 181 532 q 256 555 233 547 q 317 582 279 563 q 358 603 339 585 q 390 651 376 622 q 412 716 404 681 q 421 788 419 751 q 419 875 426 838 q 390 913 411 913 q 343 900 369 913 q 291 863 317 888 q 242 801 265 838 q 206 718 219 765 q 154 690 186 690 q 130 698 143 690 q 104 718 117 706 q 84 747 92 731 q 78 779 76 763 q 126 896 90 838 q 215 998 163 954 q 331 1065 267 1042 q 460 1076 394 1088 l 457 1076 q 553 1038 513 1067 q 620 970 594 1010 q 657 883 646 931 q 665 785 668 835 q 630 621 663 699 q 538 499 597 543 q 615 440 583 474 q 666 368 647 407 q 692 286 685 329 q 696 200 699 243 q 661 64 692 131 q 578 -54 631 -3 q 453 -135 526 -106 q 290 -160 379 -165 z "},"4":{"ha":600,"x_min":-8,"x_max":603,"o":"m 278 213 l 240 218 q 208 219 232 219 q 159 216 185 218 q 112 212 133 214 q 85 207 90 210 q 67 204 79 204 q 50 207 56 204 q 19 230 33 218 q -2 258 4 242 q -2 295 -8 274 q 32 349 4 317 q 63 392 43 361 q 106 465 82 422 q 159 559 131 508 q 217 663 188 610 q 314 842 264 753 q 407 1000 364 932 q 427 1042 418 1026 q 447 1067 436 1058 q 471 1077 457 1075 q 506 1079 485 1079 q 535 1073 519 1079 q 563 1043 550 1067 q 585 972 575 1019 q 599 843 594 925 q 600 638 603 761 q 585 340 597 515 q 569 151 576 238 q 549 -22 563 65 l 538 -94 q 496 -158 522 -144 q 432 -172 469 -172 q 338 -148 372 -172 q 288 -84 304 -124 q 269 8 271 -44 q 271 115 267 60 l 278 213 m 229 372 l 260 372 q 280 372 269 372 q 300 374 290 372 q 304 422 300 394 q 313 474 308 450 l 321 528 l 326 567 q 298 511 314 540 q 263 446 282 482 l 229 372 z "},"5":{"ha":686,"x_min":8,"x_max":686,"o":"m 399 682 q 533 646 478 682 q 624 553 589 610 q 672 427 658 497 q 682 289 686 357 q 639 93 674 176 q 551 -44 604 10 q 431 -125 499 -99 q 289 -151 364 -151 q 162 -123 215 -151 q 74 -51 108 -94 q 24 40 39 -8 q 11 129 8 89 q 24 158 11 136 q 54 194 36 179 q 93 206 72 208 q 132 165 114 204 q 165 72 143 113 q 213 24 186 31 q 285 42 249 13 q 353 129 322 71 q 406 269 385 188 q 435 446 428 351 q 435 525 438 504 q 424 546 432 546 q 377 525 407 546 q 318 479 347 504 q 276 449 296 463 q 240 424 257 435 q 179 407 206 401 q 133 435 153 413 q 100 492 114 457 q 78 562 86 526 q 67 628 71 597 q 65 676 64 660 q 86 800 69 731 q 126 930 103 869 q 178 1032 150 990 q 233 1074 206 1074 l 243 1074 q 263 1073 254 1074 q 285 1067 271 1072 l 294 1061 l 578 1061 l 599 1046 q 618 1022 614 1031 q 624 1004 622 1013 q 628 994 624 999 l 626 996 q 618 970 633 983 q 578 947 603 957 q 524 930 553 936 q 476 924 496 924 l 343 924 l 344 865 l 346 674 q 399 682 371 682 z "},"6":{"ha":703,"x_min":6,"x_max":704,"o":"m 13 360 q 28 467 19 421 q 50 563 38 513 q 258 956 135 829 q 526 1082 382 1082 q 622 1054 583 1082 q 657 988 660 1026 q 651 969 657 981 q 636 947 644 958 q 618 926 628 936 q 601 915 608 917 q 578 921 588 915 q 560 933 568 926 q 549 937 556 935 q 538 939 543 939 q 447 908 486 939 q 379 829 408 878 q 332 722 350 781 q 304 607 314 663 q 368 637 333 628 q 432 646 403 646 q 563 616 510 646 q 647 537 615 586 q 692 423 679 488 q 700 290 704 358 q 667 131 694 211 q 597 -12 640 51 q 497 -115 554 -75 q 372 -154 439 -154 q 196 -111 268 -154 q 81 3 124 -68 q 22 167 38 74 q 13 360 6 260 m 296 311 q 289 278 292 297 q 283 235 286 260 q 287 144 281 186 q 306 72 293 103 q 339 22 319 40 q 383 4 358 4 q 440 33 413 4 q 489 106 467 61 q 526 204 511 150 q 543 311 540 258 q 542 378 546 346 q 525 435 538 411 q 492 474 513 460 q 439 489 471 489 q 408 481 426 489 q 371 452 390 472 q 332 399 351 432 q 299 317 313 367 l 301 324 l 296 311 z "},"7":{"ha":558,"x_min":28,"x_max":556,"o":"m 538 932 q 503 834 518 878 q 474 746 489 790 q 452 684 463 717 q 428 617 442 651 l 428 618 q 422 592 425 606 q 410 551 418 578 q 388 481 401 525 q 354 363 375 438 q 322 248 335 297 q 301 156 310 199 q 288 71 293 113 q 279 -18 283 29 l 279 -65 l 268 -87 q 241 -135 257 -114 q 188 -157 225 -157 q 148 -147 168 -157 q 109 -119 128 -136 q 76 -82 90 -103 q 54 -40 61 -61 q 33 56 39 -1 q 33 179 28 113 q 58 354 39 267 q 107 521 76 442 q 136 589 121 554 q 175 667 151 624 q 233 769 199 711 q 321 907 268 828 l 335 929 l 163 921 q 128 923 142 921 q 106 929 114 925 q 92 940 97 933 q 82 957 88 947 q 78 961 78 961 q 60 990 64 969 l 60 1011 q 76 1042 60 1031 q 117 1060 92 1053 l 119 1060 q 126 1061 124 1060 l 121 1061 l 150 1067 l 204 1071 q 286 1075 243 1072 q 371 1078 329 1078 q 443 1074 410 1078 q 501 1060 476 1069 q 541 1033 526 1050 q 554 989 556 1015 q 551 967 554 981 q 538 932 547 953 z "},"8":{"ha":625,"x_min":-1,"x_max":631,"o":"m 321 -171 q 301 -172 310 -172 q 279 -172 292 -172 q 157 -153 210 -172 q 69 -103 104 -135 q 16 -28 33 -71 q 1 63 -1 14 q 12 131 3 94 q 40 205 21 167 q 92 283 60 243 q 174 365 125 324 q 170 375 171 369 q 167 389 169 381 q 78 551 110 475 q 35 722 46 628 q 34 755 35 739 q 33 788 33 771 q 78 926 39 867 q 174 1022 117 985 q 303 1075 232 1060 q 444 1082 374 1090 q 590 1002 550 1067 q 622 846 631 938 q 603 740 619 796 q 558 628 586 685 q 493 516 531 571 q 411 411 456 461 q 488 313 454 357 q 545 230 522 269 q 579 151 568 190 q 588 71 590 113 q 569 -12 585 29 q 522 -87 554 -53 q 440 -144 490 -122 q 317 -171 390 -167 l 321 -171 m 304 726 q 309 628 301 678 q 339 532 317 578 q 382 606 357 561 q 429 700 407 650 q 468 800 451 750 q 488 890 485 850 q 485 928 490 914 q 467 946 481 943 q 408 940 435 956 q 358 894 381 925 q 322 819 336 863 q 304 726 308 775 m 315 133 q 311 153 313 142 q 303 180 310 164 q 285 217 297 196 q 251 267 274 238 q 222 239 236 258 q 197 194 208 219 q 177 138 185 168 q 168 78 169 107 q 180 3 165 35 q 235 -28 194 -28 q 292 3 271 -28 q 317 88 314 35 q 317 108 317 96 q 315 133 318 119 m 361 474 q 360 494 364 485 q 350 507 356 503 q 353 501 351 503 q 357 496 356 499 l 361 474 z "},"9":{"ha":651,"x_min":0,"x_max":650,"o":"m 243 -151 q 140 -130 183 -151 q 68 -73 97 -108 q 24 6 39 -37 q 3 93 8 49 q 16 135 0 111 q 54 172 32 160 q 100 178 76 185 q 139 126 124 171 q 148 81 140 106 q 166 35 156 57 q 188 -1 176 14 q 211 -15 200 -15 q 254 10 233 -15 q 294 76 275 35 q 328 170 313 118 q 353 276 343 222 q 308 244 329 256 q 256 233 288 233 q 166 260 210 233 q 90 335 122 288 q 39 451 57 383 q 26 599 21 518 q 60 757 32 675 q 135 908 89 839 q 242 1024 181 976 q 378 1079 304 1071 q 530 1026 474 1076 q 614 891 586 976 q 646 692 642 806 q 642 449 650 578 q 606 217 633 326 q 530 26 579 108 q 410 -103 481 -56 q 243 -151 339 -151 m 356 461 q 392 542 376 497 q 420 634 408 586 q 439 731 432 682 q 449 824 446 779 l 450 876 q 447 913 450 894 q 436 932 443 932 q 386 897 411 932 q 340 797 361 861 q 301 640 318 732 q 278 438 285 549 q 283 374 274 374 q 313 395 294 374 q 356 461 332 417 z "},"\u0000":{"ha":0,"x_min":0,"x_max":0,"o":""},"\r":{"ha":368,"x_min":0,"x_max":0,"o":""}," ":{"ha":368,"x_min":0,"x_max":0,"o":""},"$":{"ha":750,"x_min":58,"x_max":651,"o":"m 79 846 q 163 977 96 924 q 339 1046 231 1031 l 343 1093 q 365 1157 346 1138 q 407 1176 383 1176 q 449 1150 431 1176 q 468 1075 467 1124 l 465 1043 q 517 1026 492 1036 q 563 997 543 1015 q 592 951 582 978 q 599 886 603 924 q 589 849 597 867 q 567 815 581 831 q 535 791 553 800 q 499 782 518 782 q 450 796 460 782 q 444 744 447 772 q 438 682 440 715 q 495 634 467 661 q 556 571 524 607 q 631 449 610 513 q 649 325 651 385 q 623 222 644 271 q 565 132 601 172 q 481 63 529 92 q 374 21 432 33 l 371 -8 q 355 -63 369 -46 q 322 -80 340 -81 q 286 -62 303 -79 q 265 -18 269 -46 l 265 -15 q 265 -2 263 -10 q 267 15 267 6 q 225 21 247 18 q 179 31 203 24 q 124 56 147 39 q 86 94 101 72 q 65 144 71 117 q 60 199 58 171 q 74 257 63 226 q 104 313 85 288 l 104 310 q 145 341 121 332 q 190 344 169 350 q 219 316 210 338 q 215 257 229 294 q 223 190 200 217 q 282 165 246 164 l 304 482 q 255 527 281 506 q 199 568 229 549 q 94 694 124 621 q 79 846 65 768 m 311 799 q 315 788 311 793 q 322 776 318 783 l 329 890 q 310 865 318 879 q 300 836 303 851 q 302 820 300 829 q 311 801 304 811 l 311 799 m 456 874 l 457 876 q 458 882 457 881 q 454 886 458 883 l 454 875 q 455 876 454 876 q 456 874 456 875 m 422 336 q 419 347 422 342 q 411 358 415 351 l 404 244 q 433 299 426 267 q 431 315 433 306 q 422 333 429 324 l 422 336 z "},"%":{"ha":693,"x_min":17,"x_max":657,"o":"m 157 292 q 190 381 175 343 q 217 448 204 418 q 240 502 229 478 q 263 553 251 526 q 289 613 275 581 q 321 689 303 644 q 266 634 301 656 q 183 613 231 613 q 108 627 140 613 q 56 665 76 642 q 26 717 36 688 q 18 779 17 747 q 33 838 21 810 q 69 889 46 867 q 124 925 92 911 q 201 939 157 939 q 269 923 240 938 q 315 885 297 908 q 341 833 333 863 q 346 774 349 804 q 340 743 346 758 q 390 858 371 815 q 420 924 408 900 q 438 960 432 949 q 447 979 443 971 q 501 1033 467 1015 q 567 1050 535 1050 q 610 1042 590 1050 q 641 1019 629 1033 q 655 983 653 1004 q 644 935 657 961 q 550 733 589 818 q 480 576 511 647 q 422 438 449 504 q 361 293 394 372 l 254 43 q 244 28 250 33 q 233 18 239 22 q 220 10 226 14 q 207 -3 214 6 q 163 -21 189 -18 q 117 -12 138 -24 q 85 24 96 -1 q 85 89 74 49 l 97 122 q 120 194 107 150 q 157 292 133 238 m 479 -12 q 406 1 438 -12 q 353 38 374 15 q 324 90 333 61 q 315 151 314 119 q 331 210 318 182 q 366 261 343 239 q 422 297 389 283 q 500 311 456 311 q 567 295 539 310 q 614 258 596 281 q 640 206 632 235 q 644 149 647 178 q 631 89 643 118 q 599 38 619 60 q 548 1 578 15 q 479 -12 518 -12 m 510 163 q 511 174 510 171 q 496 146 503 163 q 489 115 489 129 q 485 111 489 111 q 499 122 492 111 q 510 163 506 132 m 210 790 q 211 796 210 793 q 213 800 213 799 q 197 774 203 790 q 190 743 190 757 q 185 739 186 739 q 199 750 192 739 q 210 790 207 761 z "},"&":{"ha":935,"x_min":15,"x_max":942,"o":"m 603 379 q 594 329 603 350 q 573 295 586 308 q 544 275 560 282 q 517 265 529 268 q 492 259 504 263 q 468 250 479 256 l 471 251 q 402 206 436 232 q 342 147 368 179 q 298 79 315 115 q 279 7 281 43 q 289 -12 278 -6 q 317 -24 300 -19 q 351 -28 333 -28 q 382 -29 369 -29 q 506 -4 444 -29 q 619 61 568 21 q 708 151 671 101 q 757 250 744 200 l 757 249 q 760 290 764 271 q 749 328 757 310 l 728 315 l 693 294 q 669 287 683 292 q 642 290 654 282 q 628 326 631 297 q 639 422 625 356 q 682 449 656 433 q 736 480 708 465 q 789 505 764 494 q 829 515 814 515 q 895 504 868 515 q 932 476 922 493 q 930 440 942 460 q 879 401 918 419 l 882 404 l 857 390 q 879 337 869 367 q 888 267 889 307 q 833 88 882 168 q 710 -51 783 7 q 549 -140 638 -108 q 379 -172 461 -172 q 236 -153 306 -172 q 115 -95 167 -135 q 40 7 64 -56 q 32 157 15 69 q 59 238 39 194 q 110 321 79 281 q 185 395 142 361 q 282 450 228 429 q 240 533 254 489 q 228 626 225 578 q 297 800 236 719 q 467 961 357 881 q 608 1042 535 1010 q 739 1074 681 1074 q 795 1061 768 1074 q 843 1028 822 1049 q 876 981 864 1007 q 889 926 889 954 l 879 889 q 869 847 878 871 q 847 798 860 822 q 819 753 833 774 q 793 722 804 733 q 739 691 763 690 q 701 708 715 692 q 681 749 686 725 q 683 788 676 772 q 747 876 719 839 q 776 915 774 913 l 776 917 q 710 872 747 900 q 635 809 674 844 q 561 734 597 774 q 497 656 525 694 q 454 581 469 617 q 443 517 439 544 l 440 518 q 446 502 442 513 q 463 482 450 492 q 497 465 475 472 q 556 460 518 458 q 595 432 583 460 q 603 379 607 404 z "},"'":{"ha":317,"x_min":81,"x_max":253,"o":"m 213 1025 q 226 988 217 1008 q 243 944 236 967 q 251 897 250 921 q 240 851 253 874 q 206 822 232 836 q 151 799 179 807 q 102 792 124 790 q 81 813 81 793 q 83 852 83 835 q 83 888 82 869 l 88 1004 q 108 1028 90 1017 q 146 1043 125 1039 q 186 1044 167 1047 q 213 1025 206 1040 z "},"(":{"ha":511,"x_min":24,"x_max":647,"o":"m 499 1193 q 578 1201 539 1201 q 632 1190 617 1201 q 627 1156 647 1179 q 529 1096 607 1133 q 450 1012 492 1079 q 371 846 408 944 q 306 628 333 747 q 269 389 278 508 q 266 222 261 303 q 292 73 271 142 q 351 -49 313 4 q 449 -131 389 -101 q 494 -165 476 -144 q 513 -204 513 -186 q 483 -242 510 -229 q 404 -247 457 -256 q 219 -162 294 -226 q 99 -5 144 -97 q 39 201 54 88 q 33 432 24 314 q 81 686 43 560 q 180 917 119 813 q 322 1095 240 1021 q 499 1193 403 1169 z "},")":{"ha":528,"x_min":-154,"x_max":469,"o":"m -6 -235 q -85 -243 -46 -243 q -139 -232 -124 -243 q -134 -198 -154 -221 q -36 -137 -114 -175 q 43 -53 1 -121 q 122 113 85 14 q 188 331 160 211 q 224 569 215 450 q 227 735 232 654 q 201 885 222 817 q 142 1007 181 954 q 44 1089 104 1060 q -1 1124 17 1103 q -19 1163 -19 1144 q 10 1201 -17 1188 q 89 1206 36 1214 q 274 1120 199 1185 q 394 963 349 1056 q 454 758 439 871 q 460 526 469 644 q 411 272 449 399 q 313 42 374 146 q 172 -137 253 -62 q -6 -235 90 -211 z "},"*":{"ha":535,"x_min":15,"x_max":504,"o":"m 471 851 q 497 835 489 851 q 503 797 504 818 q 494 757 501 776 q 474 732 486 738 l 413 721 l 444 675 q 439 647 450 663 q 410 618 428 631 q 372 600 392 606 q 344 603 353 594 l 346 599 l 315 629 q 313 615 315 622 q 310 603 310 608 q 283 556 304 572 q 236 540 261 540 q 190 557 211 540 q 168 608 169 574 l 172 619 q 157 613 167 614 q 110 600 133 597 q 72 617 88 603 q 53 655 57 632 q 67 703 50 678 q 28 730 40 708 q 18 775 15 751 q 35 820 18 799 q 85 846 51 842 l 83 843 q 92 846 92 844 q 94 848 93 847 q 100 849 94 849 q 122 851 106 850 l 100 882 l 101 882 q 86 931 82 906 q 108 974 90 957 q 153 993 126 990 q 206 975 181 996 l 217 968 q 220 983 218 976 q 222 993 222 989 q 240 1001 222 999 q 279 1003 257 1004 q 319 999 301 1003 q 340 992 338 996 l 340 997 l 344 932 l 388 965 l 383 963 q 404 954 390 965 q 431 928 418 943 q 453 898 444 913 q 461 879 463 883 l 465 882 l 438 851 l 471 851 z "},"+":{"ha":574,"x_min":35,"x_max":538,"o":"m 243 679 q 268 726 249 711 q 308 742 288 740 q 346 731 329 743 q 364 696 363 718 l 363 685 q 366 638 367 665 q 363 582 365 611 l 367 550 q 425 550 397 550 q 476 549 453 550 q 522 526 507 547 q 536 481 538 506 q 517 433 535 456 q 465 407 499 411 l 467 407 q 422 404 450 404 q 360 404 394 404 l 351 296 q 327 247 349 264 q 281 228 306 229 q 234 244 256 228 q 211 294 213 261 l 211 290 q 211 338 210 307 q 215 407 213 369 l 82 417 q 45 435 56 417 q 38 476 35 454 q 55 517 40 499 q 93 535 69 535 l 89 535 q 153 544 117 539 q 228 550 189 549 l 243 679 z "},",":{"ha":335,"x_min":58,"x_max":256,"o":"m 210 85 q 226 49 215 69 q 246 7 238 29 q 255 -37 254 -15 q 242 -81 256 -60 q 202 -109 232 -94 q 140 -132 172 -124 q 83 -138 108 -140 q 58 -118 58 -136 q 60 -80 61 -97 q 61 -46 60 -62 l 67 65 q 89 88 69 78 q 133 103 108 99 q 179 103 157 107 q 210 85 201 100 z "},"-":{"ha":442,"x_min":38,"x_max":404,"o":"m 75 417 q 50 435 60 418 q 39 474 40 453 q 49 514 38 496 q 86 535 60 532 l 82 535 q 173 547 135 543 q 257 550 211 550 q 297 550 276 550 q 343 549 318 550 q 389 526 374 547 q 403 481 404 506 q 384 433 401 456 q 332 407 367 411 q 301 405 318 406 q 264 404 285 404 q 208 406 236 404 q 153 409 179 407 q 106 413 126 411 q 74 417 85 415 l 75 417 z "},".":{"ha":321,"x_min":60,"x_max":292,"o":"m 182 1 q 125 6 149 -3 q 87 29 101 14 q 66 66 72 44 q 63 111 60 88 q 93 185 65 150 q 174 222 121 221 q 227 215 204 224 q 265 192 250 207 q 285 156 279 176 q 290 115 292 136 q 260 44 288 78 q 182 1 232 10 z "},"/":{"ha":624,"x_min":15,"x_max":611,"o":"m 96 232 q 305 785 226 585 q 401 1015 383 985 l 401 1014 q 452 1069 419 1051 q 517 1086 485 1086 q 560 1078 540 1086 q 593 1054 581 1069 q 608 1018 606 1039 q 600 971 611 997 q 503 760 544 854 q 427 583 461 665 q 363 425 393 500 q 300 271 333 350 l 260 179 q 211 66 231 110 q 179 -4 192 22 q 158 -43 167 -31 q 140 -62 149 -56 q 101 -81 125 -78 q 56 -72 76 -83 q 26 -36 36 -61 q 26 29 15 -11 l 40 63 q 58 134 43 90 q 96 232 72 178 z "},":":{"ha":276,"x_min":28,"x_max":267,"o":"m 160 -26 q 101 -22 126 -31 q 60 6 76 -12 q 35 47 43 24 q 29 93 28 69 q 58 161 32 129 q 133 194 83 193 q 190 187 167 196 q 229 161 214 178 q 251 122 244 144 q 257 78 258 100 q 229 11 254 40 q 160 -26 204 -18 m 163 228 q 106 233 131 224 q 65 259 82 242 q 41 299 49 276 q 35 344 33 321 q 64 415 38 383 q 140 446 90 446 q 197 438 174 447 q 237 413 221 429 q 260 375 253 396 q 265 332 267 354 q 237 265 263 294 q 165 228 211 235 l 163 228 z "},";":{"ha":385,"x_min":39,"x_max":313,"o":"m 213 229 q 153 235 179 225 q 111 263 128 244 q 86 304 94 281 q 79 351 78 328 q 108 417 82 389 q 182 449 133 446 q 238 440 214 450 q 279 413 263 431 q 304 374 296 396 q 311 329 313 351 q 283 265 308 294 q 211 229 258 236 l 213 229 m 260 138 q 263 98 260 121 q 266 52 267 75 q 258 8 265 29 q 231 -28 251 -14 q 183 -40 217 -37 q 117 -39 150 -43 q 62 -24 85 -35 q 46 3 39 -14 q 62 38 56 22 q 75 69 68 54 l 119 171 q 149 183 126 181 q 194 182 171 186 q 238 166 218 178 q 260 138 257 154 z "},"<":{"ha":338,"x_min":18,"x_max":297,"o":"m 261 493 q 249 473 254 482 q 239 454 244 464 q 225 433 233 444 q 204 406 217 422 q 241 334 228 364 q 267 272 254 304 l 285 233 q 285 196 293 213 q 260 170 276 179 q 226 160 244 161 q 193 171 207 160 q 169 206 185 185 q 133 253 153 228 q 93 306 114 279 q 54 357 72 333 q 24 403 31 376 q 33 451 18 429 l 54 468 q 94 506 72 486 q 135 547 115 526 q 170 585 154 567 q 196 621 186 604 q 229 622 208 628 q 267 603 250 617 q 290 570 283 589 q 283 532 297 551 l 283 533 l 261 493 z "},"=":{"ha":442,"x_min":38,"x_max":404,"o":"m 75 499 q 50 517 60 500 q 39 556 40 535 q 49 596 38 578 q 86 617 60 614 l 82 617 q 173 628 135 625 q 257 632 211 632 q 297 632 276 632 q 343 631 318 632 q 389 608 374 629 q 403 563 404 588 q 384 515 401 538 q 332 489 367 493 q 301 487 318 488 q 264 486 285 486 q 208 488 236 486 q 153 491 179 489 q 106 495 126 493 q 74 499 85 497 l 75 499 m 75 338 q 50 356 60 339 q 39 395 40 374 q 49 435 38 417 q 86 456 60 453 l 82 456 q 173 467 135 464 q 257 471 211 471 q 297 471 276 471 q 343 469 318 471 q 389 447 374 468 q 403 401 404 426 q 384 354 401 376 q 332 328 367 332 q 301 326 318 326 q 264 325 285 325 q 208 326 236 325 q 153 330 179 328 q 106 334 126 332 q 74 338 85 336 l 75 338 z "},">":{"ha":338,"x_min":39,"x_max":319,"o":"m 76 288 q 88 308 83 299 q 99 326 93 317 q 113 347 104 335 q 133 374 121 358 q 97 445 110 415 q 71 507 83 475 l 51 546 q 51 583 43 567 q 76 609 60 600 q 111 619 92 618 q 144 610 131 621 q 169 574 153 596 q 204 526 185 551 q 244 473 224 500 q 283 422 265 446 q 313 376 306 403 q 304 328 319 350 l 283 311 q 243 273 264 293 q 203 233 222 253 q 167 194 183 213 q 140 160 150 175 q 107 158 128 153 q 69 176 86 163 q 46 209 53 190 q 54 249 39 228 l 54 246 l 76 288 z "},"?":{"ha":721,"x_min":38,"x_max":700,"o":"m 700 835 q 699 812 699 824 q 700 786 700 800 q 672 669 694 728 q 619 553 650 610 q 550 444 588 497 q 478 342 513 390 q 426 269 450 303 q 386 206 403 236 l 368 163 q 347 123 356 139 q 328 97 338 107 q 306 82 318 88 q 275 74 293 76 q 221 73 244 71 q 181 86 197 75 q 158 121 165 97 q 154 185 151 144 q 161 225 157 201 q 172 274 165 249 q 193 329 175 289 q 238 421 211 369 q 294 535 264 472 q 349 658 324 597 q 392 770 375 718 q 408 854 408 822 q 377 942 400 915 q 321 964 354 968 l 325 964 q 235 933 282 957 q 169 875 189 910 l 169 876 q 138 838 154 849 q 101 826 121 826 q 58 844 78 826 q 38 889 39 861 q 58 949 38 921 q 109 999 78 976 q 180 1038 140 1021 q 257 1064 219 1054 q 320 1076 288 1071 q 389 1081 353 1081 q 497 1068 443 1081 q 594 1027 551 1056 q 667 951 638 999 q 700 835 696 904 m 215 -125 q 160 -121 183 -128 q 121 -101 136 -114 q 99 -70 106 -87 q 93 -33 92 -53 q 122 23 96 -4 q 199 51 147 50 q 292 24 261 54 q 319 -39 322 -6 q 290 -94 317 -69 q 217 -125 264 -118 l 215 -125 z "},"@":{"ha":1058,"x_min":28,"x_max":1043,"o":"m 960 735 q 1020 615 1004 679 q 1031 476 1036 550 q 1007 358 1028 414 q 958 257 986 301 l 969 257 q 990 249 978 257 q 1015 228 1003 240 q 1035 203 1026 215 q 1043 182 1043 190 q 959 55 1007 117 q 846 -54 911 -7 q 696 -129 781 -101 q 503 -154 611 -157 q 333 -126 419 -153 q 178 -47 247 -99 q 69 84 110 6 q 35 268 28 163 q 94 498 43 389 q 229 689 146 607 q 422 819 313 771 q 654 868 531 868 q 827 836 750 868 q 960 735 904 804 m 554 -21 q 652 -1 606 -18 q 739 42 699 17 q 813 99 779 68 q 874 161 846 129 q 779 124 826 126 q 720 130 744 122 q 677 150 696 138 q 644 179 658 163 q 615 215 629 196 q 554 152 588 182 q 488 110 521 122 q 421 96 449 96 q 361 110 385 96 q 323 149 338 125 q 303 204 308 172 q 301 272 299 236 q 323 376 304 322 q 374 465 342 429 q 419 513 394 489 q 472 556 444 536 q 531 588 500 575 q 596 600 563 600 q 649 592 628 600 q 697 561 669 583 l 708 571 q 753 588 729 586 q 795 576 776 589 q 822 534 814 563 q 819 460 831 506 l 819 461 q 814 428 817 449 q 808 383 811 407 q 801 332 804 358 q 797 282 799 306 q 786 265 797 267 q 831 285 811 265 q 865 333 851 306 q 888 393 879 361 q 897 449 896 425 q 885 553 901 504 q 839 640 869 603 q 767 697 808 676 q 679 718 725 718 q 549 677 615 718 q 427 569 482 636 q 335 417 372 503 q 290 240 297 331 q 299 143 288 192 q 340 56 310 94 q 423 -3 371 18 q 554 -21 475 -25 m 590 378 q 594 405 590 386 q 610 446 599 424 q 570 406 592 431 q 531 357 549 382 q 503 309 513 332 q 503 272 494 286 q 519 278 506 265 q 547 310 532 290 q 576 350 563 331 q 590 378 589 369 z "},"A":{"ha":763,"x_min":14,"x_max":756,"o":"m 756 -76 q 733 -139 756 -115 q 681 -162 710 -162 q 642 -147 660 -162 q 618 -96 625 -132 q 610 -65 617 -93 q 596 7 604 -36 q 576 103 588 50 q 556 209 565 156 q 537 311 546 263 q 522 394 528 360 l 361 394 l 303 51 q 272 -28 292 10 q 228 -94 253 -65 q 173 -138 203 -122 q 113 -154 143 -154 q 62 -142 81 -154 q 32 -110 43 -129 q 17 -67 21 -90 q 14 -24 14 -44 q 15 -10 14 -17 q 17 1 17 -4 l 17 10 q 14 32 14 15 q 22 144 14 72 q 47 303 31 215 q 85 490 63 392 q 137 683 108 589 q 201 863 165 778 q 275 1007 236 947 q 335 1060 299 1043 q 407 1078 372 1078 q 478 1058 446 1078 q 533 1004 510 1039 q 589 870 563 953 q 638 688 615 788 q 678 481 660 589 q 713 269 697 372 q 738 77 728 167 q 756 -74 749 -12 l 756 -76 m 442 785 l 429 717 q 408 628 418 671 q 390 538 399 586 q 424 540 407 539 q 457 540 442 540 l 492 540 q 499 540 494 540 q 511 539 504 540 q 478 667 494 606 q 444 783 461 729 l 442 785 z "},"B":{"ha":778,"x_min":11,"x_max":767,"o":"m 90 -143 q 53 -92 68 -125 q 28 -17 38 -60 q 15 76 19 25 q 11 182 11 126 q 13 251 11 217 q 17 318 15 285 l 24 522 q 44 723 31 622 q 80 903 57 824 q 138 1033 103 983 q 222 1083 172 1083 q 276 1059 251 1083 q 313 976 300 1035 q 314 978 313 978 q 317 982 315 979 q 403 1058 358 1036 q 490 1079 447 1079 q 551 1067 519 1079 q 611 1035 583 1056 q 660 987 639 1014 q 689 929 681 960 l 689 932 q 701 877 696 904 q 706 818 706 850 q 679 690 706 758 q 589 549 653 621 q 670 496 636 529 q 726 421 704 463 q 757 332 747 379 q 767 239 767 285 q 737 71 767 147 q 656 -60 707 -6 q 539 -146 606 -115 q 399 -176 472 -176 q 307 -161 346 -176 q 239 -122 268 -146 l 228 -137 q 201 -158 221 -144 q 154 -171 182 -171 q 89 -143 121 -171 l 90 -143 m 294 15 q 306 -12 294 -4 q 333 -21 317 -21 q 409 8 378 -21 q 460 81 440 38 q 490 174 481 124 q 499 267 499 225 q 493 329 499 300 q 475 381 488 358 q 441 416 463 403 q 388 429 419 429 q 359 428 375 429 q 324 422 343 426 l 321 340 q 309 184 313 258 q 290 35 306 110 q 294 23 293 28 q 294 15 294 18 m 450 844 q 453 881 451 865 q 456 907 456 896 q 450 926 456 926 q 425 906 439 926 q 397 852 411 885 q 368 778 382 819 q 344 697 354 738 q 328 622 333 657 q 324 567 322 588 l 325 565 q 326 561 325 564 q 326 556 326 558 q 378 615 356 576 q 415 698 400 654 q 439 781 431 742 q 450 844 447 821 m 290 35 l 290 33 q 292 31 290 32 q 293 28 293 29 l 290 35 z "},"C":{"ha":713,"x_min":7,"x_max":710,"o":"m 385 -160 q 201 -112 274 -160 q 85 12 129 -64 q 24 181 42 88 q 7 367 7 275 q 20 516 7 436 q 60 675 33 596 q 127 827 88 754 q 221 956 167 900 q 343 1044 275 1011 q 493 1078 411 1078 q 572 1068 533 1078 q 642 1038 611 1058 q 691 984 672 1017 q 710 906 710 951 q 692 832 710 857 q 644 807 674 807 q 597 823 617 807 q 576 857 576 839 q 577 869 576 864 q 578 879 578 874 q 568 918 578 903 q 490 881 536 915 q 400 769 443 846 q 326 569 357 693 q 296 265 296 446 q 302 153 296 204 q 323 64 308 101 q 359 6 338 26 q 413 -15 381 -15 q 449 -6 429 -14 q 490 20 469 3 q 530 65 511 38 q 560 129 549 92 q 581 164 567 154 q 613 174 596 174 q 661 158 640 174 q 682 126 682 142 q 659 28 678 78 q 604 -62 640 -21 q 514 -130 568 -103 q 385 -160 460 -157 z "},"D":{"ha":765,"x_min":7,"x_max":771,"o":"m 360 -168 q 292 -147 319 -162 q 243 -104 264 -131 q 231 -124 238 -112 q 215 -144 225 -135 q 188 -161 204 -154 q 146 -168 171 -168 q 115 -162 131 -168 q 83 -143 99 -157 q 27 -44 47 -111 q 7 138 7 22 q 10 228 7 183 q 17 318 14 272 q 42 643 26 501 q 83 883 58 785 q 143 1031 107 981 q 229 1082 179 1082 q 285 1049 265 1082 q 317 974 306 1015 q 395 1051 347 1022 q 510 1079 443 1079 q 610 1051 571 1079 q 673 984 649 1024 q 712 903 697 944 q 740 833 726 861 q 763 724 756 786 q 771 588 771 661 q 761 418 771 506 q 731 247 751 331 q 679 87 710 163 q 606 -47 649 11 q 508 -137 563 -104 q 388 -171 454 -171 q 374 -171 381 -171 q 360 -168 367 -171 m 324 417 q 311 242 318 328 q 293 72 304 156 q 327 9 310 33 q 360 -15 344 -15 q 410 18 388 -15 q 450 106 432 51 q 481 231 468 160 q 501 376 493 301 q 514 523 510 450 q 518 656 518 596 q 515 762 518 713 q 504 848 511 811 q 487 906 497 885 q 463 928 476 928 q 421 903 442 928 q 383 842 400 878 q 353 767 365 807 q 335 699 340 728 q 333 560 335 632 q 324 417 331 488 z "},"E":{"ha":621,"x_min":22,"x_max":613,"o":"m 106 -128 q 69 -97 85 -115 q 42 -47 53 -78 q 27 28 32 -17 q 22 135 22 72 q 26 226 22 181 q 32 318 29 272 l 39 440 q 64 707 47 576 q 110 946 81 838 q 134 985 117 965 q 174 1020 151 1004 q 220 1047 196 1036 q 268 1063 244 1058 l 265 1061 q 369 1080 317 1076 q 467 1083 421 1083 q 514 1081 494 1083 q 549 1072 533 1079 l 546 1074 q 593 1042 574 1063 q 613 999 613 1021 q 594 965 613 982 q 533 944 576 949 l 372 928 q 356 925 367 926 q 339 924 346 924 l 346 854 q 351 727 353 792 q 351 582 350 663 l 393 582 q 538 553 490 582 q 585 490 585 524 q 559 456 585 469 q 496 435 533 443 q 417 425 458 428 q 343 421 375 422 l 340 346 q 323 167 335 258 q 296 -1 311 76 l 296 -6 l 329 1 q 429 26 374 13 q 538 40 485 40 q 588 29 572 40 q 604 0 604 18 q 583 -51 604 -24 q 519 -101 563 -78 q 407 -139 475 -124 q 243 -154 339 -154 q 166 -149 201 -154 q 107 -129 131 -144 l 106 -128 z "},"F":{"ha":540,"x_min":24,"x_max":628,"o":"m 128 1021 q 186 1049 149 1038 q 269 1066 224 1060 q 361 1075 314 1072 q 450 1078 408 1078 q 529 1070 496 1078 q 585 1050 563 1063 q 617 1023 607 1038 q 628 994 628 1008 q 606 964 628 978 q 535 944 583 950 l 538 944 q 444 935 489 938 q 363 929 399 932 l 340 928 q 347 860 344 899 q 349 768 349 821 q 348 683 349 729 q 344 582 347 638 q 484 553 440 582 q 528 485 528 525 q 509 456 528 468 q 463 438 490 444 q 401 427 435 431 q 338 422 367 424 q 338 408 338 415 q 339 394 339 401 l 333 296 q 325 199 331 247 q 315 109 319 151 q 306 32 310 67 q 301 -24 301 -3 l 301 -35 q 285 -82 297 -60 q 253 -121 272 -104 q 213 -147 235 -137 q 167 -157 190 -157 q 104 -139 131 -157 q 60 -80 78 -121 q 33 28 42 -39 q 24 193 24 94 q 25 253 24 222 q 28 321 26 285 l 29 406 q 56 678 40 543 q 90 950 72 813 q 99 967 94 956 q 110 990 104 978 q 124 1011 117 1001 q 138 1024 131 1021 l 128 1021 z "},"G":{"ha":801,"x_min":7,"x_max":799,"o":"m 385 -160 q 198 -112 271 -160 q 83 10 125 -65 q 24 181 40 86 q 7 371 7 276 q 19 522 7 442 q 58 680 32 601 q 123 831 83 758 q 217 958 163 903 q 340 1045 271 1013 q 493 1078 408 1078 q 574 1068 535 1078 q 642 1038 613 1058 q 689 985 671 1018 q 707 907 707 953 q 684 820 707 846 q 640 794 661 794 q 594 817 613 794 q 576 857 576 839 q 577 869 576 864 q 578 878 578 874 q 567 918 578 904 q 486 876 533 915 q 396 759 439 836 q 323 565 353 682 q 293 289 293 447 q 299 172 293 226 q 319 76 306 117 q 354 11 333 35 q 404 -12 375 -12 q 453 9 431 -12 q 494 67 476 31 q 526 149 513 103 q 551 245 540 196 q 569 343 563 294 q 579 432 575 392 q 509 424 539 428 q 451 421 479 421 q 392 437 410 421 q 374 476 374 453 q 392 526 374 507 q 442 558 410 546 q 517 574 474 569 q 610 579 560 579 q 754 555 710 579 q 799 488 799 531 q 777 449 799 464 q 704 433 756 433 q 679 213 697 318 q 624 27 661 108 q 530 -104 588 -54 q 385 -160 472 -154 z "},"H":{"ha":711,"x_min":13,"x_max":692,"o":"m 689 229 q 678 88 678 158 q 671 -37 678 18 q 643 -126 664 -92 q 572 -160 622 -160 q 524 -138 544 -160 q 503 -83 503 -117 q 519 159 511 40 q 531 422 526 278 l 440 422 q 389 422 413 422 q 346 424 365 422 l 325 424 q 325 412 325 417 q 328 396 325 407 q 321 271 325 335 q 312 149 317 207 q 301 44 307 90 q 289 -26 294 -3 q 279 -73 289 -50 q 252 -115 269 -96 q 212 -145 235 -133 q 163 -157 189 -157 q 102 -142 129 -157 q 55 -87 75 -126 q 24 19 35 -47 q 13 188 13 85 q 13 250 13 217 q 17 321 14 283 q 15 342 17 332 q 14 363 14 351 l 18 406 q 31 548 24 478 q 50 690 38 618 l 53 761 q 103 999 61 919 q 203 1079 144 1079 q 258 1060 236 1079 q 292 1029 279 1040 q 309 997 301 1017 q 322 943 317 976 q 331 859 328 910 q 335 732 335 808 q 335 660 335 699 q 333 576 335 621 q 384 579 358 579 q 436 579 410 579 q 493 578 468 579 q 539 572 518 576 q 547 784 544 682 q 550 990 550 886 q 576 1053 553 1028 q 622 1078 599 1078 q 666 1058 651 1078 q 685 999 681 1039 l 686 883 q 688 761 688 829 q 690 621 689 693 q 691 475 690 549 q 692 338 692 401 l 689 229 z "},"I":{"ha":467,"x_min":-12,"x_max":525,"o":"m 111 -168 q 70 -167 90 -168 q 33 -165 50 -167 q -2 -146 8 -165 q -11 -103 -12 -126 q 1 -58 -10 -79 q 29 -37 11 -37 q 58 -37 44 -39 q 89 -32 72 -35 l 88 -33 q 92 -31 90 -32 q 96 -29 94 -29 q 76 107 82 24 q 79 321 71 190 q 78 342 79 332 q 78 363 78 351 l 82 404 q 95 547 88 478 q 113 690 103 617 l 118 761 q 126 837 122 801 q 138 907 131 872 q 104 904 118 907 q 37 913 57 897 q 18 952 17 929 q 39 997 19 975 q 89 1028 58 1019 q 231 1060 151 1043 q 389 1078 310 1078 q 412 1077 403 1078 q 429 1074 421 1076 q 447 1067 438 1071 q 468 1057 456 1063 q 509 1026 493 1043 q 525 994 525 1010 q 505 964 525 978 q 438 944 485 950 l 388 938 q 397 864 393 907 q 401 756 400 821 q 399 603 401 692 q 390 393 396 514 l 388 344 l 385 299 q 372 128 379 207 q 357 4 364 50 l 372 4 q 432 -3 414 7 q 450 -32 450 -14 q 435 -72 450 -50 q 396 -112 419 -93 q 372 -129 383 -124 q 335 -140 361 -135 q 219 -162 278 -156 q 111 -168 160 -168 z "},"J":{"ha":601,"x_min":3,"x_max":651,"o":"m 157 1024 q 242 1050 190 1039 q 344 1068 293 1061 q 388 1079 361 1079 q 417 1074 396 1079 q 493 1078 458 1078 q 548 1076 524 1078 q 590 1067 572 1074 q 633 1033 617 1051 q 651 997 650 1015 q 633 965 651 979 q 574 944 615 951 l 504 935 l 494 935 q 502 853 500 897 q 504 763 504 808 l 504 674 q 503 498 504 589 q 500 321 501 407 q 477 140 496 228 q 422 -15 458 53 q 328 -124 385 -83 q 193 -165 272 -165 q 124 -154 160 -165 q 70 -125 94 -146 q 30 -74 46 -104 q 8 -8 14 -43 q 13 65 3 28 q 48 115 26 106 q 90 115 69 124 q 126 89 111 107 q 140 57 140 71 q 140 -10 129 3 q 165 30 156 -7 q 182 122 175 67 q 184 187 185 154 q 185 256 183 219 q 189 329 188 292 q 193 399 190 367 q 206 582 200 501 q 219 725 213 663 q 232 833 225 788 q 246 911 239 878 q 237 910 242 911 q 228 910 232 910 q 224 908 225 910 q 218 907 222 907 q 193 907 206 907 q 174 904 181 907 q 113 917 133 901 q 92 953 93 932 q 108 997 90 975 q 160 1026 125 1018 l 157 1024 z "},"K":{"ha":668,"x_min":13,"x_max":711,"o":"m 94 996 q 139 1063 114 1046 q 196 1079 164 1079 q 250 1062 224 1079 q 290 1029 276 1044 q 313 993 303 1014 q 328 932 322 972 q 338 826 335 892 q 338 654 340 760 q 405 772 371 714 q 469 878 439 829 q 524 967 499 928 q 568 1029 550 1006 q 646 1078 607 1078 q 695 1051 679 1078 q 682 971 711 1024 l 682 972 l 485 585 l 389 410 l 428 363 q 483 299 457 331 q 536 229 510 267 q 588 145 563 192 q 639 39 614 99 q 649 3 647 19 q 650 -29 650 -14 q 628 -101 647 -69 q 583 -149 608 -132 q 531 -165 557 -165 q 488 -140 504 -164 q 424 -35 460 -104 q 350 113 388 33 l 332 146 l 333 144 l 313 183 q 300 51 306 111 q 289 -39 294 -10 q 272 -86 285 -64 q 240 -125 258 -108 q 198 -151 221 -142 q 150 -161 175 -161 q 103 -151 124 -161 q 68 -122 83 -140 q 40 -54 51 -93 q 21 38 28 -15 q 13 161 14 92 q 17 321 13 231 q 16 342 17 332 q 15 363 15 351 l 18 406 q 31 548 25 478 q 49 690 38 618 l 54 761 q 67 880 58 825 q 94 994 75 935 l 94 996 z "},"L":{"ha":606,"x_min":4,"x_max":592,"o":"m 89 -128 q 40 -80 60 -110 q 13 13 19 -50 q 6 167 4 92 q 15 318 8 242 l 22 440 q 48 707 31 576 q 93 946 65 838 q 136 1027 111 994 q 193 1074 161 1060 q 266 1068 239 1092 q 307 1003 293 1044 q 326 919 321 963 q 332 854 331 875 q 335 617 338 751 q 324 346 332 482 q 307 167 318 258 q 279 -1 296 76 q 285 -1 282 -1 q 290 0 288 0 q 297 1 293 0 q 301 1 300 1 q 390 22 339 10 q 504 40 442 33 q 572 33 551 44 q 592 1 592 21 q 575 -42 592 -18 q 533 -87 558 -67 q 488 -108 521 -97 q 411 -130 454 -119 q 319 -147 368 -140 q 226 -154 271 -154 q 151 -149 186 -154 q 90 -129 115 -144 l 89 -128 z "},"M":{"ha":886,"x_min":8,"x_max":869,"o":"m 844 935 q 856 801 851 881 q 864 630 861 722 q 868 438 867 538 q 869 244 869 339 q 865 67 868 150 q 857 -78 863 -17 q 831 -134 854 -112 q 785 -156 808 -156 q 741 -139 760 -156 q 718 -87 722 -122 q 711 67 714 -19 q 708 246 708 153 q 706 433 707 339 q 706 610 706 526 l 644 410 l 639 372 q 621 315 629 340 q 600 272 613 289 q 569 244 588 254 q 522 235 551 235 q 506 235 514 235 q 488 240 497 236 q 430 271 450 251 q 400 307 410 290 l 393 363 l 393 361 q 360 540 378 442 q 318 735 343 638 q 313 559 313 643 q 313 393 313 475 q 310 226 311 311 q 304 60 310 140 q 283 -24 297 15 q 247 -92 268 -62 q 200 -138 226 -121 q 140 -156 174 -156 q 129 -155 135 -156 q 117 -151 124 -154 l 113 -151 q 62 -119 81 -142 q 33 -71 43 -96 q 21 -24 24 -46 q 18 6 18 -3 q 9 151 10 56 q 17 368 8 246 q 45 636 28 508 q 89 860 63 764 q 153 1015 115 957 q 244 1072 192 1072 q 299 1061 272 1072 q 350 1031 326 1050 q 392 990 374 1013 q 421 943 411 967 q 479 733 454 854 q 519 868 499 806 q 561 993 539 931 q 614 1061 578 1040 q 689 1082 650 1082 q 742 1071 715 1082 q 790 1040 768 1060 q 826 992 811 1019 q 844 935 840 965 z "},"N":{"ha":728,"x_min":8,"x_max":747,"o":"m 124 994 q 190 1062 151 1046 q 261 1078 229 1078 q 353 1034 310 1078 q 418 924 396 990 q 447 835 432 886 q 478 724 463 783 q 509 601 493 665 q 540 474 525 538 q 567 765 551 629 q 599 999 583 900 q 631 1060 607 1043 q 682 1078 654 1078 q 729 1063 711 1078 q 740 1000 747 1047 q 726 867 733 932 q 713 724 719 801 q 698 551 706 647 q 682 324 690 454 q 679 295 681 321 q 676 231 678 269 q 673 147 675 193 q 670 58 671 101 q 669 -22 669 14 q 668 -74 668 -57 q 590 -149 664 -149 q 538 -135 561 -149 q 504 -85 514 -121 q 482 17 493 -33 q 461 118 471 67 q 441 201 450 160 q 422 283 432 243 l 411 340 q 376 506 393 422 q 333 685 358 590 q 331 540 335 619 q 322 365 328 460 l 318 315 q 319 292 318 304 q 321 267 321 279 q 303 85 313 165 q 289 -33 294 4 q 272 -81 285 -58 q 240 -119 258 -103 q 199 -146 221 -136 q 151 -156 176 -156 q 103 -142 126 -156 q 63 -106 79 -128 q 35 -51 47 -83 q 17 28 24 -18 q 10 139 11 75 q 13 288 8 203 q 15 322 14 303 q 17 363 15 342 q 19 403 18 383 q 22 439 21 422 q 34 590 26 511 q 54 744 42 669 q 83 883 67 818 q 124 994 100 949 m 289 854 q 288 849 289 851 q 289 844 288 847 l 289 849 q 291 850 292 850 q 290 851 290 850 l 289 854 z "},"O":{"ha":725,"x_min":6,"x_max":722,"o":"m 399 -154 q 227 -115 300 -154 q 106 -10 154 -76 q 33 143 57 56 q 7 329 8 231 q 6 367 6 349 q 7 404 7 385 q 58 660 17 539 q 160 875 99 782 q 297 1023 221 968 q 454 1078 374 1078 q 587 1033 533 1078 q 671 910 640 989 q 712 723 701 832 q 717 485 722 614 q 714 449 714 467 q 711 411 714 431 q 690 220 706 319 q 640 38 674 121 q 547 -100 606 -46 q 399 -154 489 -154 m 589 479 q 590 657 594 576 q 572 795 585 738 q 540 885 560 853 q 499 917 521 917 q 424 872 457 917 q 365 756 390 828 q 324 592 340 683 q 300 410 307 501 q 297 252 294 328 q 309 118 299 176 q 340 24 319 60 q 390 -11 360 -11 q 451 13 425 -11 q 498 76 478 38 q 532 165 518 115 q 556 267 546 215 q 573 369 567 319 q 583 456 579 418 q 589 479 583 469 z "},"P":{"ha":785,"x_min":6,"x_max":788,"o":"m 294 96 q 284 2 292 47 q 263 -78 276 -43 q 228 -135 249 -114 q 182 -156 208 -156 q 98 -131 132 -156 q 43 -63 64 -106 q 14 37 22 -21 q 8 161 6 94 q 8 351 6 253 q 19 538 11 450 q 36 727 25 638 q 64 899 47 817 q 108 1034 86 990 q 182 1078 131 1078 q 228 1065 206 1078 q 260 1044 251 1053 l 281 1018 q 290 1001 286 1011 q 300 976 293 990 q 388 1058 333 1029 q 525 1082 442 1086 q 725 935 638 1075 q 772 802 757 878 q 781 635 788 726 q 742 448 774 528 q 660 315 711 368 q 539 236 608 263 q 389 210 469 210 q 353 210 376 210 q 304 215 329 211 l 294 96 m 493 878 q 454 918 479 918 q 397 878 429 918 q 363 798 378 853 q 333 657 349 743 l 317 482 q 308 393 308 433 l 304 340 q 328 340 319 339 q 405 371 372 342 q 459 446 438 400 q 493 548 481 492 q 510 661 506 604 q 509 782 515 724 q 492 879 503 840 l 493 878 z "},"Q":{"ha":736,"x_min":6,"x_max":739,"o":"m 156 -158 q 146 -151 153 -157 q 137 -135 139 -144 q 144 -113 135 -125 q 182 -87 153 -101 q 48 86 90 -22 q 7 329 6 194 q 6 367 6 349 q 7 404 7 385 q 57 660 17 539 q 158 875 97 782 q 295 1023 219 968 q 451 1078 371 1078 q 588 1033 532 1078 q 678 910 644 989 q 726 723 713 832 q 733 485 739 614 q 722 367 729 431 q 703 240 715 304 q 673 114 692 176 q 626 0 654 51 q 672 -15 658 -3 q 681 -44 685 -26 q 660 -81 678 -61 q 610 -122 642 -101 q 561 -140 594 -132 q 486 -154 528 -149 q 397 -162 444 -160 q 306 -165 350 -165 q 263 -166 289 -165 q 214 -166 238 -167 q 173 -164 190 -165 q 156 -158 156 -162 m 604 482 q 602 658 610 578 q 579 795 594 738 q 542 885 564 853 q 496 917 519 917 q 422 872 456 917 q 364 756 389 828 q 322 592 339 683 q 299 410 306 501 q 295 252 293 328 q 308 118 297 176 q 340 24 319 60 q 390 -11 360 -11 q 457 15 428 -11 q 508 85 486 42 q 547 182 531 128 q 575 291 564 236 q 593 397 586 346 q 604 482 600 447 z "},"R":{"ha":782,"x_min":1,"x_max":776,"o":"m 301 174 q 288 74 299 129 q 260 -31 276 18 q 222 -115 243 -81 q 176 -151 200 -150 l 179 -151 q 79 -140 115 -162 q 26 -72 43 -117 q 5 33 8 -28 q 4 161 1 94 q 5 351 3 253 q 15 538 7 450 q 33 729 22 640 q 58 893 43 818 q 81 976 71 942 q 103 1034 90 1011 q 133 1067 115 1057 q 179 1078 150 1078 q 224 1067 203 1078 q 275 1029 246 1057 q 308 974 290 1013 l 336 1010 q 521 1083 406 1089 q 629 1047 579 1082 q 719 944 679 1011 q 765 836 753 894 q 775 711 776 778 q 739 534 772 614 q 647 396 706 454 l 649 396 q 552 326 604 353 q 435 296 500 299 q 533 158 483 219 q 618 50 582 97 q 660 -1 642 22 q 690 -40 678 -24 q 708 -106 714 -78 q 681 -147 703 -133 q 628 -156 660 -160 q 568 -128 596 -153 q 469 -31 510 -76 q 392 63 428 15 l 369 90 q 347 122 360 106 q 329 149 335 138 l 301 194 l 301 174 m 353 756 q 334 634 342 685 q 322 548 326 583 q 314 488 317 513 q 310 446 311 464 q 310 438 310 439 q 310 436 310 436 q 310 435 310 436 q 310 426 310 433 q 359 433 333 424 q 410 467 385 443 q 456 522 438 492 q 486 586 475 553 q 503 653 497 619 q 513 718 510 686 q 515 783 515 754 q 510 832 514 813 q 506 858 508 843 q 499 887 503 874 q 489 909 494 900 q 475 918 483 918 q 375 846 425 925 l 382 851 q 365 809 371 832 q 353 756 360 786 z "},"S":{"ha":633,"x_min":1,"x_max":633,"o":"m 21 839 q 59 932 32 889 q 128 1008 86 975 q 228 1060 171 1040 q 357 1083 285 1079 q 424 1077 383 1083 q 501 1051 464 1071 q 563 994 539 1032 q 582 893 588 957 q 578 851 581 869 q 569 822 576 833 q 545 804 561 810 q 503 799 529 799 q 458 806 474 799 q 435 824 442 813 q 429 849 429 835 q 432 878 429 863 q 417 929 435 913 q 379 939 399 946 q 346 924 363 935 q 316 898 329 914 q 294 863 303 882 q 285 822 286 843 q 285 793 285 807 q 293 767 286 779 q 330 713 308 735 q 381 663 351 690 q 445 599 407 636 q 538 499 483 561 q 612 356 590 432 q 626 206 633 281 q 593 63 622 131 q 516 -58 564 -6 q 403 -141 468 -110 q 264 -172 339 -172 q 110 -135 189 -172 q 67 -103 88 -125 q 33 -54 47 -82 q 10 6 18 -26 q 4 72 1 39 q 15 127 7 100 q 42 179 24 154 q 82 206 58 201 q 126 201 106 210 q 158 171 146 192 q 163 122 169 150 q 156 101 160 113 q 153 78 153 89 q 168 23 150 40 q 210 6 186 6 q 281 31 246 6 q 338 107 317 57 l 332 104 q 341 130 339 118 q 343 149 343 142 q 333 234 346 189 q 292 326 319 279 q 227 420 265 374 q 143 511 189 467 q 39 665 72 579 q 21 839 6 751 z "},"T":{"ha":556,"x_min":0,"x_max":547,"o":"m 57 1026 q 127 1045 86 1036 q 213 1061 168 1054 q 303 1073 258 1068 q 388 1078 349 1078 q 442 1076 417 1078 q 485 1067 468 1074 q 527 1034 510 1053 q 546 997 544 1015 q 529 965 547 979 q 465 944 511 950 q 438 940 449 942 q 418 937 426 938 q 401 935 410 936 q 379 933 393 933 q 388 856 385 901 q 391 744 390 810 q 389 593 392 679 q 381 394 386 507 l 376 344 l 375 296 q 367 190 371 243 q 358 90 363 136 q 350 6 354 43 q 342 -49 346 -31 q 322 -96 336 -74 q 290 -135 308 -118 q 249 -162 271 -153 q 204 -172 226 -172 q 157 -158 179 -172 q 115 -124 135 -144 q 72 33 85 -74 q 69 321 60 139 q 69 342 69 332 q 68 363 68 351 l 71 406 q 85 548 78 478 q 103 690 93 618 l 108 761 q 115 838 113 800 q 126 910 118 876 l 124 910 q 118 908 119 910 q 113 907 117 907 q 89 907 100 907 q 71 904 78 907 q 17 917 33 901 q 0 953 0 932 q 15 997 0 975 q 57 1026 31 1018 z "},"U":{"ha":689,"x_min":3,"x_max":679,"o":"m 265 -165 q 155 -119 204 -157 q 72 -19 106 -82 q 20 130 38 43 q 6 322 3 217 q 10 432 3 375 q 22 584 14 507 q 42 733 31 661 q 69 867 54 804 q 103 977 85 931 q 144 1051 122 1024 q 190 1078 167 1078 q 272 1037 240 1076 q 313 940 304 997 q 321 843 318 897 q 324 731 324 789 q 322 616 324 674 q 315 511 319 558 q 311 388 310 436 l 310 306 q 308 185 308 243 q 309 84 307 128 q 317 14 311 40 q 335 -12 324 -12 q 394 20 368 -12 q 442 106 421 53 q 478 226 463 158 q 506 363 494 293 q 524 499 517 432 q 535 615 531 565 q 539 718 540 686 l 543 744 q 538 831 543 789 q 529 907 532 874 l 532 907 q 524 946 525 928 q 522 972 522 964 q 543 1036 522 1021 q 590 1051 564 1051 q 640 1017 622 1051 q 667 933 658 983 q 677 824 675 882 q 679 717 679 765 l 679 696 q 676 610 679 656 q 671 524 674 564 q 640 274 663 394 q 573 59 617 154 q 463 -97 529 -36 q 300 -167 396 -157 l 265 -165 z "},"V":{"ha":706,"x_min":11,"x_max":689,"o":"m 310 -167 q 265 -163 285 -167 q 226 -149 244 -160 q 187 -117 207 -137 q 144 -61 167 -96 q 91 65 114 -8 q 53 219 68 138 q 28 389 38 301 q 15 558 19 476 q 12 711 11 639 q 17 835 13 783 q 22 877 19 856 q 28 913 24 899 l 28 921 q 33 957 29 935 q 47 1002 38 979 q 74 1044 57 1025 q 117 1071 90 1064 q 185 1068 153 1081 q 243 1028 217 1056 q 287 959 269 1000 q 311 871 304 918 l 317 744 q 317 693 317 719 q 317 642 317 667 q 319 599 318 618 q 322 568 321 579 l 324 501 q 326 485 326 496 l 328 483 q 333 334 328 415 q 343 174 339 253 q 419 449 386 314 q 482 715 453 585 l 499 789 q 524 891 513 839 q 550 993 536 943 q 583 1043 560 1024 q 626 1063 606 1063 q 653 1055 642 1063 q 673 1035 665 1047 q 685 1007 681 1022 q 688 978 689 992 q 658 831 675 915 q 622 653 642 747 q 578 463 601 560 q 530 276 554 365 q 481 111 506 188 q 433 -15 457 35 l 433 -12 l 421 -51 q 401 -94 411 -74 q 379 -130 392 -114 q 350 -156 367 -146 q 310 -167 333 -165 z "},"W":{"ha":879,"x_min":11,"x_max":924,"o":"m 322 -99 l 311 -110 l 322 -100 q 299 -134 310 -121 q 276 -154 289 -147 q 247 -164 264 -161 q 206 -167 231 -167 q 142 -139 171 -167 q 82 -44 114 -111 q 40 66 56 7 q 18 188 25 125 q 11 315 11 250 q 15 443 11 379 q 40 655 24 554 q 74 828 56 756 q 75 832 74 829 q 76 838 76 835 q 92 892 81 854 q 122 969 104 929 q 162 1040 139 1008 q 213 1078 185 1072 q 278 1065 251 1081 q 323 1021 306 1050 q 349 951 340 992 q 357 865 357 911 q 358 838 360 854 q 356 806 356 821 q 347 721 353 768 q 338 632 342 674 q 333 585 335 604 q 332 556 332 567 l 324 444 l 313 311 l 363 465 q 372 521 365 492 q 392 575 379 550 q 428 618 406 600 q 485 640 450 636 q 568 638 538 649 q 615 603 599 626 q 639 544 632 579 q 651 467 646 508 l 656 439 l 656 443 l 668 374 l 667 376 l 674 310 l 674 306 q 700 453 689 381 q 722 599 711 525 l 749 756 l 761 854 l 782 996 q 810 1057 786 1038 q 857 1076 835 1076 q 905 1054 886 1076 q 921 996 924 1032 q 906 850 917 936 q 879 667 894 764 q 847 468 864 569 q 813 278 829 367 l 763 -6 l 763 -11 q 762 -19 763 -14 q 761 -29 761 -25 q 752 -78 757 -54 q 736 -122 747 -103 q 708 -154 725 -142 q 661 -167 690 -167 l 640 -167 q 606 -165 622 -167 q 572 -156 589 -164 q 536 -131 554 -149 q 499 -82 518 -114 q 444 20 465 -29 q 407 128 422 69 l 393 88 q 361 -16 376 31 q 326 -94 346 -62 l 322 -99 z "},"X":{"ha":751,"x_min":6,"x_max":743,"o":"m 243 1038 q 307 1017 272 1038 q 332 983 315 1008 q 368 923 349 957 q 407 850 388 889 q 442 778 426 811 q 515 893 479 839 q 583 988 550 947 q 646 1053 617 1029 q 699 1076 675 1076 q 723 1063 710 1072 q 742 1029 736 1053 q 742 1017 743 1025 q 736 1004 740 1008 q 689 922 719 976 q 624 809 658 868 q 558 696 590 750 q 508 613 526 642 l 586 385 l 707 -4 q 711 -59 714 -31 q 695 -112 708 -87 q 658 -154 682 -137 q 599 -174 633 -171 q 530 -150 565 -178 q 457 -72 494 -122 q 381 48 419 -22 q 303 200 342 118 l 247 101 q 195 10 225 63 q 124 -122 165 -43 q 95 -143 115 -135 q 55 -152 75 -151 q 20 -142 35 -153 q 8 -106 6 -132 q 8 -94 8 -101 q 14 -69 8 -87 q 32 -19 19 -51 q 69 70 44 14 q 131 210 93 126 q 226 411 169 293 q 225 417 225 413 q 194 524 213 460 q 161 658 176 589 q 135 794 146 728 q 125 907 125 860 q 136 960 125 936 q 165 1001 147 983 q 203 1028 182 1018 q 243 1038 224 1038 z "},"Y":{"ha":656,"x_min":0,"x_max":649,"o":"m 8 972 q 17 1030 0 1007 q 58 1058 33 1053 q 110 1049 83 1064 q 149 994 136 1033 l 168 940 q 198 833 183 883 q 226 737 213 783 q 251 646 239 690 q 276 556 264 601 q 330 742 300 644 q 396 918 360 840 q 433 997 414 963 q 474 1053 451 1032 q 526 1078 497 1074 q 592 1071 554 1083 q 635 1008 622 1054 q 646 904 649 963 q 628 792 639 850 q 610 690 618 735 q 605 672 607 683 q 603 656 603 661 l 593 624 q 592 611 592 618 q 563 490 578 549 q 532 376 547 431 q 527 367 529 369 q 525 360 525 364 l 496 257 q 450 102 471 168 q 409 -12 429 36 q 368 -91 389 -60 q 321 -143 347 -122 l 324 -143 q 277 -169 300 -162 q 238 -176 254 -176 q 192 -164 213 -176 q 156 -131 171 -151 q 135 -85 142 -111 q 132 -32 129 -60 q 153 79 136 0 q 197 257 171 158 l 143 451 q 72 706 108 574 q 8 971 36 838 l 8 972 z "},"Z":{"ha":721,"x_min":3,"x_max":713,"o":"m 206 438 q 322 684 264 564 q 446 917 379 804 q 450 924 449 922 q 451 926 451 925 l 454 928 l 446 929 q 439 928 442 929 q 433 928 436 928 q 349 922 399 925 q 238 915 299 918 q 170 923 190 913 q 152 951 150 933 q 174 990 154 968 q 226 1032 194 1013 q 269 1047 244 1042 q 322 1060 294 1053 q 404 1069 357 1064 q 501 1077 451 1075 q 597 1076 551 1079 q 676 1063 643 1074 q 709 1012 706 1050 q 701 922 713 974 q 663 791 689 860 q 617 667 636 722 l 606 643 l 607 644 l 590 601 q 534 478 564 539 q 472 357 504 418 l 424 256 q 342 99 378 164 q 279 -11 307 33 l 288 -11 q 373 -8 324 -11 q 485 -6 422 -6 q 551 -22 529 -6 q 574 -58 574 -37 q 555 -99 575 -79 q 493 -126 535 -118 q 436 -143 474 -136 q 352 -154 399 -150 q 255 -160 306 -158 q 160 -160 204 -162 l 121 -156 q 57 -143 82 -158 q 19 -104 32 -128 q 4 -51 6 -81 q 11 4 3 -22 l 49 96 q 115 233 76 150 q 206 438 153 315 z "},"[":{"ha":325,"x_min":11,"x_max":539,"o":"m 106 1169 q 119 1205 108 1190 q 147 1228 131 1219 q 185 1240 164 1236 q 226 1244 206 1243 l 439 1254 q 483 1248 463 1257 q 516 1223 503 1239 q 534 1188 529 1207 q 533 1151 539 1168 q 506 1122 526 1133 q 450 1110 486 1110 q 406 1110 431 1110 q 357 1111 382 1111 q 324 1110 340 1111 q 293 1110 308 1110 l 290 1015 q 282 688 288 872 q 260 260 276 503 q 251 124 254 182 q 244 14 247 65 q 237 -89 242 -37 q 222 -206 232 -140 l 324 -201 q 380 -222 364 -201 q 395 -269 396 -243 q 379 -319 394 -296 q 342 -346 364 -342 l 344 -346 q 236 -354 286 -354 q 190 -353 213 -354 q 147 -350 168 -351 l 69 -346 q 28 -304 43 -329 q 13 -239 13 -279 q 13 -86 14 -156 q 12 51 13 -17 q 12 193 11 119 q 17 360 13 267 q 35 583 25 479 q 55 785 44 688 q 78 976 65 882 q 106 1169 90 1069 z "},"\\":{"ha":572,"x_min":21,"x_max":547,"o":"m 500 93 q 526 -7 517 36 q 539 -79 535 -50 l 542 -104 q 533 -172 547 -146 q 497 -211 519 -199 q 451 -222 475 -224 q 414 -204 428 -219 q 400 -183 407 -196 q 384 -145 393 -171 q 361 -76 375 -119 q 328 39 347 -32 l 257 288 q 213 451 236 367 q 161 629 189 536 q 100 826 133 722 q 28 1046 67 929 q 26 1094 21 1072 q 45 1130 31 1115 q 81 1153 60 1144 q 125 1161 101 1161 q 189 1144 157 1161 q 233 1090 221 1126 l 233 1093 q 251 1034 238 1081 q 285 915 265 988 q 331 749 306 843 q 384 547 356 654 q 442 324 413 440 q 500 93 472 208 z "},"]":{"ha":315,"x_min":-164,"x_max":364,"o":"m 247 -274 q 206 -331 240 -317 q 131 -347 171 -346 l -86 -358 q -139 -340 -119 -358 q -161 -296 -158 -321 q -148 -247 -164 -271 q -93 -214 -132 -224 q -51 -217 -74 -217 q -4 -217 -28 -217 l 58 -217 l 63 -119 q 66 28 64 -49 q 72 194 68 106 q 82 384 76 282 q 96 607 88 486 q 107 751 101 685 q 119 880 113 818 q 133 1001 125 942 q 151 1126 140 1061 l 47 1122 q -8 1143 7 1122 q -22 1190 -24 1164 q -6 1240 -21 1217 q 32 1267 10 1263 q 81 1271 56 1269 q 131 1272 106 1272 q 215 1268 174 1272 l 304 1267 q 346 1226 328 1250 q 364 1160 364 1201 q 361 999 363 1076 q 357 842 360 921 q 350 680 354 763 q 339 506 346 597 q 321 287 331 386 q 299 96 311 188 q 274 -85 288 4 q 247 -274 261 -174 z "},"_":{"ha":900,"x_min":14,"x_max":879,"o":"m 101 -157 q 37 -140 60 -157 q 14 -103 14 -124 q 38 -64 14 -82 q 117 -43 63 -46 l 115 -43 q 207 -37 150 -39 q 331 -33 264 -35 q 472 -30 399 -31 q 611 -29 544 -29 q 712 -29 664 -29 q 794 -31 760 -29 q 858 -52 838 -32 q 877 -96 879 -72 q 851 -140 875 -119 q 779 -165 826 -161 l 782 -165 q 716 -169 760 -168 q 611 -171 672 -171 q 453 -169 538 -171 q 294 -166 369 -168 q 165 -161 219 -164 q 96 -157 110 -158 l 101 -157 z "},"`":{"ha":371,"x_min":24,"x_max":338,"o":"m 264 1088 q 243 1095 253 1092 q 222 1101 233 1099 q 154 1125 188 1113 q 71 1165 121 1138 q 31 1208 39 1179 q 35 1265 24 1238 q 73 1308 46 1292 q 136 1313 100 1324 l 142 1310 q 177 1283 163 1294 q 209 1259 192 1272 q 253 1229 226 1246 q 328 1188 281 1213 q 338 1155 338 1175 q 328 1117 338 1135 q 303 1090 319 1100 q 264 1088 286 1079 z "},"a":{"ha":722,"x_min":0,"x_max":715,"o":"m 715 -74 q 696 -134 715 -111 q 649 -157 676 -157 q 610 -142 628 -157 q 583 -94 592 -128 q 576 -62 582 -90 q 563 7 571 -35 q 544 100 554 49 q 524 203 533 151 q 506 301 514 254 q 493 382 497 349 l 338 382 l 321 274 l 279 50 q 249 -28 268 8 q 205 -91 229 -64 q 152 -133 181 -118 q 93 -149 124 -149 q 39 -132 58 -149 q 11 -91 19 -115 q 1 -41 3 -67 q 0 1 0 -15 l 1 67 q 14 185 4 114 q 40 338 24 256 q 78 510 57 421 q 128 685 100 600 q 188 844 156 769 q 256 972 219 918 q 313 1024 279 1007 q 379 1040 346 1040 q 504 968 457 1040 q 556 839 531 918 q 602 664 581 760 q 642 463 624 568 q 676 259 661 358 q 700 74 690 160 q 715 -72 710 -12 l 715 -74 m 417 757 l 410 733 l 404 690 q 380 607 389 647 q 361 518 371 567 q 394 520 378 519 q 426 522 411 521 q 449 522 440 522 q 460 522 458 522 q 467 522 463 522 q 478 521 471 522 q 448 644 465 585 q 418 756 431 703 l 417 757 z "},"b":{"ha":758,"x_min":17,"x_max":746,"o":"m 94 -137 q 56 -87 71 -119 q 33 -14 42 -56 q 20 75 24 28 q 17 171 17 122 q 21 307 17 240 l 29 426 l 32 504 q 51 694 39 597 q 84 869 63 792 q 139 997 106 947 q 222 1047 172 1047 q 274 1024 251 1047 q 307 943 296 1000 q 311 946 307 946 q 398 1024 354 1006 q 479 1043 442 1043 q 538 1031 507 1043 q 595 999 568 1019 q 642 953 622 979 q 671 896 663 926 l 671 899 q 684 850 681 875 q 690 799 688 825 q 662 672 688 740 q 572 529 636 603 q 651 481 618 511 q 705 411 683 450 q 736 328 726 372 q 746 240 746 285 q 718 74 746 150 q 642 -56 690 -1 q 530 -140 594 -110 q 390 -171 465 -171 q 303 -156 340 -171 q 238 -117 267 -140 l 226 -132 q 201 -151 219 -139 q 156 -164 182 -164 q 125 -158 140 -164 q 93 -137 110 -153 l 94 -137 m 290 15 q 301 -12 290 -4 q 328 -21 313 -21 q 400 7 369 -21 q 450 76 431 35 q 479 166 469 118 q 489 254 489 214 q 483 315 489 286 q 465 367 478 344 q 430 402 451 389 q 378 415 408 415 q 321 407 354 415 l 318 407 l 317 329 q 304 176 307 246 q 288 33 301 106 q 290 23 290 28 q 290 15 290 18 m 444 815 q 447 838 446 828 q 447 857 447 849 q 439 894 447 894 q 414 867 429 894 q 382 800 399 840 q 350 713 365 760 q 326 626 335 665 q 326 606 326 619 q 324 580 325 593 q 323 556 324 567 q 322 546 322 546 l 322 543 q 323 540 322 542 q 324 535 324 538 q 373 594 351 556 q 409 674 394 632 q 432 754 424 715 q 444 815 440 793 m 288 33 l 288 32 q 288 28 288 29 q 289 26 289 28 l 288 33 z "},"c":{"ha":688,"x_min":11,"x_max":690,"o":"m 381 -154 q 203 -109 274 -154 q 89 8 132 -64 q 28 169 46 79 q 11 346 11 258 q 24 490 11 413 q 62 645 36 568 q 126 794 88 722 q 216 920 164 865 q 334 1008 268 975 q 479 1040 400 1040 q 555 1031 517 1040 q 623 1003 593 1022 q 672 953 653 983 q 690 879 690 922 q 675 809 690 838 q 628 781 660 781 q 581 796 601 781 q 560 828 560 811 q 563 840 563 835 q 563 851 563 846 q 559 872 563 864 q 553 888 556 881 q 476 850 521 883 q 392 744 432 817 q 322 552 351 671 q 293 257 293 433 q 299 151 293 200 q 317 65 304 101 q 349 6 329 28 q 399 -15 369 -15 q 435 -8 414 -15 q 476 17 456 0 q 516 60 497 33 q 546 126 535 88 q 566 159 553 150 q 596 168 579 168 q 642 153 619 168 q 664 122 664 138 q 642 28 660 76 q 590 -60 624 -21 q 503 -126 556 -100 q 381 -154 451 -153 z "},"d":{"ha":764,"x_min":11,"x_max":749,"o":"m 351 -162 q 239 -100 279 -151 l 218 -132 q 192 -151 211 -139 q 147 -162 172 -162 q 116 -156 132 -162 q 83 -135 100 -150 l 85 -137 q 28 -25 44 -104 q 11 156 11 54 q 14 232 13 194 q 18 307 15 269 l 29 426 q 47 635 35 526 q 83 835 60 744 q 141 985 106 926 q 228 1044 176 1044 q 281 1013 264 1044 q 310 940 299 981 q 385 1015 340 988 q 497 1042 431 1042 q 592 1015 554 1042 q 655 950 631 988 q 694 872 679 913 q 721 806 710 832 q 749 579 749 718 q 740 415 749 500 q 711 247 731 329 q 662 90 692 164 q 591 -41 632 15 q 497 -131 550 -97 q 378 -164 443 -164 q 365 -164 371 -164 q 351 -162 358 -164 m 318 401 q 306 233 313 315 q 288 71 299 151 q 321 10 304 33 q 353 -14 338 -14 q 401 17 379 -14 q 440 101 422 49 q 469 219 457 153 q 490 357 482 286 q 503 498 499 428 q 507 625 507 568 q 503 731 507 682 q 493 817 500 781 q 475 876 486 854 q 450 897 464 897 q 412 873 431 897 q 376 814 393 849 q 347 741 360 779 q 328 674 333 703 q 326 540 328 608 q 318 401 325 472 z "},"e":{"ha":569,"x_min":6,"x_max":561,"o":"m 86 -124 q 50 -88 65 -110 q 25 -34 35 -67 q 10 44 15 -1 q 6 150 6 89 q 7 228 6 190 q 13 307 8 267 l 24 426 q 47 683 32 557 q 93 913 61 808 q 117 949 100 931 q 154 984 133 968 q 198 1011 175 1000 q 242 1026 221 1022 l 240 1024 q 340 1042 290 1039 q 435 1046 390 1046 q 481 1044 461 1046 q 514 1035 500 1042 l 513 1038 q 549 1010 538 1026 q 561 974 561 993 q 546 935 561 953 q 503 911 531 917 l 343 894 q 326 894 336 894 q 310 893 317 893 q 315 852 314 869 q 318 824 315 835 l 326 561 l 364 561 q 505 534 460 561 q 550 474 550 507 q 525 442 550 454 q 463 422 500 429 q 386 410 426 414 q 315 407 346 407 l 315 388 q 313 360 313 372 q 314 335 314 347 q 297 161 308 249 q 269 -1 286 74 l 269 -6 l 482 39 q 530 24 511 39 q 549 -19 549 10 q 541 -51 549 -35 q 514 -83 533 -68 q 469 -105 501 -93 q 396 -126 438 -117 q 307 -142 354 -136 q 218 -149 260 -149 q 144 -144 178 -149 q 88 -126 111 -139 l 86 -124 z "},"f":{"ha":551,"x_min":11,"x_max":594,"o":"m 113 985 q 169 1012 133 1001 q 249 1028 206 1022 q 338 1038 292 1035 q 424 1040 383 1040 q 553 1013 511 1040 q 594 958 594 986 q 574 931 594 943 q 508 911 554 918 l 511 911 q 420 902 465 906 q 339 896 375 899 l 318 894 q 323 817 321 863 q 325 706 325 772 q 325 638 325 674 q 324 563 325 603 q 460 533 418 560 q 501 469 501 506 q 484 442 501 453 q 440 424 467 431 q 380 413 413 417 q 317 407 347 410 q 317 394 317 400 q 318 382 318 389 l 314 333 q 313 321 313 326 q 313 310 313 315 l 313 288 q 303 188 308 238 q 292 96 297 139 q 284 19 288 53 q 281 -33 281 -15 q 265 -80 276 -58 q 235 -117 253 -101 q 195 -142 217 -133 q 150 -151 174 -151 q 90 -133 115 -151 q 47 -75 64 -115 q 20 32 29 -35 q 11 197 11 99 q 14 263 11 228 q 17 333 17 297 l 17 350 l 19 390 q 35 578 26 483 q 58 767 44 674 q 66 830 63 794 q 76 899 69 865 q 92 957 82 932 q 122 990 103 982 l 113 985 z "},"g":{"ha":782,"x_min":11,"x_max":774,"o":"m 390 -154 q 201 -103 275 -154 q 85 27 128 -53 q 27 204 43 107 q 11 394 11 301 q 24 535 11 461 q 61 681 36 610 q 124 818 86 753 q 211 933 161 883 q 325 1011 261 982 q 465 1040 389 1040 q 545 1030 507 1040 q 613 999 583 1019 q 661 947 643 978 q 679 872 679 915 q 673 823 679 843 q 657 790 667 803 q 636 772 647 778 q 615 767 625 767 q 570 788 589 767 q 551 826 551 808 q 553 842 553 835 q 554 856 554 849 q 540 888 554 878 q 463 846 507 882 q 381 739 419 810 q 317 560 343 668 q 290 300 290 451 q 297 181 290 238 q 317 81 304 124 q 351 12 331 38 q 401 -14 372 -14 q 471 31 442 -14 q 519 142 500 76 q 549 283 539 208 q 560 417 558 358 l 432 404 q 385 399 408 399 q 328 416 344 399 q 313 457 313 433 q 343 504 315 485 q 411 536 371 524 q 499 554 451 549 q 590 560 546 560 q 661 556 631 560 q 707 546 692 553 l 706 546 q 756 515 738 536 q 774 472 774 494 q 752 435 774 449 q 682 418 731 421 l 682 326 q 657 145 676 231 q 602 -6 638 60 q 514 -110 567 -71 q 390 -154 461 -150 z "},"h":{"ha":681,"x_min":6,"x_max":664,"o":"m 661 221 q 656 174 657 199 q 656 124 656 150 q 651 15 656 65 q 636 -74 647 -36 q 605 -133 625 -111 q 551 -154 585 -154 q 502 -133 524 -154 q 481 -79 481 -112 q 489 37 485 -21 q 497 153 493 94 q 505 275 501 213 q 511 407 508 338 l 422 407 q 372 407 394 407 q 331 410 350 407 l 311 410 q 311 397 311 403 q 313 383 311 392 q 306 263 310 325 q 297 144 303 200 q 285 42 292 88 q 274 -26 279 -3 q 264 -69 274 -47 q 238 -110 254 -92 q 199 -140 221 -128 q 151 -151 176 -151 q 93 -135 119 -151 q 47 -79 67 -119 q 17 31 28 -39 q 6 207 6 100 q 8 275 6 239 q 11 350 11 311 l 14 390 q 26 529 19 461 q 42 668 33 597 l 46 735 q 95 963 58 882 q 190 1043 132 1043 q 244 1024 222 1043 q 275 994 267 1006 q 293 960 285 981 q 307 903 301 939 q 316 813 313 868 q 319 675 319 758 q 319 618 319 647 q 318 556 319 589 q 367 559 342 558 q 418 560 392 560 q 518 551 476 560 q 524 757 522 658 q 529 957 525 856 q 551 1017 529 993 q 594 1040 574 1040 q 640 1022 622 1040 q 658 963 657 1003 l 661 854 q 662 735 661 801 q 663 599 663 669 q 663 457 663 528 q 664 324 664 386 l 661 221 z "},"i":{"ha":463,"x_min":-6,"x_max":533,"o":"m 18 -28 l 68 -22 q 58 101 58 22 q 71 310 58 182 q 74 330 74 319 q 74 350 74 340 l 79 390 q 112 635 94 508 q 154 876 129 763 q 124 874 133 876 q 107 871 115 871 q 67 886 79 871 q 56 921 56 901 q 72 969 56 946 q 113 993 88 992 q 251 1027 174 1014 q 404 1040 329 1040 q 446 1034 424 1040 q 488 1017 468 1028 q 520 992 507 1006 q 533 961 533 978 q 514 931 533 946 q 449 911 494 917 l 400 906 q 402 867 401 888 q 403 818 403 846 q 397 647 403 751 q 378 379 392 543 l 367 288 q 329 22 342 88 q 352 25 339 25 q 374 25 365 25 q 426 -7 426 25 q 411 -47 426 -25 q 372 -90 396 -69 q 333 -112 353 -104 q 294 -124 314 -119 q 253 -131 274 -128 q 215 -139 233 -135 l 218 -139 q 140 -149 185 -146 q 51 -153 94 -153 q 28 -151 39 -153 q 10 -142 18 -150 q -1 -120 3 -135 q -6 -79 -6 -106 q 0 -47 -6 -61 q 18 -28 6 -33 z "},"j":{"ha":600,"x_min":10,"x_max":631,"o":"m 156 989 q 238 1015 189 1004 q 333 1032 288 1025 q 355 1040 344 1038 q 376 1043 365 1043 q 387 1042 381 1043 q 404 1038 393 1040 q 443 1040 425 1039 q 478 1040 461 1040 q 594 1016 557 1040 q 631 960 631 992 q 614 931 631 944 q 560 911 597 918 l 483 904 q 488 858 486 882 q 489 808 489 833 q 488 773 489 790 q 488 738 486 756 l 490 651 q 490 487 490 576 q 483 307 490 397 q 460 133 476 217 q 409 -17 443 49 q 322 -121 375 -82 q 189 -160 268 -160 q 125 -149 157 -160 q 67 -116 93 -137 q 26 -62 42 -94 q 10 14 10 -29 q 31 92 10 69 q 72 115 53 115 q 118 94 97 115 q 139 56 139 74 q 133 14 133 33 q 139 -10 133 -4 q 165 34 157 -7 q 178 134 174 75 q 184 261 182 193 q 190 385 186 329 q 203 563 197 485 q 214 700 208 640 q 226 803 219 760 q 239 879 232 847 q 222 879 232 879 q 202 878 213 879 q 183 875 192 876 q 171 872 175 874 q 100 924 100 872 q 114 962 100 943 q 157 990 128 981 l 156 989 z "},"k":{"ha":663,"x_min":15,"x_max":679,"o":"m 99 963 q 138 1027 115 1011 q 193 1043 161 1043 q 219 1038 206 1043 q 246 1026 233 1033 q 268 1010 258 1018 q 283 994 278 1001 q 301 966 293 982 q 316 923 310 950 q 326 853 322 896 q 331 746 331 811 q 330 693 331 722 q 328 632 329 664 q 424 799 379 724 q 504 928 468 874 q 571 1011 540 982 q 626 1040 601 1040 q 664 1028 649 1040 q 679 993 679 1017 q 661 938 679 969 l 661 939 l 471 565 l 379 394 l 418 350 q 470 288 444 319 q 521 220 496 257 q 571 139 546 183 q 621 38 596 94 q 631 1 629 18 q 632 -28 633 -15 q 619 -81 631 -57 q 592 -122 608 -104 q 556 -149 575 -139 q 518 -158 536 -158 q 478 -136 499 -158 q 435 -77 457 -114 q 390 8 414 -40 q 340 110 367 57 l 324 140 l 326 139 l 307 178 q 294 49 300 107 q 283 -37 289 -10 q 237 -120 274 -85 q 151 -156 200 -156 q 45 -66 75 -156 q 15 196 15 24 q 18 261 15 226 q 21 333 21 296 l 21 350 l 24 390 q 35 529 29 461 q 49 668 42 597 q 53 701 53 688 q 54 735 54 715 q 67 849 60 796 q 99 961 75 903 l 99 963 z "},"l":{"ha":581,"x_min":8,"x_max":574,"o":"m 89 -124 q 26 -30 44 -96 q 8 156 8 36 q 10 231 8 193 q 15 307 13 269 l 26 426 q 35 557 31 488 q 49 695 40 626 q 72 827 58 764 q 106 938 86 890 q 154 1015 126 986 q 221 1044 182 1044 q 273 1017 254 1044 q 302 952 292 989 q 316 878 313 915 q 321 824 319 842 q 326 731 324 781 q 328 626 328 681 q 316 307 328 471 q 274 -1 304 143 q 317 5 292 -1 q 373 19 342 11 q 439 34 404 28 q 511 40 474 40 q 559 29 544 40 q 574 1 574 18 q 554 -46 574 -19 q 492 -95 535 -72 q 383 -133 450 -118 q 221 -149 315 -149 q 147 -144 181 -149 q 90 -126 114 -139 l 89 -124 z "},"m":{"ha":861,"x_min":18,"x_max":847,"o":"m 826 901 q 835 796 832 857 q 842 663 839 735 q 846 512 844 592 q 847 353 847 432 q 844 115 847 228 q 835 -76 840 1 q 809 -130 832 -110 q 765 -150 786 -150 q 723 -134 742 -150 q 701 -83 704 -118 q 696 28 699 -33 q 692 156 693 89 q 690 292 690 222 q 689 429 689 363 q 690 454 689 442 q 690 479 690 467 l 689 593 q 666 507 678 549 q 643 426 654 465 l 643 429 l 621 360 q 606 305 613 329 q 587 263 599 281 q 558 237 575 246 q 513 228 540 228 q 467 235 486 228 q 433 252 447 242 q 408 274 418 263 q 394 296 399 286 l 388 350 l 389 349 q 358 520 375 426 q 317 710 340 614 q 310 540 311 622 q 310 378 310 458 q 308 218 310 297 q 301 57 307 139 q 281 -23 294 15 q 247 -89 267 -61 q 201 -133 228 -117 q 143 -150 175 -150 q 132 -150 139 -150 q 118 -149 125 -150 l 115 -149 q 67 -117 85 -139 q 40 -70 49 -94 q 28 -24 31 -46 q 26 6 26 -3 q 18 146 18 53 q 24 363 18 254 q 43 570 31 471 q 74 754 56 669 q 118 901 93 839 q 174 999 143 964 q 243 1035 206 1035 q 297 1024 269 1035 q 347 995 324 1013 q 388 956 369 978 q 415 911 406 933 q 445 819 432 869 q 472 707 458 768 q 509 838 490 778 q 551 960 528 897 q 601 1024 569 1004 q 671 1044 633 1044 q 723 1033 697 1044 q 769 1003 749 1022 q 806 958 790 985 q 826 901 821 932 z "},"n":{"ha":689,"x_min":6,"x_max":713,"o":"m 118 961 q 179 1025 142 1010 q 247 1040 217 1040 q 340 994 303 1040 q 407 869 378 949 q 461 685 436 790 q 518 460 486 579 q 544 738 531 607 q 575 963 558 869 q 607 1024 586 1007 q 653 1040 628 1040 q 699 1025 685 1040 q 713 965 713 1010 q 697 838 704 900 q 683 701 690 775 q 669 533 676 626 q 651 313 661 439 q 651 285 651 310 q 649 224 650 261 q 647 143 647 188 q 644 57 646 99 q 642 -19 643 15 q 642 -72 642 -54 q 620 -124 639 -106 q 567 -143 601 -143 q 514 -131 538 -143 q 483 -82 490 -118 q 444 99 465 10 q 406 272 422 188 l 394 329 q 361 489 379 408 q 319 661 343 569 l 306 304 q 302 198 306 250 q 293 101 299 146 q 283 22 288 57 q 274 -32 278 -12 q 227 -115 264 -81 q 142 -150 190 -150 q 88 -134 113 -150 q 44 -81 63 -118 q 16 20 26 -43 q 6 178 6 83 q 10 357 6 251 q 26 574 14 463 q 60 789 39 686 q 118 961 82 892 z "},"o":{"ha":701,"x_min":11,"x_max":697,"o":"m 389 -149 q 216 -107 288 -149 q 99 5 144 -65 q 32 167 53 75 q 11 360 11 258 q 11 375 11 367 q 13 390 11 383 q 60 638 21 521 q 158 845 99 756 q 291 988 217 935 q 443 1040 365 1040 q 558 1006 510 1040 q 638 911 607 972 q 683 765 668 850 q 697 576 697 679 q 697 523 697 550 q 694 468 697 496 l 693 396 q 672 213 688 308 q 624 36 657 117 q 533 -97 590 -44 q 389 -149 476 -149 m 571 463 q 575 571 575 518 q 568 699 575 642 q 549 799 561 757 q 519 863 536 840 q 485 885 503 885 q 428 858 454 885 q 380 788 401 832 q 342 683 358 743 q 314 557 325 624 q 297 420 303 490 q 292 285 292 350 q 297 169 292 224 q 314 76 303 115 q 342 13 325 36 q 383 -10 360 -10 q 442 13 417 -10 q 487 74 468 36 q 519 160 506 113 q 542 258 533 208 q 558 356 551 308 q 568 440 564 403 q 569 452 568 447 q 571 463 571 457 z "},"p":{"ha":761,"x_min":13,"x_max":764,"o":"m 294 94 q 283 3 292 47 q 262 -76 275 -42 q 229 -130 249 -110 q 183 -150 210 -150 q 102 -126 135 -150 q 50 -61 69 -103 q 22 36 31 -19 q 13 156 13 92 q 17 339 15 243 q 25 518 18 435 q 45 702 32 617 q 74 867 58 788 q 113 998 92 956 q 183 1040 135 1040 q 230 1028 206 1040 q 263 1010 254 1017 l 278 983 q 289 967 283 976 q 297 943 294 957 q 377 1018 331 992 q 494 1044 424 1044 q 588 1022 540 1044 q 674 952 635 1000 q 739 828 714 904 q 764 647 764 753 q 735 452 764 536 q 655 313 706 368 q 535 229 604 257 q 385 201 465 201 q 350 202 374 201 q 300 207 326 203 q 299 152 300 182 q 294 94 297 122 m 483 846 q 446 888 471 888 q 418 879 432 888 q 390 844 404 871 q 360 767 375 817 q 329 633 344 717 l 313 465 q 309 421 311 442 q 307 378 307 400 l 303 329 q 317 328 308 328 q 401 360 367 328 q 459 444 436 393 q 492 560 482 496 q 503 688 503 625 q 497 777 503 735 q 481 849 492 819 l 483 846 z "},"q":{"ha":718,"x_min":10,"x_max":714,"o":"m 190 -150 q 184 -127 186 -149 q 182 -83 182 -106 q 49 97 88 -17 q 10 347 10 210 q 48 609 10 483 q 147 831 86 735 q 285 983 208 926 q 440 1040 363 1040 q 561 1006 510 1040 q 647 908 613 971 q 697 756 681 844 q 714 563 714 668 q 710 444 714 514 q 696 296 707 374 q 665 140 685 218 q 611 0 644 63 q 664 -35 664 -4 q 644 -79 664 -57 q 582 -119 625 -101 q 469 -149 539 -137 q 300 -160 400 -160 q 190 -150 235 -160 m 588 465 q 590 509 589 488 q 590 551 590 531 q 581 688 590 626 q 557 792 572 749 q 523 860 542 836 q 483 885 504 885 q 401 828 438 885 q 340 683 365 771 q 303 488 315 594 q 290 282 290 381 q 296 168 290 221 q 313 76 301 115 q 341 13 324 36 q 383 -10 358 -10 q 447 16 419 -10 q 497 83 475 42 q 533 177 518 125 q 560 282 549 229 q 577 383 571 335 q 588 465 583 432 z "},"r":{"ha":739,"x_min":4,"x_max":749,"o":"m 294 167 q 279 70 290 124 q 252 -31 268 17 q 216 -112 236 -79 q 172 -149 196 -146 l 174 -149 q 157 -151 165 -150 q 142 -151 149 -151 q 65 -126 92 -151 q 24 -58 38 -100 q 7 40 10 -15 q 4 156 4 96 q 10 353 6 256 q 22 542 15 451 q 39 714 29 633 q 63 861 49 794 q 83 942 74 908 q 103 998 92 976 q 130 1030 114 1019 q 174 1040 146 1040 q 203 1035 186 1040 q 239 1019 221 1031 q 273 989 257 1008 q 299 940 289 969 l 326 974 q 490 1046 386 1046 q 581 1024 535 1046 q 664 960 626 1003 q 725 855 701 918 q 749 707 749 792 q 720 524 749 606 q 628 383 692 443 l 629 383 q 536 315 586 340 q 424 288 486 289 q 521 145 474 206 q 605 40 568 85 q 665 -37 642 -6 q 688 -94 688 -69 q 668 -136 688 -121 q 621 -151 649 -151 q 555 -126 590 -151 q 487 -67 519 -101 q 426 3 454 -33 q 382 61 399 39 l 360 88 q 335 116 347 101 q 321 144 324 131 l 294 188 l 294 167 m 343 729 q 324 599 332 651 q 312 512 317 547 q 304 453 307 476 q 300 411 301 429 q 388 440 351 411 q 447 511 424 468 q 483 603 471 554 q 500 694 496 653 q 499 762 500 728 q 493 824 497 796 q 480 870 489 853 q 456 888 471 888 q 367 817 414 888 l 371 822 q 356 781 363 804 q 343 729 350 758 z "},"s":{"ha":644,"x_min":13,"x_max":629,"o":"m 43 810 q 142 973 61 907 q 361 1046 222 1039 q 422 1040 385 1046 q 496 1017 460 1035 q 558 969 532 1000 q 585 886 585 938 q 578 839 585 864 q 560 793 572 814 q 527 758 547 772 q 479 744 507 744 q 434 756 446 744 q 422 785 422 768 q 426 814 422 799 q 435 843 431 829 l 439 849 q 426 896 436 882 q 401 910 417 910 q 366 900 385 910 q 332 874 347 890 q 305 837 317 858 q 290 790 293 815 q 320 708 290 742 q 388 640 350 675 q 451 578 414 615 q 539 479 488 542 q 608 355 588 421 q 629 225 629 289 q 603 77 629 147 q 527 -47 576 7 q 409 -133 478 -101 q 257 -165 340 -165 q 73 -108 133 -165 q 13 49 13 -51 q 25 103 15 74 q 50 157 35 132 q 86 199 65 182 q 131 215 107 215 q 166 201 151 215 q 181 158 181 186 q 173 115 181 139 q 165 60 165 90 q 176 16 165 32 q 201 0 186 0 q 256 25 232 0 q 296 83 279 50 q 321 149 313 117 q 329 194 329 181 q 286 342 329 264 q 160 494 243 419 q 68 614 99 549 q 38 750 38 679 q 39 780 38 765 q 43 810 40 794 z "},"t":{"ha":557,"x_min":6,"x_max":549,"o":"m 71 990 q 140 1010 100 1000 q 224 1026 181 1019 q 312 1036 268 1032 q 393 1040 356 1040 q 509 1017 469 1040 q 549 960 549 993 q 536 935 549 944 q 501 919 524 925 q 449 908 479 913 q 383 900 418 904 q 393 814 390 867 q 396 683 396 761 q 394 550 394 625 q 389 382 394 475 l 386 333 q 383 310 383 322 q 383 288 383 299 q 375 186 379 236 q 367 92 371 136 q 358 15 363 49 q 350 -37 354 -19 q 333 -83 346 -61 q 303 -120 321 -104 q 263 -146 285 -136 q 221 -156 242 -156 q 116 -72 149 -156 q 83 197 83 11 q 85 260 83 226 q 88 329 88 293 l 92 390 q 110 561 97 475 q 122 735 122 647 q 130 809 126 772 q 142 878 133 846 l 138 878 q 96 874 114 878 q 71 871 78 871 q 20 886 35 871 q 6 921 6 901 q 24 966 6 944 q 71 990 42 988 z "},"u":{"ha":676,"x_min":7,"x_max":663,"o":"m 261 -160 q 153 -115 200 -151 q 74 -19 106 -79 q 24 125 42 42 q 7 311 7 208 l 11 417 q 35 636 19 525 q 72 837 50 747 q 124 983 94 926 q 188 1040 153 1040 q 261 1013 235 1040 q 300 942 288 986 q 315 840 313 897 q 318 722 318 782 q 316 628 318 675 q 312 540 314 582 q 308 461 310 497 q 306 399 306 425 q 306 386 306 392 q 307 374 307 381 l 306 294 q 303 224 304 258 q 303 157 303 189 q 308 35 303 82 q 329 -11 314 -11 q 401 37 371 -11 q 453 158 432 85 q 487 317 474 231 q 508 483 500 404 q 521 619 517 561 q 528 694 525 678 l 528 718 q 523 803 528 763 q 515 876 518 844 l 517 876 q 510 913 514 896 q 507 939 507 931 q 531 1000 510 985 q 578 1015 553 1015 q 626 982 608 1015 q 651 900 643 949 q 660 794 658 851 q 663 690 663 738 q 660 681 660 686 q 661 672 661 675 q 650 478 658 575 q 626 290 642 381 q 583 121 610 200 q 516 -18 556 42 q 422 -116 476 -78 q 294 -161 367 -154 l 261 -160 z "},"v":{"ha":674,"x_min":10,"x_max":661,"o":"m 296 -161 q 253 -158 272 -161 q 216 -144 235 -154 q 178 -113 197 -133 q 139 -60 160 -93 q 76 94 101 4 q 37 285 51 185 q 16 485 22 385 q 10 672 10 586 q 13 791 10 740 q 22 882 15 842 l 22 889 q 28 929 24 904 q 47 978 33 954 q 83 1020 60 1003 q 142 1038 106 1038 q 199 1022 172 1038 q 246 980 225 1007 q 280 917 267 953 q 297 840 293 881 l 303 718 q 306 620 306 669 q 313 549 307 571 l 313 483 l 313 481 q 312 474 313 478 q 311 468 311 471 l 331 167 q 403 433 371 301 q 463 689 435 564 l 483 761 q 499 842 490 796 q 521 929 507 889 q 554 998 535 969 q 603 1026 574 1026 q 646 1002 631 1026 q 661 950 661 978 l 661 944 q 635 803 650 883 q 599 632 619 722 q 557 448 579 542 q 511 267 535 354 q 464 107 488 181 q 418 -15 440 33 l 418 -11 l 406 -50 q 387 -90 396 -71 q 366 -125 378 -110 q 338 -150 354 -140 q 297 -161 322 -160 l 296 -161 m 297 71 l 297 72 q 296 63 296 68 l 296 61 q 297 65 296 63 q 297 71 297 68 z "},"w":{"ha":889,"x_min":6,"x_max":886,"o":"m 614 -161 q 580 -160 597 -161 q 546 -151 563 -158 q 513 -126 529 -143 q 478 -78 496 -110 q 424 21 444 -26 q 390 124 403 68 l 375 83 q 344 -16 358 29 q 311 -93 331 -61 l 301 -104 q 281 -132 290 -121 q 260 -149 272 -143 q 233 -158 249 -156 q 194 -161 218 -161 q 121 -119 156 -161 q 60 -10 86 -76 q 20 138 35 57 q 6 297 6 219 q 11 439 6 368 q 26 574 17 510 q 47 697 36 639 q 69 800 58 754 q 81 853 69 814 q 113 935 93 893 q 159 1008 133 976 q 213 1040 185 1040 q 274 1022 249 1040 q 314 974 299 1004 q 335 902 329 943 q 342 814 342 861 q 341 794 342 804 q 339 778 340 785 l 324 610 q 319 566 319 585 q 318 538 318 547 l 300 301 l 347 449 q 357 511 349 481 q 383 566 365 542 q 428 606 400 590 q 500 621 457 621 q 562 608 539 621 q 597 572 585 594 q 616 517 610 549 q 628 450 622 486 l 628 424 l 631 426 l 639 361 l 636 363 l 647 294 q 672 437 663 367 q 692 578 682 507 l 717 729 q 724 776 722 753 q 731 824 726 800 l 753 963 q 779 1021 757 1003 q 824 1039 801 1039 q 868 1021 850 1039 q 886 971 886 1003 l 886 963 q 871 820 882 904 q 845 642 860 736 q 815 451 831 549 q 783 268 799 353 l 733 -10 q 728 -61 733 -35 q 711 -110 722 -87 q 681 -147 700 -132 q 635 -161 661 -161 l 614 -161 z "},"x":{"ha":728,"x_min":7,"x_max":714,"o":"m 233 1000 q 260 997 244 1000 q 293 982 276 993 q 319 950 303 975 q 355 892 336 925 q 392 821 374 858 q 428 751 411 783 q 497 863 463 811 q 562 954 531 915 q 621 1016 593 993 q 672 1039 649 1039 q 697 1024 681 1035 q 714 988 714 1013 q 701 953 714 979 q 667 889 688 926 q 620 807 646 851 q 569 722 594 763 q 524 646 544 681 q 493 593 504 611 l 565 372 l 679 -4 q 683 -24 682 -14 q 685 -44 685 -33 q 678 -89 685 -67 q 656 -128 671 -111 q 619 -157 642 -146 q 568 -168 597 -168 q 503 -140 536 -168 q 435 -64 469 -112 q 364 51 400 -15 q 290 193 328 117 l 238 99 q 187 10 217 61 q 117 -117 157 -42 q 89 -137 110 -129 q 49 -146 68 -146 q 19 -137 32 -146 q 7 -108 7 -129 l 7 -97 q 11 -71 7 -90 q 36 1 15 -51 q 99 147 57 53 q 218 396 142 240 q 217 401 217 399 q 185 508 203 444 q 153 639 168 571 q 128 772 139 707 q 118 881 118 836 q 129 928 118 907 q 158 966 140 950 q 195 991 175 982 q 233 1000 215 1000 z "},"y":{"ha":639,"x_min":10,"x_max":631,"o":"m 11 939 q 10 956 10 944 q 31 1006 10 988 q 78 1024 51 1024 q 122 1008 101 1024 q 154 961 143 993 l 171 910 q 202 805 188 853 q 230 712 217 757 q 255 624 243 667 q 278 538 267 582 q 325 708 300 619 q 381 872 350 797 q 450 994 413 946 q 535 1042 488 1042 q 610 1002 590 1042 q 631 893 631 963 q 626 820 631 863 q 614 738 621 778 q 600 669 607 699 q 589 633 593 639 l 583 601 q 582 590 582 599 q 554 472 569 529 q 521 363 539 415 q 519 353 521 357 q 517 346 517 350 l 488 250 q 443 100 463 164 q 404 -10 424 36 q 365 -87 385 -56 q 319 -137 344 -118 l 321 -137 q 277 -164 299 -157 q 239 -171 256 -171 q 197 -160 217 -171 q 163 -133 178 -150 q 140 -93 149 -115 q 132 -46 132 -71 q 137 -17 132 -42 q 150 47 142 7 q 171 139 158 88 q 200 249 183 190 l 149 438 q 77 682 114 556 q 11 938 40 808 l 11 939 z "},"z":{"ha":633,"x_min":8,"x_max":625,"o":"m 171 422 q 263 660 217 544 q 368 885 310 776 q 372 892 371 890 l 374 893 l 374 896 l 365 897 q 359 896 363 897 q 353 894 356 894 q 271 890 319 892 q 164 885 222 888 q 101 896 121 882 q 82 930 82 910 q 100 969 82 950 q 150 997 118 989 q 242 1024 190 1015 q 306 1032 271 1028 q 376 1038 340 1036 q 445 1039 411 1039 q 508 1035 479 1039 q 540 1035 522 1038 q 575 1025 557 1032 q 618 976 611 1014 q 619 889 625 939 q 606 826 614 858 q 589 763 599 794 q 570 700 579 731 q 553 643 561 669 l 542 619 l 533 581 q 487 461 511 521 q 438 343 463 401 l 397 246 q 330 94 360 156 q 276 -11 300 32 l 286 -11 q 369 -8 319 -11 q 479 -6 418 -6 q 541 -22 522 -6 q 559 -58 560 -37 q 540 -97 558 -78 q 489 -124 521 -117 q 437 -137 472 -132 q 357 -147 401 -143 q 263 -151 313 -150 q 171 -153 214 -153 l 132 -153 q 117 -154 124 -156 q 103 -153 111 -153 q 57 -137 76 -151 q 26 -102 38 -124 q 11 -53 14 -81 q 15 3 8 -26 l 49 94 q 99 226 68 147 q 171 422 129 304 z "},"|":{"ha":238,"x_min":13,"x_max":229,"o":"m 28 35 q 21 240 24 136 q 17 442 18 343 q 15 631 15 540 q 15 799 15 721 q 17 993 13 914 q 21 1093 21 1072 q 38 1137 25 1117 q 67 1172 50 1157 q 103 1194 83 1186 q 142 1201 122 1201 q 203 1181 178 1201 q 229 1117 229 1160 q 214 690 217 878 q 210 339 211 501 q 209 188 210 263 q 206 40 208 114 q 202 -76 204 -31 q 197 -151 200 -122 q 192 -197 194 -181 q 186 -224 189 -212 q 156 -257 176 -247 q 111 -260 135 -267 q 67 -233 88 -254 q 38 -171 46 -211 q 39 -149 40 -158 q 35 -124 38 -139 q 31 -56 32 -96 q 28 35 29 -17 z "},"~":{"ha":401,"x_min":-3,"x_max":392,"o":"m 111 794 q 94 791 97 794 q 92 785 92 788 l 93 779 q 50 740 93 740 q 8 756 19 740 q 0 799 -3 771 q 8 835 0 813 q 30 881 15 858 q 66 919 44 903 q 115 935 88 935 q 136 928 124 935 q 163 914 149 922 q 194 897 178 906 q 228 882 211 888 l 226 882 l 292 853 q 299 869 296 858 q 305 890 301 879 q 314 908 308 900 q 328 915 319 915 q 376 890 360 915 q 389 838 392 864 q 384 806 389 822 q 369 775 379 789 q 344 753 360 761 q 306 744 328 744 q 247 753 278 744 q 189 772 217 761 q 146 787 168 779 q 111 794 124 794 z "},"":{"ha":785,"x_min":31,"x_max":778,"o":"m 35 364 q 31 384 32 367 q 32 422 31 401 q 37 460 33 443 q 46 481 40 478 q 94 490 74 486 q 95 492 94 492 q 96 496 96 493 q 69 497 82 497 q 50 499 56 497 l 54 499 q 47 519 49 500 q 47 559 46 538 q 53 599 49 581 q 61 618 57 617 l 56 618 q 85 623 69 621 q 122 626 101 625 q 192 786 149 710 q 297 922 236 863 q 434 1016 357 981 q 606 1051 511 1051 q 665 1044 635 1051 q 721 1025 696 1038 q 762 995 746 1013 q 776 957 778 978 q 760 924 774 933 q 733 914 747 914 q 706 919 721 914 l 701 919 q 694 922 699 919 q 688 925 689 924 q 568 885 619 914 q 479 817 517 857 q 417 728 442 776 q 379 632 393 681 q 415 632 403 632 q 446 631 426 632 q 492 610 476 629 q 507 566 507 590 q 492 520 507 542 q 449 492 478 499 q 483 464 472 485 q 490 420 493 443 q 469 378 486 397 q 421 354 451 358 l 424 354 q 398 351 413 351 q 365 351 383 351 q 424 208 381 251 q 524 164 468 164 q 649 218 582 164 q 680 211 668 218 q 699 195 692 204 q 710 177 707 186 q 717 163 714 168 q 697 122 710 142 q 660 88 683 103 q 599 51 624 65 q 551 29 575 38 q 501 17 528 21 q 435 14 474 14 q 299 44 357 14 q 199 124 240 75 q 131 235 157 174 q 96 358 106 296 l 35 364 m 46 482 l 44 481 l 46 481 l 46 482 z "},"":{"ha":193,"x_min":-26,"x_max":186,"o":"m 186 75 q 184 35 183 58 q 183 -12 185 13 q 172 -58 181 -36 q 144 -96 164 -81 q 101 -109 131 -106 q 42 -110 71 -112 q -7 -97 13 -107 q -18 -69 -26 -86 q -1 -33 -7 -50 q 14 -1 6 -17 l 63 104 q 91 119 71 115 q 132 118 111 122 q 169 103 153 114 q 186 75 186 92 z "},"":{"ha":465,"x_min":31,"x_max":439,"o":"m 243 75 q 241 35 240 58 q 240 -12 242 13 q 229 -58 238 -36 q 201 -96 221 -81 q 158 -109 188 -106 q 99 -110 128 -112 q 50 -97 69 -107 q 39 -69 31 -86 q 56 -33 50 -50 q 71 -1 63 -17 l 119 104 q 148 119 128 115 q 189 118 168 122 q 226 103 210 114 q 243 75 243 92 m 439 75 q 437 35 436 58 q 435 -12 438 13 q 425 -58 433 -36 q 397 -96 417 -81 q 353 -109 383 -106 q 294 -110 324 -112 q 246 -97 265 -107 q 235 -69 226 -86 q 252 -33 246 -50 q 267 -1 258 -17 l 315 104 q 344 119 324 115 q 385 118 364 122 q 422 103 406 114 q 439 75 439 92 z "},"":{"ha":425,"x_min":19,"x_max":411,"o":"m 82 560 q 35 578 51 560 q 19 619 19 597 q 36 660 19 642 q 88 679 53 679 l 83 679 l 126 685 q 137 833 132 764 q 146 955 142 901 q 153 1044 150 1008 q 161 1093 157 1079 q 179 1137 165 1117 q 211 1172 193 1157 q 249 1194 229 1186 q 289 1201 269 1201 q 349 1181 324 1201 q 371 1117 374 1160 q 344 892 356 996 q 326 693 333 789 q 349 690 332 690 q 396 670 381 690 q 410 625 411 650 q 390 578 408 600 q 339 551 372 556 q 326 549 332 550 q 313 549 319 549 l 276 40 q 265 -76 269 -31 q 256 -151 260 -122 q 247 -197 251 -181 q 238 -224 242 -212 q 205 -257 226 -247 q 161 -260 183 -267 q 119 -233 139 -254 q 94 -171 100 -211 q 97 -149 97 -158 q 94 -124 96 -139 q 94 -56 94 -96 q 94 35 93 -17 q 106 301 101 172 q 118 556 111 429 l 83 560 l 82 560 z "},"":{"ha":599,"x_min":15,"x_max":579,"o":"m 76 161 q 39 180 56 163 q 19 219 22 197 q 29 259 15 240 q 83 282 43 278 q 134 288 108 285 q 197 293 160 290 q 201 404 199 353 q 207 503 204 456 q 213 597 210 551 q 221 693 217 643 l 125 700 q 69 722 85 704 q 56 760 53 740 q 78 799 58 781 q 132 821 99 817 l 128 821 q 160 825 143 824 q 200 826 178 826 l 228 828 q 241 999 236 932 q 253 1089 246 1067 q 270 1136 257 1115 q 301 1172 283 1157 q 340 1194 319 1186 q 382 1201 361 1201 q 442 1181 417 1201 q 464 1117 467 1160 q 451 1037 457 1072 q 442 969 446 1001 q 435 903 438 936 q 428 833 432 871 q 474 833 451 833 q 517 832 496 833 q 563 810 547 831 q 578 764 579 789 q 560 717 578 739 q 510 690 543 694 l 514 690 q 477 688 497 689 q 433 688 457 688 l 414 688 l 389 344 l 386 294 q 430 294 410 294 q 469 293 450 294 q 516 271 500 292 q 531 225 532 250 q 511 178 529 200 q 458 151 493 156 l 461 151 q 432 149 449 149 q 392 149 415 149 l 375 149 l 367 40 q 357 -76 361 -31 q 349 -151 353 -122 q 340 -197 344 -181 q 331 -224 335 -212 q 298 -257 319 -247 q 253 -260 276 -267 q 212 -233 231 -254 q 186 -171 193 -211 q 189 -149 189 -158 q 188 -124 189 -139 q 187 -56 188 -96 q 188 35 186 -17 l 192 151 q 119 157 150 154 q 76 161 88 160 z "},"":{"ha":560,"x_min":49,"x_max":517,"o":"m 382 1121 q 362 1133 371 1128 q 343 1144 353 1138 q 322 1158 333 1150 q 294 1179 311 1165 q 223 1142 253 1156 q 161 1115 193 1128 l 122 1097 q 85 1097 101 1089 q 59 1122 68 1106 q 49 1157 50 1138 q 60 1190 49 1176 q 95 1215 74 1199 q 142 1250 117 1231 q 195 1290 168 1269 q 246 1329 222 1311 q 292 1358 265 1351 q 340 1349 318 1364 l 357 1329 q 395 1289 375 1310 q 435 1249 415 1268 q 474 1213 456 1229 q 510 1186 493 1196 q 511 1153 517 1174 q 492 1115 506 1132 q 459 1091 478 1099 q 421 1099 440 1083 l 422 1099 l 382 1121 z "},"":{"ha":861,"x_min":10,"x_max":843,"o":"m 178 626 q 103 641 135 626 q 50 678 71 656 q 19 731 29 701 q 11 793 10 761 q 26 852 14 824 q 62 903 39 881 q 118 939 85 925 q 196 953 151 953 q 297 913 261 950 q 339 826 332 875 q 378 917 364 885 q 399 965 392 949 q 409 987 406 981 q 417 1000 413 993 q 468 1053 435 1036 q 533 1071 501 1071 q 577 1063 557 1071 q 609 1040 597 1054 q 623 1003 621 1025 q 613 956 625 982 q 518 752 557 839 q 448 593 479 665 q 390 453 417 521 q 329 307 363 386 l 326 297 q 372 317 347 310 q 429 325 397 325 q 503 306 474 324 q 550 263 532 289 q 609 308 574 290 q 696 325 644 325 q 763 309 735 324 q 810 272 792 294 q 835 220 828 249 q 840 163 843 192 q 828 103 839 132 q 796 51 817 74 q 745 15 775 29 q 678 1 715 1 q 595 19 629 1 q 539 64 561 36 q 487 19 519 36 q 411 1 454 1 q 300 35 340 1 q 249 118 260 69 l 222 57 q 221 71 229 75 q 199 51 213 67 q 156 33 182 36 q 109 42 131 31 q 76 78 88 53 q 76 143 65 103 l 89 176 q 113 248 100 204 q 149 346 126 292 q 178 422 167 393 q 197 472 189 451 q 210 508 204 492 q 223 542 215 524 q 241 585 231 560 q 268 653 251 611 q 178 626 228 626 m 439 176 q 440 188 439 185 q 425 160 432 176 q 418 129 418 143 q 415 125 418 125 q 428 135 422 125 q 439 176 435 146 m 706 176 q 707 188 706 185 q 692 160 700 176 q 685 129 685 143 q 682 125 685 125 q 695 135 689 125 q 706 176 701 146 m 201 804 q 203 808 201 807 q 206 813 204 810 q 191 785 197 801 q 185 757 185 769 q 179 753 181 753 q 193 764 186 753 q 201 804 200 775 z "},"":{"ha":1200,"x_min":15,"x_max":1182,"o":"m 675 -128 q 637 -94 653 -114 q 610 -39 621 -74 q 526 -123 575 -92 q 408 -154 476 -154 q 237 -115 310 -154 q 115 -10 164 -76 q 42 143 67 56 q 17 329 18 231 q 16 367 15 349 q 17 404 17 385 q 67 660 26 539 q 169 875 108 782 q 307 1023 231 968 q 464 1078 383 1078 q 590 1038 539 1078 q 674 928 642 999 l 678 946 q 703 985 686 965 q 743 1020 721 1004 q 790 1047 765 1036 q 838 1063 814 1058 l 833 1061 q 938 1080 886 1076 q 1036 1083 990 1083 q 1083 1081 1064 1083 q 1117 1072 1103 1079 l 1115 1074 q 1163 1042 1143 1063 q 1182 999 1182 1021 q 1164 965 1182 982 q 1103 944 1146 949 l 942 928 q 925 925 935 926 q 908 924 915 924 l 915 854 q 921 727 922 792 q 921 582 919 663 l 961 582 q 1107 553 1060 582 q 1154 490 1154 524 q 1128 456 1154 469 q 1065 435 1103 443 q 985 425 1028 428 q 911 421 943 422 l 910 346 q 892 167 904 258 q 865 -1 881 76 l 865 -6 l 899 1 q 998 26 943 13 q 1106 40 1053 40 q 1157 29 1142 40 q 1172 0 1172 18 q 1151 -51 1172 -24 q 1087 -101 1131 -78 q 975 -139 1043 -124 q 811 -154 907 -154 q 735 -149 769 -154 q 676 -129 700 -144 l 675 -128 m 599 479 q 599 657 604 576 q 582 795 594 738 q 550 885 569 853 q 508 917 531 917 q 433 872 467 917 q 375 756 400 828 q 333 592 350 683 q 310 410 317 501 q 306 252 304 328 q 319 118 308 176 q 349 24 329 60 q 400 -11 369 -11 q 461 13 435 -11 q 508 76 488 38 q 542 165 528 115 q 566 267 556 215 q 583 369 576 319 q 593 456 589 418 q 599 479 593 469 z "},"":{"ha":224,"x_min":18,"x_max":190,"o":"m 150 803 q 124 784 143 788 q 83 785 104 781 q 45 800 63 789 q 25 824 28 811 l 21 940 q 20 976 19 958 q 18 1015 21 993 q 40 1036 18 1035 q 89 1029 61 1038 q 143 1006 117 1021 q 178 976 169 990 q 189 931 190 954 q 181 884 188 907 q 164 840 174 861 q 150 803 154 819 z "},"":{"ha":243,"x_min":38,"x_max":210,"o":"m 169 1025 q 183 988 174 1008 q 200 944 193 967 q 208 897 207 921 q 197 851 210 874 q 163 822 189 836 q 108 799 136 807 q 59 792 81 790 q 38 813 38 793 q 40 852 40 835 q 40 888 39 869 l 44 1004 q 65 1028 47 1017 q 103 1043 82 1039 q 143 1044 124 1047 q 169 1025 163 1040 z "},"":{"ha":414,"x_min":18,"x_max":379,"o":"m 150 803 q 124 784 143 788 q 83 785 104 781 q 45 800 63 789 q 25 824 28 811 l 21 940 q 20 976 19 958 q 18 1015 21 993 q 40 1036 18 1035 q 89 1029 61 1038 q 143 1006 117 1021 q 178 976 169 990 q 189 931 190 954 q 181 884 188 907 q 164 840 174 861 q 150 803 154 819 m 339 796 q 313 777 332 781 q 272 778 293 774 q 234 793 251 782 q 214 817 217 804 l 210 933 q 209 969 208 951 q 207 1008 210 986 q 228 1029 207 1028 q 278 1022 250 1031 q 332 999 306 1014 q 367 969 358 983 q 378 924 379 947 q 369 877 376 900 q 353 833 363 854 q 339 796 343 813 z "},"":{"ha":388,"x_min":19,"x_max":376,"o":"m 151 1025 q 165 988 156 1008 q 182 944 175 967 q 190 897 189 921 q 179 851 192 874 q 144 822 171 836 q 90 799 118 807 q 41 792 63 790 q 19 813 19 793 q 22 852 22 835 q 22 888 21 869 l 26 1004 q 47 1028 29 1017 q 85 1043 64 1039 q 125 1044 106 1047 q 151 1025 144 1040 m 336 1025 q 350 988 340 1008 q 367 944 360 967 q 375 897 374 921 q 364 851 376 874 q 329 822 356 836 q 275 799 303 807 q 226 792 247 790 q 204 813 204 793 q 206 852 207 835 q 207 888 206 869 l 211 1004 q 231 1028 214 1017 q 269 1043 249 1039 q 310 1044 290 1047 q 336 1025 329 1040 z "},"":{"ha":478,"x_min":25,"x_max":474,"o":"m 83 417 q 40 435 54 417 q 26 476 25 454 q 43 516 26 497 q 94 535 60 535 l 93 535 q 306 551 189 551 q 358 551 331 551 q 413 549 385 550 q 458 526 443 547 q 472 481 474 506 q 452 433 469 456 q 401 407 435 411 q 368 405 386 406 q 326 404 350 404 q 254 406 292 404 q 183 409 217 407 q 122 413 149 411 q 83 417 96 415 z "},"":{"ha":657,"x_min":15,"x_max":644,"o":"m 79 417 q 32 434 49 417 q 15 474 15 451 q 33 514 15 496 q 90 535 50 532 l 89 535 q 156 542 114 539 q 246 547 197 544 q 348 549 294 549 q 450 550 401 550 q 524 550 489 550 q 583 549 558 550 q 629 526 614 547 q 643 481 644 506 q 624 433 642 456 q 572 407 606 411 l 574 407 q 526 403 558 404 q 450 401 494 401 q 335 403 396 401 q 219 407 274 404 q 125 412 165 410 q 75 417 85 414 l 79 417 z "},"":{"ha":360,"x_min":14,"x_max":342,"o":"m 172 1118 q 149 1128 157 1125 q 126 1136 142 1132 q 114 1133 115 1135 q 113 1128 113 1131 l 115 1124 q 103 1100 115 1108 q 71 1092 90 1092 q 21 1139 14 1092 q 28 1169 21 1150 q 51 1206 36 1188 q 86 1237 65 1224 q 135 1250 107 1250 q 178 1243 158 1250 q 218 1228 199 1236 l 238 1217 q 253 1229 244 1224 q 276 1235 261 1235 q 325 1213 308 1235 q 339 1171 342 1192 q 319 1120 339 1146 q 254 1094 299 1094 q 201 1104 222 1094 q 171 1119 179 1114 l 172 1118 z "},"":{"ha":979,"x_min":40,"x_max":957,"o":"m 107 997 q 168 1001 135 997 q 236 1011 201 1006 q 306 1021 271 1017 q 369 1025 340 1025 q 440 1019 422 1025 q 472 999 458 1013 q 492 972 485 986 q 563 1015 519 1015 q 590 1011 578 1015 q 610 1000 603 1007 l 610 1001 q 657 980 640 990 q 685 944 674 969 l 710 875 q 725 922 715 900 q 746 968 735 944 q 783 1008 758 996 q 835 1019 807 1019 q 869 1013 851 1019 q 903 996 888 1007 q 928 969 918 985 q 942 936 939 954 l 942 939 q 952 831 949 896 q 956 698 956 767 q 955 564 957 629 q 949 453 953 499 q 928 418 946 433 q 894 403 911 403 q 861 415 876 403 q 843 449 846 426 q 838 566 838 499 q 838 700 838 633 q 833 681 833 689 q 829 664 832 674 q 795 594 814 619 q 735 568 776 568 q 726 568 731 568 q 715 571 721 568 l 710 571 q 668 588 682 576 q 647 613 654 599 l 642 642 l 628 719 l 618 769 l 621 672 q 622 597 622 636 q 617 514 621 557 q 582 431 610 465 q 507 396 554 396 l 501 396 q 494 397 499 396 q 488 397 490 397 q 456 410 468 400 q 435 433 443 421 q 424 459 428 446 q 421 481 421 472 q 412 542 411 504 q 417 649 413 579 q 435 801 424 729 q 467 925 446 874 q 432 917 456 921 q 415 914 421 915 q 403 912 408 913 q 392 910 399 911 q 376 910 386 910 q 382 814 382 874 q 375 649 382 754 l 374 594 q 365 487 371 538 q 356 415 360 436 q 322 363 349 385 q 264 342 296 342 q 197 374 229 342 q 170 455 179 401 q 165 607 161 508 l 168 660 q 169 700 168 679 q 174 742 171 721 q 180 822 176 782 q 189 899 183 863 q 141 898 154 899 q 117 894 128 897 q 60 907 79 892 q 41 942 42 922 q 56 980 40 963 q 103 997 71 997 l 107 997 z "},"":{"ha":697,"x_min":15,"x_max":661,"o":"m 506 853 q 483 588 497 744 q 453 254 469 432 q 497 284 475 265 q 528 335 519 303 q 555 362 535 357 q 596 362 575 367 q 633 347 617 357 q 647 329 649 336 q 633 267 646 299 q 594 207 619 235 q 531 158 568 179 q 442 129 493 138 q 436 101 436 117 q 433 82 433 90 q 431 68 433 74 q 414 19 429 35 q 380 4 399 4 q 344 18 361 4 q 322 58 328 32 l 326 125 q 174 172 235 133 q 78 265 114 210 q 29 384 43 319 q 15 510 15 449 q 39 654 15 578 q 109 797 63 731 q 226 914 156 864 q 389 979 296 964 l 389 1025 q 412 1060 392 1050 q 455 1069 432 1071 q 497 1053 478 1067 q 517 1014 517 1039 l 517 982 l 549 974 q 600 951 576 965 q 639 915 624 936 q 658 869 654 894 q 649 813 661 843 q 621 787 640 792 q 582 786 601 782 q 549 801 563 790 q 536 825 535 813 q 526 854 539 851 q 517 856 522 857 q 506 853 513 854 m 293 508 q 297 364 288 429 q 339 265 307 299 l 372 753 q 324 652 344 713 q 293 508 303 592 z "},"":{"ha":708,"x_min":24,"x_max":688,"o":"m 35 438 q 26 456 28 439 q 25 492 24 472 q 31 527 26 511 q 39 544 35 543 l 35 544 q 49 547 42 546 q 65 549 57 549 l 57 550 q 50 572 51 556 q 50 605 49 588 q 54 637 51 622 q 61 654 57 651 l 129 661 l 139 779 q 172 913 143 858 q 243 1000 200 967 q 338 1047 286 1033 q 442 1061 390 1061 q 508 1054 475 1061 q 567 1036 540 1047 q 615 1006 593 1026 q 654 958 638 985 q 679 903 671 932 q 685 849 688 874 q 678 815 685 829 q 661 786 671 800 q 611 757 639 765 q 562 753 583 749 q 531 776 540 757 q 533 829 521 794 q 531 892 543 857 q 488 938 518 926 q 457 932 474 942 q 424 899 440 922 q 397 837 408 875 q 381 744 385 799 l 375 668 q 415 668 397 668 q 453 667 433 668 q 496 649 481 665 q 513 612 511 632 q 502 572 514 592 q 464 544 490 553 q 488 515 481 533 q 490 480 494 497 q 470 448 486 463 q 426 432 454 433 l 428 432 q 388 428 411 429 q 343 426 365 426 q 327 323 338 372 q 303 225 317 274 l 397 207 q 445 197 424 201 q 482 193 467 193 q 499 195 489 193 q 518 201 510 197 q 538 209 529 206 q 557 213 546 213 q 582 190 578 213 q 578 139 586 167 q 549 88 569 111 q 499 65 528 65 q 452 69 481 65 q 400 75 424 72 q 315 89 357 82 q 242 93 274 96 q 209 68 225 75 q 178 62 193 61 q 145 69 163 63 q 107 85 128 75 q 75 115 81 96 q 72 167 69 135 q 75 194 72 178 q 79 222 78 210 q 83 244 79 235 q 86 265 86 254 l 111 432 q 61 435 81 433 q 33 438 42 438 l 35 438 z "},"":{"ha":757,"x_min":36,"x_max":738,"o":"m 346 406 q 272 421 310 406 q 206 467 235 436 q 163 435 179 449 q 132 414 147 422 q 98 389 110 394 q 69 390 86 383 q 54 399 63 393 q 41 415 46 406 q 38 437 36 424 q 51 467 39 450 l 49 467 q 85 520 60 488 q 153 593 111 553 q 151 610 151 603 q 154 631 151 618 q 167 694 157 663 q 189 754 176 726 q 129 835 150 800 q 101 896 108 871 q 105 925 97 913 q 123 946 113 938 q 145 959 133 954 q 161 964 157 964 q 214 936 189 961 q 261 882 239 911 q 272 867 271 869 q 282 857 272 864 q 347 885 314 876 q 418 896 379 893 q 538 865 490 899 q 599 907 572 890 q 644 935 625 924 q 710 940 683 953 q 728 875 738 926 q 711 846 725 858 q 674 817 697 833 q 646 795 660 806 q 614 769 632 785 q 622 742 619 754 q 626 717 624 731 q 592 554 624 619 q 619 529 607 539 q 640 513 631 519 q 674 485 664 493 q 681 453 683 476 q 676 435 681 446 q 664 416 672 425 q 642 402 656 407 q 608 403 628 397 q 566 424 589 410 q 507 463 543 438 q 431 420 472 435 q 346 406 390 406 m 340 531 q 417 567 389 531 q 447 661 444 603 q 428 710 450 689 q 378 733 407 731 q 328 721 351 732 q 289 692 306 710 q 264 649 272 674 q 260 597 256 625 q 269 562 261 575 q 290 542 278 549 q 315 533 301 535 q 340 531 328 531 z "},"":{"ha":583,"x_min":13,"x_max":554,"o":"m 194 507 q 137 610 163 558 q 90 713 111 661 q 53 820 69 765 q 21 936 36 875 q 19 957 13 946 q 72 1015 19 1015 q 128 967 106 1015 q 161 883 144 922 q 195 808 178 844 q 232 738 213 772 q 272 667 251 703 q 296 783 282 722 q 330 897 310 844 q 376 983 350 949 q 439 1017 403 1017 q 519 960 501 1017 q 531 800 538 904 q 517 670 528 735 q 492 539 507 606 l 488 514 l 501 514 q 536 501 524 514 q 551 471 549 489 q 548 433 554 453 q 525 399 542 413 q 536 369 535 386 q 531 336 538 353 q 511 306 525 319 q 476 290 497 293 q 463 287 469 288 q 446 286 457 286 q 422 184 433 229 q 394 108 410 139 q 357 59 379 76 q 301 42 335 42 q 263 51 282 42 q 229 75 244 60 q 205 110 214 90 q 197 154 196 131 q 202 201 200 168 q 213 293 204 235 q 165 294 186 293 q 136 297 144 294 q 131 316 132 299 q 131 353 129 333 q 136 389 133 372 q 143 408 139 406 l 142 408 q 143 410 143 408 q 144 438 143 422 q 148 467 146 453 q 153 491 150 481 q 158 503 156 501 q 166 505 164 504 q 170 506 168 506 q 177 507 172 507 q 194 507 182 507 z "},"":{"ha":404,"x_min":19,"x_max":386,"o":"m 104 1146 q 38 1174 56 1146 q 29 1236 19 1203 q 58 1286 35 1264 q 119 1304 81 1308 q 182 1274 164 1301 q 193 1217 200 1246 q 163 1168 186 1189 q 104 1146 140 1147 m 290 1142 q 224 1170 242 1142 q 215 1232 206 1199 q 244 1282 221 1260 q 306 1300 267 1304 q 368 1269 350 1297 q 379 1213 386 1242 q 349 1164 372 1185 q 290 1142 326 1143 z "},"":{"ha":742,"x_min":26,"x_max":717,"o":"m 378 240 q 210 267 279 239 q 100 341 142 294 q 42 448 58 388 q 32 574 26 508 q 71 732 38 653 q 159 876 104 811 q 286 981 214 940 q 442 1021 358 1021 q 569 988 517 1021 q 656 901 622 956 q 703 778 689 847 q 711 638 717 710 q 683 494 707 564 q 616 367 658 424 q 514 276 574 311 q 378 240 454 242 m 608 639 q 601 764 613 703 l 597 750 l 597 753 q 579 733 592 736 q 553 733 567 729 q 528 744 539 736 q 517 758 518 751 q 518 768 519 767 q 501 767 511 768 q 483 758 490 765 q 426 695 453 736 q 392 586 400 654 q 402 506 385 533 q 446 478 419 478 q 479 490 461 478 q 515 525 497 503 q 529 534 519 532 q 549 535 539 536 q 570 529 560 533 q 586 521 581 525 q 600 579 594 550 q 608 639 606 608 m 488 922 l 490 922 q 423 917 454 928 q 365 885 392 907 q 317 832 339 864 q 279 763 296 800 q 361 828 313 803 q 479 854 410 854 q 515 850 499 854 l 533 850 q 586 819 564 842 q 547 885 571 858 q 488 922 522 913 m 439 371 q 325 385 369 364 q 257 443 281 407 q 303 367 272 396 q 383 340 335 339 q 513 396 461 342 q 477 380 496 386 q 439 371 458 374 z "},"":{"ha":732,"x_min":25,"x_max":707,"o":"m 372 240 q 208 266 275 239 q 99 338 140 293 q 42 442 58 383 q 31 567 25 501 q 69 723 36 644 q 157 865 103 801 q 282 969 211 929 q 435 1008 353 1008 q 561 976 508 1008 q 647 890 614 943 q 693 769 679 838 q 701 629 707 700 q 674 488 697 557 q 608 365 650 419 q 508 276 567 310 q 372 240 449 242 m 481 911 l 482 910 q 398 899 436 917 q 329 846 360 882 l 332 846 q 364 835 349 846 q 390 792 379 824 q 490 843 432 843 q 583 792 546 843 l 585 790 q 545 868 571 836 q 481 911 519 900 m 446 438 q 424 453 435 444 q 399 478 413 463 q 389 440 394 460 q 376 404 383 421 q 358 377 368 388 q 336 367 349 367 q 286 378 304 367 q 379 338 319 335 q 501 389 453 340 q 494 394 496 392 q 486 400 492 397 l 446 438 m 600 633 l 601 651 q 545 576 582 603 q 472 540 508 550 q 518 491 500 513 q 549 454 536 469 q 550 451 549 453 q 585 538 572 490 q 600 633 597 585 m 469 735 q 467 744 468 739 q 464 754 467 750 q 435 712 449 738 q 408 638 421 686 q 404 608 404 618 q 436 622 417 610 l 433 619 q 462 658 454 636 q 472 701 469 681 q 472 721 472 713 q 469 735 472 729 m 238 590 q 236 534 235 563 q 243 479 238 506 l 243 497 q 242 566 242 529 q 246 635 243 603 l 250 676 q 242 633 246 654 q 238 590 239 611 z "},"":{"ha":399,"x_min":32,"x_max":347,"o":"m 107 1088 q 68 1090 85 1079 q 42 1117 51 1100 q 33 1155 33 1135 q 43 1188 32 1175 q 117 1229 90 1213 q 162 1259 144 1246 q 194 1283 179 1272 q 229 1310 208 1294 l 235 1313 q 298 1308 271 1324 q 336 1265 325 1292 q 340 1208 347 1238 q 300 1165 332 1179 q 217 1125 250 1138 q 149 1101 183 1113 q 128 1095 138 1099 q 107 1088 118 1092 z "},"":{"ha":183,"x_min":-179,"x_max":167,"o":"m 167 -372 l 161 -444 q 141 -528 158 -494 q 97 -581 124 -561 q 38 -610 69 -601 q -26 -619 6 -619 q -104 -604 -71 -619 q -135 -585 -121 -599 q -159 -556 -149 -572 q -174 -522 -169 -539 q -178 -487 -179 -504 q -174 -467 -178 -476 q -162 -449 -169 -457 q -132 -431 -149 -436 q -101 -428 -115 -425 q -81 -444 -87 -432 q -83 -476 -75 -456 q -83 -515 -90 -493 q -56 -543 -75 -536 q -16 -519 -37 -549 q 11 -424 6 -490 l 14 -376 l 167 -372 z "},"":{"ha":522,"x_min":39,"x_max":469,"o":"m 151 314 q 101 299 125 296 q 61 317 76 303 q 42 351 46 331 q 54 388 39 371 l 64 394 q 93 430 74 411 q 136 468 113 449 l 156 493 q 115 535 135 515 q 79 572 94 554 q 63 619 58 594 q 85 661 67 644 q 132 681 104 678 q 188 664 160 685 l 186 665 q 219 635 200 654 q 264 592 239 615 l 346 663 q 398 680 371 683 q 444 659 425 676 q 465 615 463 642 q 446 564 468 589 l 449 567 q 415 533 438 554 q 364 488 393 511 l 451 386 q 464 347 469 367 q 441 313 458 326 q 400 297 424 299 q 360 311 376 294 l 363 307 q 310 347 339 325 q 254 394 282 368 l 151 314 z "},"":{"ha":400,"x_min":22,"x_max":363,"o":"m 201 157 q 143 162 168 153 q 101 188 118 171 q 77 228 85 206 q 71 275 69 251 q 79 311 72 293 q 99 344 86 329 q 131 367 113 358 q 175 378 150 376 q 232 369 208 379 q 271 343 256 360 q 293 305 286 326 q 299 261 300 283 q 271 194 296 224 q 201 157 246 165 m 204 574 q 148 578 172 569 q 107 605 124 588 q 83 644 90 622 q 76 690 75 667 q 106 760 79 729 q 182 792 132 792 q 239 784 215 793 q 278 758 263 775 q 301 720 294 742 q 307 676 308 699 q 278 610 304 639 q 207 574 253 581 l 204 574 m 31 417 q 24 436 25 418 q 24 475 22 454 q 31 514 26 496 q 42 535 36 532 l 38 535 q 128 547 90 543 q 214 550 167 550 q 254 550 232 550 q 301 549 276 550 q 347 526 332 547 q 360 481 363 506 q 341 433 358 456 q 290 407 324 411 q 258 405 275 406 q 219 404 240 404 q 163 406 192 404 q 108 409 135 407 q 61 413 82 411 q 29 417 40 415 l 31 417 z "},"":{"ha":283,"x_min":75,"x_max":319,"o":"m 196 696 q 141 707 164 696 q 103 735 118 718 q 82 775 89 753 q 76 821 75 797 q 111 900 79 865 q 210 938 143 935 q 293 897 267 935 q 317 817 319 860 q 283 733 314 771 q 196 696 253 696 m 201 800 q 201 810 201 804 q 201 826 200 815 q 179 810 183 819 q 199 801 175 801 q 201 800 201 801 z "},"":{"ha":613,"x_min":-18,"x_max":679,"o":"m 61 96 q 149 329 104 213 q 238 553 194 446 q 320 756 281 661 q 390 922 360 850 q 442 1040 421 994 q 468 1096 463 1086 q 522 1149 488 1132 q 588 1167 556 1167 q 631 1158 611 1167 q 663 1135 651 1150 q 677 1099 675 1121 q 667 1051 679 1078 q 563 831 610 935 q 476 635 517 728 q 401 457 436 542 q 333 293 367 372 l 226 43 q 178 -70 197 -26 q 147 -140 160 -114 q 125 -178 133 -165 q 110 -199 117 -190 q 69 -217 93 -214 q 24 -208 44 -219 q -8 -172 3 -197 q -7 -107 -18 -147 l 0 -74 q 24 -2 10 -46 q 61 96 39 42 z "},"":{"ha":371,"x_min":56,"x_max":394,"o":"m 63 417 q 56 436 57 418 q 58 475 56 454 q 64 514 60 496 q 74 535 68 532 l 71 535 q 161 547 124 543 q 246 550 199 550 q 287 550 265 550 q 333 549 308 550 q 379 526 364 547 q 392 481 394 506 q 373 433 390 456 q 322 407 356 411 q 290 405 307 406 q 251 404 272 404 q 195 406 224 404 q 141 409 167 407 q 94 413 115 411 q 61 417 74 415 l 63 417 z "},"":{"ha":526,"x_min":7,"x_max":493,"o":"m 160 928 q 180 916 171 921 q 199 905 189 911 q 219 891 208 899 q 247 869 231 883 q 319 907 289 893 q 381 933 349 921 l 419 951 q 457 951 440 960 q 483 927 474 943 q 492 892 492 911 q 482 858 493 872 q 447 834 468 850 q 399 799 425 818 q 347 758 374 779 q 296 719 319 738 q 250 691 276 697 q 201 700 224 685 l 185 719 q 147 759 167 738 q 106 800 126 781 q 67 836 86 819 q 32 863 49 853 q 11 906 15 881 q 17 949 7 931 q 52 971 26 967 q 121 950 78 975 l 119 950 l 160 928 z "},"":{"ha":963,"x_min":60,"x_max":933,"o":"m 182 1 q 125 6 149 -3 q 87 29 101 14 q 66 66 72 44 q 63 111 60 88 q 93 185 65 150 q 174 222 121 221 q 227 215 204 224 q 265 192 250 207 q 285 156 279 176 q 290 115 292 136 q 260 44 288 78 q 182 1 232 10 m 503 1 q 446 6 469 -3 q 408 29 422 14 q 387 66 393 44 q 383 111 381 88 q 414 185 386 150 q 494 222 442 221 q 548 215 525 224 q 585 192 571 207 q 606 156 600 176 q 611 115 613 136 q 581 44 608 78 q 503 1 553 10 m 824 1 q 767 6 790 -3 q 728 29 743 14 q 708 66 714 44 q 704 111 701 88 q 735 185 707 150 q 815 222 763 221 q 869 215 846 224 q 906 192 892 207 q 927 156 921 176 q 932 115 933 136 q 901 44 929 78 q 824 1 874 10 z "},"":{"ha":1014,"x_min":11,"x_max":1085,"o":"m 113 985 q 169 1012 133 1001 q 249 1028 206 1022 q 338 1038 292 1035 q 424 1040 383 1040 q 553 1013 511 1040 q 594 958 594 986 q 574 931 594 943 q 508 911 554 918 l 511 911 q 420 902 465 906 q 339 896 375 899 l 318 894 q 323 817 321 863 q 325 706 325 772 q 325 638 325 674 q 324 563 325 603 q 460 533 418 560 q 501 469 501 506 q 484 442 501 453 q 440 424 467 431 q 380 413 413 417 q 317 407 347 410 q 317 394 317 400 q 318 382 318 389 l 314 333 q 313 321 313 326 q 313 310 313 315 l 313 288 q 303 188 308 238 q 292 96 297 139 q 284 19 288 53 q 281 -33 281 -15 q 265 -80 276 -58 q 235 -117 253 -101 q 195 -142 217 -133 q 150 -151 174 -151 q 90 -133 115 -151 q 47 -75 64 -115 q 20 32 29 -35 q 11 197 11 99 q 14 263 11 228 q 17 333 17 297 l 17 350 l 19 390 q 35 578 26 483 q 58 767 44 674 q 66 830 63 794 q 76 899 69 865 q 92 957 82 932 q 122 990 103 982 l 113 985 m 569 -28 l 619 -22 q 610 101 610 22 q 622 310 610 182 q 625 330 625 319 q 625 350 625 340 l 631 390 q 663 635 646 508 q 706 876 681 763 q 676 874 685 876 q 658 871 667 871 q 619 886 631 871 q 607 921 607 901 q 623 969 607 946 q 664 993 639 992 q 803 1027 725 1014 q 956 1040 881 1040 q 997 1034 975 1040 q 1039 1017 1019 1028 q 1072 992 1058 1006 q 1085 961 1085 978 q 1065 931 1085 946 q 1000 911 1046 917 l 951 906 q 953 867 953 888 q 954 818 954 846 q 949 647 954 751 q 929 379 943 543 l 918 288 q 881 22 893 88 q 903 25 890 25 q 925 25 917 25 q 978 -7 978 25 q 963 -47 978 -25 q 924 -90 947 -69 q 885 -112 904 -104 q 845 -124 865 -119 q 805 -131 825 -128 q 767 -139 785 -135 l 769 -139 q 691 -149 736 -146 q 603 -153 646 -153 q 580 -151 590 -153 q 562 -142 569 -150 q 550 -120 554 -135 q 546 -79 546 -106 q 551 -47 546 -61 q 569 -28 557 -33 z "},"":{"ha":1096,"x_min":11,"x_max":1083,"o":"m 113 985 q 169 1012 133 1001 q 249 1028 206 1022 q 338 1038 292 1035 q 424 1040 383 1040 q 553 1013 511 1040 q 594 958 594 986 q 574 931 594 943 q 508 911 554 918 l 511 911 q 420 902 465 906 q 339 896 375 899 l 318 894 q 323 817 321 863 q 325 706 325 772 q 325 638 325 674 q 324 563 325 603 q 460 533 418 560 q 501 469 501 506 q 484 442 501 453 q 440 424 467 431 q 380 413 413 417 q 317 407 347 410 q 317 394 317 400 q 318 382 318 389 l 314 333 q 313 321 313 326 q 313 310 313 315 l 313 288 q 303 188 308 238 q 292 96 297 139 q 284 19 288 53 q 281 -33 281 -15 q 265 -80 276 -58 q 235 -117 253 -101 q 195 -142 217 -133 q 150 -151 174 -151 q 90 -133 115 -151 q 47 -75 64 -115 q 20 32 29 -35 q 11 197 11 99 q 14 263 11 228 q 17 333 17 297 l 17 350 l 19 390 q 35 578 26 483 q 58 767 44 674 q 66 830 63 794 q 76 899 69 865 q 92 957 82 932 q 122 990 103 982 l 113 985 m 599 -124 q 536 -30 554 -96 q 518 156 518 36 q 520 231 518 193 q 525 307 522 269 l 536 426 q 545 557 540 488 q 559 695 550 626 q 582 827 568 764 q 616 938 596 890 q 664 1015 636 986 q 731 1044 692 1044 q 783 1017 764 1044 q 812 952 801 989 q 826 878 822 915 q 831 824 829 842 q 835 731 833 781 q 838 626 838 681 q 826 307 838 471 q 783 -1 814 143 q 826 5 801 -1 q 883 19 851 11 q 949 34 914 28 q 1021 40 983 40 q 1069 29 1054 40 q 1083 1 1083 18 q 1064 -46 1083 -19 q 1002 -95 1044 -72 q 892 -133 960 -118 q 731 -149 825 -149 q 657 -144 690 -149 q 600 -126 624 -139 l 599 -124 z "},"":{"ha":606,"x_min":-51,"x_max":592,"o":"m 89 -128 q 40 -80 60 -110 q 13 13 19 -50 q 6 167 4 92 q 15 318 8 242 l 22 440 q 48 707 31 576 q 93 946 65 838 q 136 1027 111 994 q 193 1074 161 1060 q 266 1068 239 1092 q 307 1003 293 1044 q 326 919 321 963 q 332 854 331 875 q 335 617 338 751 q 324 346 332 482 q 307 167 318 258 q 279 -1 296 76 q 285 -1 282 -1 q 290 0 288 0 q 297 1 293 0 q 301 1 300 1 q 390 22 339 10 q 504 40 442 33 q 572 33 551 44 q 592 1 592 21 q 575 -42 592 -18 q 533 -87 558 -67 q 488 -108 521 -97 q 411 -130 454 -119 q 319 -147 368 -140 q 226 -154 271 -154 q 151 -149 186 -154 q 90 -129 115 -144 l 89 -128 m 7 244 q -37 263 -22 244 q -51 303 -51 282 q -33 344 -50 325 q 18 363 -17 363 l 17 363 q 229 379 113 379 q 281 378 254 379 q 336 376 308 378 q 382 354 367 375 q 395 308 397 333 q 376 261 393 283 q 325 235 358 239 q 292 233 310 233 q 250 232 274 232 q 178 233 215 232 q 106 237 140 235 q 46 241 72 239 q 7 244 19 243 z "},"":{"ha":581,"x_min":-61,"x_max":574,"o":"m 89 -124 q 26 -30 44 -96 q 8 156 8 36 q 10 231 8 193 q 15 307 13 269 l 26 426 q 35 557 31 488 q 49 695 40 626 q 72 827 58 764 q 106 938 86 890 q 154 1015 126 986 q 221 1044 182 1044 q 273 1017 254 1044 q 302 952 292 989 q 316 878 313 915 q 321 824 319 842 q 326 731 324 781 q 328 626 328 681 q 316 307 328 471 q 274 -1 304 143 q 317 5 292 -1 q 373 19 342 11 q 439 34 404 28 q 511 40 474 40 q 559 29 544 40 q 574 1 574 18 q 554 -46 574 -19 q 492 -95 535 -72 q 383 -133 450 -118 q 221 -149 315 -149 q 147 -144 181 -149 q 90 -126 114 -139 l 89 -124 m -3 231 q -47 249 -32 231 q -60 290 -61 268 q -43 330 -60 311 q 8 349 -26 349 l 7 349 q 219 365 103 365 q 272 365 244 365 q 326 363 299 364 q 372 340 357 361 q 385 294 388 319 q 366 247 383 269 q 315 221 349 225 q 282 219 300 219 q 240 218 264 218 q 168 219 206 218 q 97 223 131 221 q 36 227 63 225 q -3 231 10 229 z "},"":{"ha":721,"x_min":3,"x_max":768,"o":"m 206 438 q 322 684 264 564 q 446 917 379 804 q 450 924 449 922 q 451 926 451 925 l 454 928 l 446 929 q 439 928 442 929 q 433 928 436 928 q 349 922 399 925 q 238 915 299 918 q 170 923 190 913 q 152 951 150 933 q 174 990 154 968 q 226 1032 194 1013 q 269 1047 244 1042 q 322 1060 294 1053 q 404 1069 357 1064 q 501 1077 451 1075 q 597 1076 551 1079 q 676 1063 643 1074 q 709 1012 706 1050 q 701 922 713 974 q 663 791 689 860 q 617 667 636 722 l 606 643 l 607 644 l 590 601 q 534 478 564 539 q 472 357 504 418 l 424 256 q 342 99 378 164 q 279 -11 307 33 l 288 -11 q 373 -8 324 -11 q 485 -6 422 -6 q 551 -22 529 -6 q 574 -58 574 -37 q 555 -99 575 -79 q 493 -126 535 -118 q 436 -143 474 -136 q 352 -154 399 -150 q 255 -160 306 -158 q 160 -160 204 -162 l 121 -156 q 57 -143 82 -158 q 19 -104 32 -128 q 4 -51 6 -81 q 11 4 3 -22 l 49 96 q 115 233 76 150 q 206 438 153 315 m 435 1340 q 455 1328 446 1333 q 474 1317 464 1324 q 494 1303 483 1311 q 522 1282 506 1296 q 594 1319 564 1306 q 656 1346 624 1333 l 694 1364 q 732 1364 715 1372 q 758 1340 749 1356 q 767 1304 767 1324 q 757 1271 768 1285 q 722 1247 743 1263 q 674 1211 700 1231 q 622 1171 649 1192 q 571 1132 594 1150 q 525 1103 551 1110 q 476 1113 499 1097 l 460 1132 q 422 1172 442 1150 q 381 1213 401 1193 q 342 1249 361 1232 q 307 1275 324 1265 q 286 1318 290 1293 q 292 1361 282 1343 q 327 1383 301 1379 q 396 1363 353 1388 l 394 1363 l 435 1340 z "},"":{"ha":560,"x_min":-32,"x_max":585,"o":"m 131 422 q 223 660 176 544 q 328 885 269 776 q 332 892 331 890 l 333 893 l 333 896 l 325 897 q 319 896 322 897 q 313 894 315 894 q 231 890 279 892 q 124 885 182 888 q 61 896 81 882 q 42 930 42 910 q 60 969 42 950 q 110 997 78 989 q 201 1024 150 1015 q 265 1032 231 1028 q 335 1038 300 1036 q 405 1039 371 1039 q 468 1035 439 1039 q 499 1035 482 1038 q 535 1025 517 1032 q 578 976 571 1014 q 579 889 585 939 q 566 826 574 858 q 549 763 558 794 q 530 700 539 731 q 513 643 521 669 l 501 619 l 493 581 q 447 461 471 521 q 397 343 422 401 l 357 246 q 290 94 319 156 q 236 -11 260 32 l 246 -11 q 328 -8 279 -11 q 439 -6 378 -6 q 501 -22 482 -6 q 519 -58 519 -37 q 499 -97 518 -78 q 449 -124 481 -117 q 397 -137 432 -132 q 317 -147 361 -143 q 223 -151 272 -150 q 131 -153 174 -153 l 92 -153 q 77 -154 83 -156 q 63 -153 71 -153 q 17 -137 36 -151 q -15 -102 -3 -124 q -29 -53 -26 -81 q -25 3 -32 -26 l 8 94 q 58 226 28 147 q 131 422 89 304 m 239 1301 q 259 1290 250 1294 q 278 1278 268 1285 q 299 1265 288 1272 q 326 1243 310 1257 q 398 1281 368 1267 q 460 1307 428 1294 l 499 1325 q 536 1325 519 1333 q 562 1301 553 1317 q 572 1265 571 1285 q 561 1232 572 1246 q 526 1208 547 1224 q 478 1172 504 1192 q 426 1132 453 1153 q 375 1093 399 1111 q 329 1065 356 1071 q 281 1074 303 1058 l 264 1093 q 226 1133 246 1111 q 185 1174 206 1154 q 147 1210 165 1193 q 111 1236 128 1226 q 90 1279 94 1254 q 96 1322 86 1304 q 131 1344 106 1340 q 200 1324 157 1349 l 199 1324 l 239 1301 z "},"":{"ha":633,"x_min":1,"x_max":633,"o":"m 21 839 q 59 932 32 889 q 128 1008 86 975 q 228 1060 171 1040 q 357 1083 285 1079 q 424 1077 383 1083 q 501 1051 464 1071 q 563 994 539 1032 q 582 893 588 957 q 578 851 581 869 q 569 822 576 833 q 545 804 561 810 q 503 799 529 799 q 458 806 474 799 q 435 824 442 813 q 429 849 429 835 q 432 878 429 863 q 417 929 435 913 q 379 939 399 946 q 346 924 363 935 q 316 898 329 914 q 294 863 303 882 q 285 822 286 843 q 285 793 285 807 q 293 767 286 779 q 330 713 308 735 q 381 663 351 690 q 445 599 407 636 q 538 499 483 561 q 612 356 590 432 q 626 206 633 281 q 593 63 622 131 q 516 -58 564 -6 q 403 -141 468 -110 q 264 -172 339 -172 q 110 -135 189 -172 q 67 -103 88 -125 q 33 -54 47 -82 q 10 6 18 -26 q 4 72 1 39 q 15 127 7 100 q 42 179 24 154 q 82 206 58 201 q 126 201 106 210 q 158 171 146 192 q 163 122 169 150 q 156 101 160 113 q 153 78 153 89 q 168 23 150 40 q 210 6 186 6 q 281 31 246 6 q 338 107 317 57 l 332 104 q 341 130 339 118 q 343 149 343 142 q 333 234 346 189 q 292 326 319 279 q 227 420 265 374 q 143 511 189 467 q 39 665 72 579 q 21 839 6 751 m 261 1354 q 281 1342 272 1347 q 300 1331 290 1338 q 321 1317 310 1325 q 349 1296 332 1310 q 420 1333 390 1319 q 482 1360 450 1347 l 521 1378 q 558 1378 542 1386 q 584 1353 575 1369 q 594 1318 593 1338 q 583 1285 594 1299 q 548 1260 569 1276 q 501 1225 526 1244 q 448 1185 475 1206 q 397 1146 421 1164 q 351 1117 378 1124 q 303 1126 325 1111 l 286 1146 q 248 1185 268 1164 q 208 1226 228 1207 q 169 1263 188 1246 q 133 1289 150 1279 q 113 1332 117 1307 q 118 1375 108 1357 q 153 1397 128 1393 q 222 1376 179 1401 l 221 1376 l 261 1354 z "},"":{"ha":339,"x_min":19,"x_max":299,"o":"m 263 493 q 251 473 256 482 q 240 454 246 464 q 226 433 235 444 q 206 406 218 422 q 242 334 229 364 q 268 272 256 304 l 286 233 q 286 196 294 213 q 262 170 278 179 q 227 160 246 161 q 194 171 208 160 q 170 206 186 185 q 135 253 154 228 q 94 306 115 279 q 56 357 74 333 q 26 403 32 376 q 35 451 19 429 l 56 468 q 95 506 74 486 q 136 547 117 526 q 172 585 156 567 q 197 621 188 604 q 231 622 210 628 q 268 603 251 617 q 292 570 285 589 q 285 532 299 551 l 285 533 l 263 493 z "},"":{"ha":644,"x_min":13,"x_max":629,"o":"m 43 810 q 142 973 61 907 q 361 1046 222 1039 q 422 1040 385 1046 q 496 1017 460 1035 q 558 969 532 1000 q 585 886 585 938 q 578 839 585 864 q 560 793 572 814 q 527 758 547 772 q 479 744 507 744 q 434 756 446 744 q 422 785 422 768 q 426 814 422 799 q 435 843 431 829 l 439 849 q 426 896 436 882 q 401 910 417 910 q 366 900 385 910 q 332 874 347 890 q 305 837 317 858 q 290 790 293 815 q 320 708 290 742 q 388 640 350 675 q 451 578 414 615 q 539 479 488 542 q 608 355 588 421 q 629 225 629 289 q 603 77 629 147 q 527 -47 576 7 q 409 -133 478 -101 q 257 -165 340 -165 q 73 -108 133 -165 q 13 49 13 -51 q 25 103 15 74 q 50 157 35 132 q 86 199 65 182 q 131 215 107 215 q 166 201 151 215 q 181 158 181 186 q 173 115 181 139 q 165 60 165 90 q 176 16 165 32 q 201 0 186 0 q 256 25 232 0 q 296 83 279 50 q 321 149 313 117 q 329 194 329 181 q 286 342 329 264 q 160 494 243 419 q 68 614 99 549 q 38 750 38 679 q 39 780 38 765 q 43 810 40 794 m 231 1317 q 251 1305 242 1310 q 269 1294 260 1300 q 290 1280 279 1288 q 318 1258 301 1272 q 390 1296 360 1282 q 451 1322 419 1310 l 490 1340 q 528 1340 511 1349 q 553 1316 544 1332 q 563 1281 563 1300 q 553 1247 564 1261 q 517 1223 539 1239 q 470 1188 496 1207 q 417 1147 444 1168 q 367 1108 390 1126 q 321 1080 347 1086 q 272 1089 294 1074 l 256 1108 q 217 1148 238 1126 q 177 1189 197 1169 q 138 1225 157 1208 q 103 1251 119 1242 q 82 1294 86 1269 q 88 1338 78 1319 q 123 1360 97 1356 q 192 1339 149 1364 l 190 1339 l 231 1317 z "},"":{"ha":339,"x_min":39,"x_max":319,"o":"m 76 286 q 88 306 83 297 q 99 325 93 315 q 113 346 104 335 q 133 374 121 357 q 97 445 110 415 q 71 507 83 475 l 53 546 q 53 583 44 567 q 77 609 61 600 q 112 619 93 618 q 144 608 131 619 q 169 573 153 594 q 204 526 185 551 q 244 473 224 500 q 283 422 265 446 q 313 376 307 403 q 304 328 319 350 l 283 311 q 243 273 264 293 q 203 233 222 253 q 167 194 183 213 q 142 158 151 175 q 108 157 129 151 q 71 176 88 163 q 47 209 54 190 q 54 247 39 228 l 54 246 l 76 286 z "},"":{"ha":1103,"x_min":11,"x_max":1103,"o":"m 389 -149 q 216 -107 288 -149 q 99 5 144 -65 q 32 167 53 75 q 11 360 11 258 q 11 375 11 367 q 13 390 11 383 q 60 638 21 521 q 158 845 99 756 q 291 988 217 935 q 443 1040 365 1040 q 558 1006 510 1040 q 638 911 607 972 q 683 765 668 850 q 697 576 697 679 q 697 523 697 550 q 694 468 697 496 l 693 396 q 672 213 688 308 q 624 36 657 117 q 533 -97 590 -44 q 389 -149 476 -149 m 571 463 q 575 571 575 518 q 568 699 575 642 q 549 799 561 757 q 519 863 536 840 q 485 885 503 885 q 428 858 454 885 q 380 788 401 832 q 342 683 358 743 q 314 557 325 624 q 297 420 303 490 q 292 285 292 350 q 297 169 292 224 q 314 76 303 115 q 342 13 325 36 q 383 -10 360 -10 q 442 13 417 -10 q 487 74 468 36 q 519 160 506 113 q 542 258 533 208 q 558 356 551 308 q 568 440 564 403 q 569 452 568 447 q 571 463 571 457 m 628 -124 q 592 -88 607 -110 q 567 -34 576 -67 q 552 44 557 -1 q 547 150 547 89 q 549 228 547 190 q 554 307 550 267 l 565 426 q 588 683 574 557 q 635 913 603 808 q 658 949 642 931 q 696 984 675 968 q 740 1011 717 1000 q 783 1026 763 1022 l 782 1024 q 882 1042 832 1039 q 976 1046 932 1046 q 1022 1044 1003 1046 q 1056 1035 1042 1042 l 1054 1038 q 1091 1010 1079 1026 q 1103 974 1103 993 q 1088 935 1103 953 q 1044 911 1072 917 l 885 894 q 868 894 878 894 q 851 893 858 893 q 856 852 856 869 q 860 824 857 835 l 868 561 l 906 561 q 1047 534 1001 561 q 1092 474 1092 507 q 1067 442 1092 454 q 1005 422 1042 429 q 928 410 968 414 q 857 407 888 407 l 857 388 q 855 360 854 372 q 856 335 856 347 q 839 161 850 249 q 811 -1 828 74 l 811 -6 l 1024 39 q 1072 24 1053 39 q 1090 -19 1090 10 q 1083 -51 1090 -35 q 1056 -83 1075 -68 q 1011 -105 1043 -93 q 938 -126 979 -117 q 849 -142 896 -136 q 760 -149 801 -149 q 686 -144 719 -149 q 629 -126 653 -139 l 628 -124 z "},"":{"ha":656,"x_min":0,"x_max":649,"o":"m 8 972 q 17 1030 0 1007 q 58 1058 33 1053 q 110 1049 83 1064 q 149 994 136 1033 l 168 940 q 198 833 183 883 q 226 737 213 783 q 251 646 239 690 q 276 556 264 601 q 330 742 300 644 q 396 918 360 840 q 433 997 414 963 q 474 1053 451 1032 q 526 1078 497 1074 q 592 1071 554 1083 q 635 1008 622 1054 q 646 904 649 963 q 628 792 639 850 q 610 690 618 735 q 605 672 607 683 q 603 656 603 661 l 593 624 q 592 611 592 618 q 563 490 578 549 q 532 376 547 431 q 527 367 529 369 q 525 360 525 364 l 496 257 q 450 102 471 168 q 409 -12 429 36 q 368 -91 389 -60 q 321 -143 347 -122 l 324 -143 q 277 -169 300 -162 q 238 -176 254 -176 q 192 -164 213 -176 q 156 -131 171 -151 q 135 -85 142 -111 q 132 -32 129 -60 q 153 79 136 0 q 197 257 171 158 l 143 451 q 72 706 108 574 q 8 971 36 838 l 8 972 m 229 1108 q 163 1137 181 1108 q 154 1199 144 1165 q 183 1249 160 1226 q 244 1267 206 1271 q 307 1236 289 1264 q 318 1179 325 1208 q 288 1131 311 1151 q 229 1108 265 1110 m 415 1104 q 349 1133 367 1104 q 340 1194 331 1161 q 369 1244 346 1222 q 431 1263 392 1267 q 493 1232 475 1260 q 504 1175 511 1204 q 474 1126 497 1147 q 415 1104 451 1106 z "},"":{"ha":457,"x_min":63,"x_max":389,"o":"m 235 868 q 290 865 267 871 q 327 846 313 858 q 348 816 342 833 q 353 779 354 799 q 326 725 350 751 q 254 694 303 699 q 283 687 269 692 q 308 674 296 682 l 307 674 q 362 613 344 656 q 384 517 379 571 q 386 408 389 464 q 381 307 383 351 l 369 210 q 359 99 365 158 q 343 -20 353 39 q 319 -133 333 -79 q 284 -228 304 -187 q 235 -294 264 -269 q 169 -319 207 -319 q 117 -299 136 -319 q 87 -249 97 -278 q 74 -191 76 -221 q 68 -143 71 -161 q 67 -137 68 -140 q 65 -132 65 -133 q 64 61 63 -49 q 74 285 65 171 l 85 413 q 97 509 89 461 q 119 596 104 557 q 160 661 135 635 q 225 693 186 688 q 147 722 172 696 q 125 779 122 747 q 156 835 128 808 q 232 868 183 861 l 235 868 z "},"":{"ha":556,"x_min":21,"x_max":514,"o":"m 264 493 q 252 473 257 482 q 242 454 247 464 q 228 433 236 444 q 207 406 219 422 q 244 334 231 364 q 269 272 257 304 l 288 233 q 288 196 296 213 q 263 170 279 179 q 228 160 247 161 q 196 171 210 160 q 172 206 188 185 q 136 253 156 228 q 96 306 117 279 q 57 357 75 333 q 27 403 33 376 q 36 451 21 429 l 57 468 q 97 506 75 486 q 138 547 118 526 q 173 585 157 567 q 199 621 189 604 q 232 622 211 628 q 269 603 253 617 q 293 570 286 589 q 286 532 300 551 l 286 533 l 264 493 m 478 493 q 466 473 471 482 q 456 454 461 464 q 442 433 450 444 q 421 406 433 422 q 458 334 444 364 q 483 272 471 304 l 501 233 q 501 196 510 213 q 477 170 493 179 q 442 160 461 161 q 410 171 424 160 q 385 206 401 185 q 350 253 369 228 q 310 306 331 279 q 271 357 289 333 q 241 403 247 376 q 250 451 235 429 l 271 468 q 310 506 289 486 q 351 547 332 526 q 387 585 371 567 q 413 621 403 604 q 446 622 425 628 q 483 603 467 617 q 507 570 500 589 q 500 532 514 551 l 500 533 l 478 493 z "},"":{"ha":556,"x_min":40,"x_max":535,"o":"m 292 286 q 303 306 299 297 q 314 325 308 315 q 328 346 319 335 q 349 374 336 357 q 312 445 325 415 q 286 507 299 475 l 268 546 q 268 583 260 567 q 292 609 276 600 q 327 619 308 618 q 360 608 346 619 q 384 573 368 594 q 419 526 400 551 q 460 473 439 500 q 499 422 481 446 q 528 376 522 403 q 519 328 535 350 l 499 311 q 458 273 479 293 q 418 233 438 253 q 383 194 399 213 q 357 158 367 175 q 324 157 344 151 q 286 176 303 163 q 262 209 269 190 q 269 247 254 228 l 269 246 l 292 286 m 78 286 q 90 306 85 297 q 100 325 94 315 q 114 346 106 335 q 135 374 122 357 q 98 445 111 415 q 72 507 85 475 l 54 546 q 54 583 46 567 q 78 609 63 600 q 113 619 94 618 q 146 608 132 619 q 170 573 154 594 q 206 526 186 551 q 246 473 225 500 q 285 422 267 446 q 315 376 308 403 q 306 328 321 350 l 285 311 q 244 273 265 293 q 204 233 224 253 q 169 194 185 213 q 143 158 153 175 q 110 157 131 151 q 72 176 89 163 q 48 209 56 190 q 56 247 40 228 l 56 246 l 78 286 z "},"":{"ha":721,"x_min":38,"x_max":700,"o":"m 38 -86 q 38 -63 39 -75 q 38 -37 38 -51 q 65 80 43 21 q 119 195 88 139 q 188 305 150 251 q 260 407 225 358 q 311 479 288 446 q 351 543 335 513 l 369 586 q 391 626 382 610 q 410 651 400 642 q 432 667 419 661 q 463 675 444 672 q 517 676 493 678 q 556 663 540 674 q 579 628 572 651 q 583 564 586 604 q 576 524 581 547 q 565 475 572 500 q 544 419 563 460 q 500 328 526 379 q 444 214 474 276 q 388 91 414 151 q 346 -21 363 31 q 329 -106 329 -74 q 360 -193 338 -167 q 417 -215 383 -219 l 413 -215 q 502 -185 456 -208 q 568 -126 549 -161 l 568 -128 q 600 -89 583 -100 q 636 -78 617 -78 q 679 -95 660 -78 q 700 -140 699 -112 q 680 -200 700 -172 q 628 -250 660 -228 q 558 -289 597 -272 q 481 -315 518 -305 q 417 -327 450 -322 q 349 -332 385 -332 q 240 -319 294 -332 q 143 -278 186 -307 q 71 -203 100 -250 q 38 -86 42 -156 m 522 874 q 578 869 554 876 q 617 849 601 862 q 639 819 632 836 q 644 782 646 801 q 616 726 642 753 q 539 697 590 699 q 446 724 476 694 q 418 787 415 754 q 447 842 421 818 q 521 874 474 867 l 522 874 z "},"":{"ha":739,"x_min":-4,"x_max":738,"o":"m 738 -76 q 715 -139 738 -115 q 663 -162 692 -162 q 624 -147 642 -162 q 600 -96 607 -132 q 592 -65 599 -93 q 578 7 586 -36 q 558 103 569 50 q 538 209 547 156 q 519 311 528 263 q 504 394 510 360 l 343 394 l 285 51 q 254 -28 274 10 q 210 -94 235 -65 q 155 -138 185 -122 q 94 -154 125 -154 q 44 -142 63 -154 q 14 -110 25 -129 q -1 -67 3 -90 q -4 -24 -4 -44 q -3 -10 -4 -17 q -1 1 -1 -4 l -1 10 q -4 32 -4 15 q 4 144 -4 72 q 28 303 13 215 q 67 490 44 392 q 119 683 90 589 q 183 863 147 778 q 257 1007 218 947 q 317 1060 281 1043 q 389 1078 354 1078 q 460 1058 428 1078 q 515 1004 492 1039 q 571 870 544 953 q 619 688 597 788 q 660 481 642 589 q 694 269 679 372 q 720 77 710 167 q 738 -74 731 -12 l 738 -76 m 424 785 l 411 717 q 390 628 400 671 q 372 538 381 586 q 406 540 389 539 q 439 540 424 540 l 474 540 q 481 540 476 540 q 493 539 486 540 q 460 667 476 606 q 426 783 443 729 l 424 785 m 463 1122 q 442 1130 451 1126 q 421 1136 432 1133 q 353 1160 386 1147 q 269 1200 319 1172 q 230 1243 238 1214 q 233 1299 222 1272 q 272 1342 244 1326 q 335 1347 299 1358 l 340 1344 q 376 1318 361 1329 q 408 1294 390 1307 q 452 1264 425 1281 q 526 1222 479 1247 q 536 1190 536 1210 q 527 1152 536 1169 q 501 1124 518 1135 q 463 1122 485 1114 z "},"":{"ha":739,"x_min":-4,"x_max":738,"o":"m 738 -76 q 715 -139 738 -115 q 663 -162 692 -162 q 624 -147 642 -162 q 600 -96 607 -132 q 592 -65 599 -93 q 578 7 586 -36 q 558 103 569 50 q 538 209 547 156 q 519 311 528 263 q 504 394 510 360 l 343 394 l 285 51 q 254 -28 274 10 q 210 -94 235 -65 q 155 -138 185 -122 q 94 -154 125 -154 q 44 -142 63 -154 q 14 -110 25 -129 q -1 -67 3 -90 q -4 -24 -4 -44 q -3 -10 -4 -17 q -1 1 -1 -4 l -1 10 q -4 32 -4 15 q 4 144 -4 72 q 28 303 13 215 q 67 490 44 392 q 119 683 90 589 q 183 863 147 778 q 257 1007 218 947 q 317 1060 281 1043 q 389 1078 354 1078 q 460 1058 428 1078 q 515 1004 492 1039 q 571 870 544 953 q 619 688 597 788 q 660 481 642 589 q 694 269 679 372 q 720 77 710 167 q 738 -74 731 -12 l 738 -76 m 424 785 l 411 717 q 390 628 400 671 q 372 538 381 586 q 406 540 389 539 q 439 540 424 540 l 474 540 q 481 540 476 540 q 493 539 486 540 q 460 667 476 606 q 426 783 443 729 l 424 785 m 276 1122 q 238 1124 254 1114 q 212 1152 221 1135 q 202 1190 203 1169 q 213 1222 201 1210 q 287 1264 260 1247 q 331 1294 314 1281 q 363 1318 349 1307 q 399 1344 378 1329 l 404 1347 q 467 1342 440 1358 q 506 1299 494 1326 q 509 1243 517 1272 q 469 1200 501 1214 q 386 1160 419 1172 q 318 1136 353 1147 q 297 1130 307 1133 q 276 1122 288 1126 z "},"":{"ha":739,"x_min":-4,"x_max":738,"o":"m 738 -76 q 715 -139 738 -115 q 663 -162 692 -162 q 624 -147 642 -162 q 600 -96 607 -132 q 592 -65 599 -93 q 578 7 586 -36 q 558 103 569 50 q 538 209 547 156 q 519 311 528 263 q 504 394 510 360 l 343 394 l 285 51 q 254 -28 274 10 q 210 -94 235 -65 q 155 -138 185 -122 q 94 -154 125 -154 q 44 -142 63 -154 q 14 -110 25 -129 q -1 -67 3 -90 q -4 -24 -4 -44 q -3 -10 -4 -17 q -1 1 -1 -4 l -1 10 q -4 32 -4 15 q 4 144 -4 72 q 28 303 13 215 q 67 490 44 392 q 119 683 90 589 q 183 863 147 778 q 257 1007 218 947 q 317 1060 281 1043 q 389 1078 354 1078 q 460 1058 428 1078 q 515 1004 492 1039 q 571 870 544 953 q 619 688 597 788 q 660 481 642 589 q 694 269 679 372 q 720 77 710 167 q 738 -74 731 -12 l 738 -76 m 424 785 l 411 717 q 390 628 400 671 q 372 538 381 586 q 406 540 389 539 q 439 540 424 540 l 474 540 q 481 540 476 540 q 493 539 486 540 q 460 667 476 606 q 426 783 443 729 l 424 785 m 472 1150 q 452 1162 461 1157 q 433 1173 443 1167 q 413 1187 424 1179 q 385 1208 401 1194 q 313 1171 343 1185 q 251 1144 283 1157 l 213 1126 q 175 1126 192 1118 q 149 1151 158 1135 q 140 1186 140 1167 q 150 1219 139 1206 q 185 1244 164 1228 q 233 1279 207 1260 q 285 1319 258 1299 q 336 1358 313 1340 q 382 1387 356 1381 q 431 1378 408 1393 l 447 1358 q 485 1318 465 1339 q 526 1278 506 1297 q 565 1242 546 1258 q 600 1215 583 1225 q 601 1182 607 1203 q 582 1144 596 1161 q 549 1120 568 1128 q 511 1128 531 1113 l 513 1128 l 472 1150 z "},"":{"ha":739,"x_min":-4,"x_max":738,"o":"m 738 -76 q 715 -139 738 -115 q 663 -162 692 -162 q 624 -147 642 -162 q 600 -96 607 -132 q 592 -65 599 -93 q 578 7 586 -36 q 558 103 569 50 q 538 209 547 156 q 519 311 528 263 q 504 394 510 360 l 343 394 l 285 51 q 254 -28 274 10 q 210 -94 235 -65 q 155 -138 185 -122 q 94 -154 125 -154 q 44 -142 63 -154 q 14 -110 25 -129 q -1 -67 3 -90 q -4 -24 -4 -44 q -3 -10 -4 -17 q -1 1 -1 -4 l -1 10 q -4 32 -4 15 q 4 144 -4 72 q 28 303 13 215 q 67 490 44 392 q 119 683 90 589 q 183 863 147 778 q 257 1007 218 947 q 317 1060 281 1043 q 389 1078 354 1078 q 460 1058 428 1078 q 515 1004 492 1039 q 571 870 544 953 q 619 688 597 788 q 660 481 642 589 q 694 269 679 372 q 720 77 710 167 q 738 -74 731 -12 l 738 -76 m 424 785 l 411 717 q 390 628 400 671 q 372 538 381 586 q 406 540 389 539 q 439 540 424 540 l 474 540 q 481 540 476 540 q 493 539 486 540 q 460 667 476 606 q 426 783 443 729 l 424 785 m 361 1142 q 338 1152 346 1149 q 315 1160 331 1156 q 303 1156 304 1158 q 301 1151 301 1154 l 304 1147 q 292 1124 304 1132 q 260 1115 279 1115 q 210 1163 203 1115 q 217 1192 210 1174 q 240 1229 225 1211 q 275 1260 254 1247 q 324 1274 296 1274 q 367 1267 347 1274 q 407 1251 388 1260 l 426 1240 q 442 1253 433 1247 q 465 1258 450 1258 q 514 1237 497 1258 q 528 1194 531 1215 q 508 1144 528 1169 q 443 1118 488 1118 q 390 1128 411 1118 q 360 1143 368 1138 l 361 1142 z "},"":{"ha":739,"x_min":-4,"x_max":738,"o":"m 738 -76 q 715 -139 738 -115 q 663 -162 692 -162 q 624 -147 642 -162 q 600 -96 607 -132 q 592 -65 599 -93 q 578 7 586 -36 q 558 103 569 50 q 538 209 547 156 q 519 311 528 263 q 504 394 510 360 l 343 394 l 285 51 q 254 -28 274 10 q 210 -94 235 -65 q 155 -138 185 -122 q 94 -154 125 -154 q 44 -142 63 -154 q 14 -110 25 -129 q -1 -67 3 -90 q -4 -24 -4 -44 q -3 -10 -4 -17 q -1 1 -1 -4 l -1 10 q -4 32 -4 15 q 4 144 -4 72 q 28 303 13 215 q 67 490 44 392 q 119 683 90 589 q 183 863 147 778 q 257 1007 218 947 q 317 1060 281 1043 q 389 1078 354 1078 q 460 1058 428 1078 q 515 1004 492 1039 q 571 870 544 953 q 619 688 597 788 q 660 481 642 589 q 694 269 679 372 q 720 77 710 167 q 738 -74 731 -12 l 738 -76 m 424 785 l 411 717 q 390 628 400 671 q 372 538 381 586 q 406 540 389 539 q 439 540 424 540 l 474 540 q 481 540 476 540 q 493 539 486 540 q 460 667 476 606 q 426 783 443 729 l 424 785 m 271 1126 q 204 1155 222 1126 q 196 1217 186 1183 q 224 1267 201 1244 q 286 1285 247 1289 q 349 1254 331 1282 q 360 1197 367 1226 q 330 1149 353 1169 q 271 1126 307 1128 m 457 1122 q 390 1151 408 1122 q 382 1213 372 1179 q 410 1263 388 1240 q 472 1281 433 1285 q 535 1250 517 1278 q 546 1193 553 1222 q 516 1144 539 1165 q 457 1122 493 1124 z "},"":{"ha":739,"x_min":-4,"x_max":738,"o":"m 738 -76 q 715 -139 738 -115 q 663 -162 692 -162 q 624 -147 642 -162 q 600 -96 607 -132 q 592 -65 599 -93 q 578 7 586 -36 q 558 103 569 50 q 538 209 547 156 q 519 311 528 263 q 504 394 510 360 l 343 394 l 285 51 q 254 -28 274 10 q 210 -94 235 -65 q 155 -138 185 -122 q 94 -154 125 -154 q 44 -142 63 -154 q 14 -110 25 -129 q -1 -67 3 -90 q -4 -24 -4 -44 q -3 -10 -4 -17 q -1 1 -1 -4 l -1 10 q -4 32 -4 15 q 4 144 -4 72 q 28 303 13 215 q 67 490 44 392 q 119 683 90 589 q 183 863 147 778 q 257 1007 218 947 q 317 1060 281 1043 q 389 1078 354 1078 q 460 1058 428 1078 q 515 1004 492 1039 q 571 870 544 953 q 619 688 597 788 q 660 481 642 589 q 694 269 679 372 q 720 77 710 167 q 738 -74 731 -12 l 738 -76 m 424 785 l 411 717 q 390 628 400 671 q 372 538 381 586 q 406 540 389 539 q 439 540 424 540 l 474 540 q 481 540 476 540 q 493 539 486 540 q 460 667 476 606 q 426 783 443 729 l 424 785 m 368 1122 q 313 1133 336 1122 q 276 1162 290 1144 q 254 1201 261 1179 q 249 1247 247 1224 q 283 1326 251 1292 q 382 1364 315 1361 q 465 1324 439 1361 q 489 1243 492 1286 q 456 1160 486 1197 q 368 1122 425 1122 m 374 1226 q 373 1236 374 1231 q 374 1253 372 1242 q 351 1237 356 1246 q 371 1228 347 1228 q 374 1226 374 1228 z "},"":{"ha":1179,"x_min":-4,"x_max":1168,"o":"m 738 -76 q 715 -139 738 -115 q 663 -162 692 -162 q 624 -147 642 -162 q 600 -96 607 -132 q 592 -65 599 -93 q 578 7 586 -36 q 558 103 569 50 q 538 209 547 156 q 519 311 528 263 q 504 394 510 360 l 343 394 l 285 51 q 254 -28 274 10 q 210 -94 235 -65 q 155 -138 185 -122 q 94 -154 125 -154 q 44 -142 63 -154 q 14 -110 25 -129 q -1 -67 3 -90 q -4 -24 -4 -44 q -3 -10 -4 -17 q -1 1 -1 -4 l -1 10 q -4 32 -4 15 q 4 144 -4 72 q 28 303 13 215 q 67 490 44 392 q 119 683 90 589 q 183 863 147 778 q 257 1007 218 947 q 317 1060 281 1043 q 389 1078 354 1078 q 460 1058 428 1078 q 515 1004 492 1039 q 571 870 544 953 q 619 688 597 788 q 660 481 642 589 q 694 269 679 372 q 720 77 710 167 q 738 -74 731 -12 l 738 -76 m 424 785 l 411 717 q 390 628 400 671 q 372 538 381 586 q 406 540 389 539 q 439 540 424 540 l 474 540 q 481 540 476 540 q 493 539 486 540 q 460 667 476 606 q 426 783 443 729 l 424 785 m 661 -128 q 624 -97 640 -115 q 598 -47 608 -78 q 583 28 588 -17 q 578 135 578 72 q 581 226 578 181 q 588 318 585 272 l 594 440 q 619 707 603 576 q 665 946 636 838 q 690 985 672 965 q 729 1020 707 1004 q 776 1047 751 1036 q 824 1063 800 1058 l 821 1061 q 924 1080 872 1076 q 1022 1083 976 1083 q 1069 1081 1050 1083 q 1104 1072 1089 1079 l 1101 1074 q 1149 1042 1129 1063 q 1168 999 1168 1021 q 1150 965 1168 982 q 1089 944 1132 949 l 928 928 q 912 925 922 926 q 894 924 901 924 l 901 854 q 907 727 908 792 q 907 582 906 663 l 949 582 q 1093 553 1046 582 q 1140 490 1140 524 q 1115 456 1140 469 q 1051 435 1089 443 q 972 425 1014 428 q 899 421 931 422 l 896 346 q 878 167 890 258 q 851 -1 867 76 l 851 -6 l 885 1 q 985 26 929 13 q 1093 40 1040 40 q 1144 29 1128 40 q 1160 0 1160 18 q 1139 -51 1160 -24 q 1074 -101 1118 -78 q 963 -139 1031 -124 q 799 -154 894 -154 q 722 -149 757 -154 q 663 -129 686 -144 l 661 -128 z "},"":{"ha":713,"x_min":7,"x_max":710,"o":"m 385 -160 q 201 -112 274 -160 q 85 12 129 -64 q 24 181 42 88 q 7 367 7 275 q 20 516 7 436 q 60 675 33 596 q 127 827 88 754 q 221 956 167 900 q 343 1044 275 1011 q 493 1078 411 1078 q 572 1068 533 1078 q 642 1038 611 1058 q 691 984 672 1017 q 710 906 710 951 q 692 832 710 857 q 644 807 674 807 q 597 823 617 807 q 576 857 576 839 q 577 869 576 864 q 578 879 578 874 q 568 918 578 903 q 490 881 536 915 q 400 769 443 846 q 326 569 357 693 q 296 265 296 446 q 302 153 296 204 q 323 64 308 101 q 359 6 338 26 q 413 -15 381 -15 q 449 -6 429 -14 q 490 20 469 3 q 530 65 511 38 q 560 129 549 92 q 581 164 567 154 q 613 174 596 174 q 661 158 640 174 q 682 126 682 142 q 659 28 678 78 q 604 -62 640 -21 q 514 -130 568 -103 q 385 -160 460 -157 m 433 -146 l 428 -218 q 408 -301 425 -268 q 363 -355 390 -335 q 304 -384 336 -375 q 240 -393 272 -393 q 163 -378 196 -393 q 132 -359 146 -372 q 108 -329 118 -346 q 92 -295 97 -312 q 89 -261 88 -278 q 93 -240 89 -250 q 104 -222 97 -231 q 135 -204 118 -210 q 165 -202 151 -199 q 185 -217 179 -206 q 183 -250 192 -229 q 184 -288 176 -267 q 211 -317 192 -310 q 251 -293 229 -322 q 278 -197 272 -264 l 281 -150 l 433 -146 z "},"":{"ha":621,"x_min":22,"x_max":613,"o":"m 106 -128 q 69 -97 85 -115 q 42 -47 53 -78 q 27 28 32 -17 q 22 135 22 72 q 26 226 22 181 q 32 318 29 272 l 39 440 q 64 707 47 576 q 110 946 81 838 q 134 985 117 965 q 174 1020 151 1004 q 220 1047 196 1036 q 268 1063 244 1058 l 265 1061 q 369 1080 317 1076 q 467 1083 421 1083 q 514 1081 494 1083 q 549 1072 533 1079 l 546 1074 q 593 1042 574 1063 q 613 999 613 1021 q 594 965 613 982 q 533 944 576 949 l 372 928 q 356 925 367 926 q 339 924 346 924 l 346 854 q 351 727 353 792 q 351 582 350 663 l 393 582 q 538 553 490 582 q 585 490 585 524 q 559 456 585 469 q 496 435 533 443 q 417 425 458 428 q 343 421 375 422 l 340 346 q 323 167 335 258 q 296 -1 311 76 l 296 -6 l 329 1 q 429 26 374 13 q 538 40 485 40 q 588 29 572 40 q 604 0 604 18 q 583 -51 604 -24 q 519 -101 563 -78 q 407 -139 475 -124 q 243 -154 339 -154 q 166 -149 201 -154 q 107 -129 131 -144 l 106 -128 m 403 1122 q 382 1130 392 1126 q 361 1136 372 1133 q 293 1160 326 1147 q 210 1200 260 1172 q 170 1243 178 1214 q 174 1299 163 1272 q 212 1342 185 1326 q 275 1347 239 1358 l 281 1344 q 316 1318 301 1329 q 348 1294 331 1307 q 392 1264 365 1281 q 467 1222 419 1247 q 476 1190 476 1210 q 467 1152 476 1169 q 442 1124 458 1135 q 403 1122 425 1114 z "},"":{"ha":621,"x_min":22,"x_max":613,"o":"m 106 -128 q 69 -97 85 -115 q 42 -47 53 -78 q 27 28 32 -17 q 22 135 22 72 q 26 226 22 181 q 32 318 29 272 l 39 440 q 64 707 47 576 q 110 946 81 838 q 134 985 117 965 q 174 1020 151 1004 q 220 1047 196 1036 q 268 1063 244 1058 l 265 1061 q 369 1080 317 1076 q 467 1083 421 1083 q 514 1081 494 1083 q 549 1072 533 1079 l 546 1074 q 593 1042 574 1063 q 613 999 613 1021 q 594 965 613 982 q 533 944 576 949 l 372 928 q 356 925 367 926 q 339 924 346 924 l 346 854 q 351 727 353 792 q 351 582 350 663 l 393 582 q 538 553 490 582 q 585 490 585 524 q 559 456 585 469 q 496 435 533 443 q 417 425 458 428 q 343 421 375 422 l 340 346 q 323 167 335 258 q 296 -1 311 76 l 296 -6 l 329 1 q 429 26 374 13 q 538 40 485 40 q 588 29 572 40 q 604 0 604 18 q 583 -51 604 -24 q 519 -101 563 -78 q 407 -139 475 -124 q 243 -154 339 -154 q 166 -149 201 -154 q 107 -129 131 -144 l 106 -128 m 217 1117 q 178 1119 194 1108 q 152 1147 161 1129 q 142 1184 143 1164 q 153 1217 142 1204 q 227 1258 200 1242 q 272 1288 254 1275 q 303 1313 289 1301 q 339 1339 318 1324 l 344 1342 q 408 1337 381 1353 q 446 1294 435 1321 q 449 1238 457 1267 q 410 1194 442 1208 q 326 1154 360 1167 q 258 1131 293 1142 q 238 1124 247 1128 q 217 1117 228 1121 z "},"":{"ha":621,"x_min":22,"x_max":613,"o":"m 106 -128 q 69 -97 85 -115 q 42 -47 53 -78 q 27 28 32 -17 q 22 135 22 72 q 26 226 22 181 q 32 318 29 272 l 39 440 q 64 707 47 576 q 110 946 81 838 q 134 985 117 965 q 174 1020 151 1004 q 220 1047 196 1036 q 268 1063 244 1058 l 265 1061 q 369 1080 317 1076 q 467 1083 421 1083 q 514 1081 494 1083 q 549 1072 533 1079 l 546 1074 q 593 1042 574 1063 q 613 999 613 1021 q 594 965 613 982 q 533 944 576 949 l 372 928 q 356 925 367 926 q 339 924 346 924 l 346 854 q 351 727 353 792 q 351 582 350 663 l 393 582 q 538 553 490 582 q 585 490 585 524 q 559 456 585 469 q 496 435 533 443 q 417 425 458 428 q 343 421 375 422 l 340 346 q 323 167 335 258 q 296 -1 311 76 l 296 -6 l 329 1 q 429 26 374 13 q 538 40 485 40 q 588 29 572 40 q 604 0 604 18 q 583 -51 604 -24 q 519 -101 563 -78 q 407 -139 475 -124 q 243 -154 339 -154 q 166 -149 201 -154 q 107 -129 131 -144 l 106 -128 m 414 1160 q 394 1172 403 1167 q 375 1183 385 1176 q 354 1197 365 1189 q 326 1218 343 1204 q 255 1181 285 1194 q 193 1154 225 1167 l 154 1136 q 117 1136 133 1128 q 91 1160 100 1144 q 81 1196 82 1176 q 92 1229 81 1215 q 127 1253 106 1238 q 174 1289 149 1269 q 227 1329 200 1308 q 278 1368 254 1350 q 324 1397 297 1390 q 372 1388 350 1403 l 389 1368 q 427 1328 407 1349 q 467 1288 447 1307 q 506 1251 488 1268 q 542 1225 525 1235 q 543 1192 549 1213 q 524 1154 538 1171 q 491 1130 510 1138 q 453 1138 472 1122 l 454 1138 l 414 1160 z "},"":{"ha":621,"x_min":22,"x_max":613,"o":"m 106 -128 q 69 -97 85 -115 q 42 -47 53 -78 q 27 28 32 -17 q 22 135 22 72 q 26 226 22 181 q 32 318 29 272 l 39 440 q 64 707 47 576 q 110 946 81 838 q 134 985 117 965 q 174 1020 151 1004 q 220 1047 196 1036 q 268 1063 244 1058 l 265 1061 q 369 1080 317 1076 q 467 1083 421 1083 q 514 1081 494 1083 q 549 1072 533 1079 l 546 1074 q 593 1042 574 1063 q 613 999 613 1021 q 594 965 613 982 q 533 944 576 949 l 372 928 q 356 925 367 926 q 339 924 346 924 l 346 854 q 351 727 353 792 q 351 582 350 663 l 393 582 q 538 553 490 582 q 585 490 585 524 q 559 456 585 469 q 496 435 533 443 q 417 425 458 428 q 343 421 375 422 l 340 346 q 323 167 335 258 q 296 -1 311 76 l 296 -6 l 329 1 q 429 26 374 13 q 538 40 485 40 q 588 29 572 40 q 604 0 604 18 q 583 -51 604 -24 q 519 -101 563 -78 q 407 -139 475 -124 q 243 -154 339 -154 q 166 -149 201 -154 q 107 -129 131 -144 l 106 -128 m 213 1118 q 146 1147 164 1118 q 138 1208 128 1175 q 166 1258 143 1236 q 228 1276 189 1281 q 290 1246 272 1274 q 301 1189 308 1218 q 272 1140 294 1161 q 213 1118 249 1119 m 399 1114 q 332 1142 350 1114 q 324 1204 314 1171 q 352 1254 329 1232 q 414 1272 375 1276 q 476 1242 458 1269 q 488 1185 494 1214 q 458 1136 481 1157 q 399 1114 435 1115 z "},"":{"ha":467,"x_min":-12,"x_max":525,"o":"m 111 -168 q 70 -167 90 -168 q 33 -165 50 -167 q -2 -146 8 -165 q -11 -103 -12 -126 q 1 -58 -10 -79 q 29 -37 11 -37 q 58 -37 44 -39 q 89 -32 72 -35 l 88 -33 q 92 -31 90 -32 q 96 -29 94 -29 q 76 107 82 24 q 79 321 71 190 q 78 342 79 332 q 78 363 78 351 l 82 404 q 95 547 88 478 q 113 690 103 617 l 118 761 q 126 837 122 801 q 138 907 131 872 q 104 904 118 907 q 37 913 57 897 q 18 952 17 929 q 39 997 19 975 q 89 1028 58 1019 q 231 1060 151 1043 q 389 1078 310 1078 q 412 1077 403 1078 q 429 1074 421 1076 q 447 1067 438 1071 q 468 1057 456 1063 q 509 1026 493 1043 q 525 994 525 1010 q 505 964 525 978 q 438 944 485 950 l 388 938 q 397 864 393 907 q 401 756 400 821 q 399 603 401 692 q 390 393 396 514 l 388 344 l 385 299 q 372 128 379 207 q 357 4 364 50 l 372 4 q 432 -3 414 7 q 450 -32 450 -14 q 435 -72 450 -50 q 396 -112 419 -93 q 372 -129 383 -124 q 335 -140 361 -135 q 219 -162 278 -156 q 111 -168 160 -168 m 326 1118 q 306 1126 315 1122 q 285 1132 296 1129 q 217 1156 250 1143 q 133 1196 183 1168 q 94 1239 101 1210 q 97 1295 86 1268 q 135 1338 108 1322 q 199 1343 163 1354 l 204 1340 q 240 1314 225 1325 q 272 1290 254 1303 q 316 1260 289 1276 q 390 1218 343 1243 q 400 1185 400 1206 q 391 1148 400 1165 q 365 1120 382 1131 q 326 1118 349 1110 z "},"":{"ha":467,"x_min":-12,"x_max":525,"o":"m 111 -168 q 70 -167 90 -168 q 33 -165 50 -167 q -2 -146 8 -165 q -11 -103 -12 -126 q 1 -58 -10 -79 q 29 -37 11 -37 q 58 -37 44 -39 q 89 -32 72 -35 l 88 -33 q 92 -31 90 -32 q 96 -29 94 -29 q 76 107 82 24 q 79 321 71 190 q 78 342 79 332 q 78 363 78 351 l 82 404 q 95 547 88 478 q 113 690 103 617 l 118 761 q 126 837 122 801 q 138 907 131 872 q 104 904 118 907 q 37 913 57 897 q 18 952 17 929 q 39 997 19 975 q 89 1028 58 1019 q 231 1060 151 1043 q 389 1078 310 1078 q 412 1077 403 1078 q 429 1074 421 1076 q 447 1067 438 1071 q 468 1057 456 1063 q 509 1026 493 1043 q 525 994 525 1010 q 505 964 525 978 q 438 944 485 950 l 388 938 q 397 864 393 907 q 401 756 400 821 q 399 603 401 692 q 390 393 396 514 l 388 344 l 385 299 q 372 128 379 207 q 357 4 364 50 l 372 4 q 432 -3 414 7 q 450 -32 450 -14 q 435 -72 450 -50 q 396 -112 419 -93 q 372 -129 383 -124 q 335 -140 361 -135 q 219 -162 278 -156 q 111 -168 160 -168 m 140 1117 q 101 1119 118 1108 q 76 1147 85 1129 q 66 1184 67 1164 q 76 1217 65 1204 q 151 1258 124 1242 q 195 1288 178 1275 q 227 1313 213 1301 q 263 1339 242 1324 l 268 1342 q 331 1337 304 1353 q 369 1294 358 1321 q 373 1238 381 1267 q 333 1194 365 1208 q 250 1154 283 1167 q 182 1131 217 1142 q 161 1124 171 1128 q 140 1117 151 1121 z "},"":{"ha":467,"x_min":-12,"x_max":525,"o":"m 111 -168 q 70 -167 90 -168 q 33 -165 50 -167 q -2 -146 8 -165 q -11 -103 -12 -126 q 1 -58 -10 -79 q 29 -37 11 -37 q 58 -37 44 -39 q 89 -32 72 -35 l 88 -33 q 92 -31 90 -32 q 96 -29 94 -29 q 76 107 82 24 q 79 321 71 190 q 78 342 79 332 q 78 363 78 351 l 82 404 q 95 547 88 478 q 113 690 103 617 l 118 761 q 126 837 122 801 q 138 907 131 872 q 104 904 118 907 q 37 913 57 897 q 18 952 17 929 q 39 997 19 975 q 89 1028 58 1019 q 231 1060 151 1043 q 389 1078 310 1078 q 412 1077 403 1078 q 429 1074 421 1076 q 447 1067 438 1071 q 468 1057 456 1063 q 509 1026 493 1043 q 525 994 525 1010 q 505 964 525 978 q 438 944 485 950 l 388 938 q 397 864 393 907 q 401 756 400 821 q 399 603 401 692 q 390 393 396 514 l 388 344 l 385 299 q 372 128 379 207 q 357 4 364 50 l 372 4 q 432 -3 414 7 q 450 -32 450 -14 q 435 -72 450 -50 q 396 -112 419 -93 q 372 -129 383 -124 q 335 -140 361 -135 q 219 -162 278 -156 q 111 -168 160 -168 m 338 1140 q 317 1152 326 1147 q 299 1163 308 1157 q 278 1177 289 1169 q 250 1199 267 1185 q 178 1161 208 1175 q 117 1135 149 1147 l 78 1117 q 40 1117 57 1108 q 15 1141 24 1125 q 5 1176 6 1157 q 15 1210 4 1196 q 51 1234 29 1218 q 98 1269 72 1250 q 151 1310 124 1289 q 201 1349 178 1331 q 247 1377 221 1371 q 296 1368 274 1383 l 313 1349 q 351 1308 331 1329 q 391 1268 371 1288 q 430 1232 411 1249 q 465 1206 449 1215 q 467 1172 472 1193 q 447 1135 461 1151 q 415 1110 433 1118 q 376 1118 396 1103 l 378 1118 l 338 1140 z "},"":{"ha":467,"x_min":-12,"x_max":525,"o":"m 111 -168 q 70 -167 90 -168 q 33 -165 50 -167 q -2 -146 8 -165 q -11 -103 -12 -126 q 1 -58 -10 -79 q 29 -37 11 -37 q 58 -37 44 -39 q 89 -32 72 -35 l 88 -33 q 92 -31 90 -32 q 96 -29 94 -29 q 76 107 82 24 q 79 321 71 190 q 78 342 79 332 q 78 363 78 351 l 82 404 q 95 547 88 478 q 113 690 103 617 l 118 761 q 126 837 122 801 q 138 907 131 872 q 104 904 118 907 q 37 913 57 897 q 18 952 17 929 q 39 997 19 975 q 89 1028 58 1019 q 231 1060 151 1043 q 389 1078 310 1078 q 412 1077 403 1078 q 429 1074 421 1076 q 447 1067 438 1071 q 468 1057 456 1063 q 509 1026 493 1043 q 525 994 525 1010 q 505 964 525 978 q 438 944 485 950 l 388 938 q 397 864 393 907 q 401 756 400 821 q 399 603 401 692 q 390 393 396 514 l 388 344 l 385 299 q 372 128 379 207 q 357 4 364 50 l 372 4 q 432 -3 414 7 q 450 -32 450 -14 q 435 -72 450 -50 q 396 -112 419 -93 q 372 -129 383 -124 q 335 -140 361 -135 q 219 -162 278 -156 q 111 -168 160 -168 m 135 1131 q 68 1159 86 1131 q 60 1221 50 1188 q 88 1271 65 1249 q 150 1289 111 1293 q 213 1258 194 1286 q 224 1201 231 1231 q 194 1153 217 1174 q 135 1131 171 1132 m 321 1126 q 254 1155 272 1126 q 246 1217 236 1183 q 274 1267 251 1244 q 336 1285 297 1289 q 399 1254 381 1282 q 410 1197 417 1226 q 380 1149 403 1169 q 321 1126 357 1128 z "},"":{"ha":765,"x_min":-21,"x_max":771,"o":"m 360 -168 q 292 -147 319 -162 q 243 -104 264 -131 q 231 -124 238 -112 q 215 -144 225 -135 q 188 -161 204 -154 q 146 -168 171 -168 q 115 -162 131 -168 q 83 -143 99 -157 q 27 -44 47 -111 q 7 138 7 22 q 10 228 7 183 q 17 318 14 272 q 42 643 26 501 q 83 883 58 785 q 143 1031 107 981 q 229 1082 179 1082 q 285 1049 265 1082 q 317 974 306 1015 q 395 1051 347 1022 q 510 1079 443 1079 q 610 1051 571 1079 q 673 984 649 1024 q 712 903 697 944 q 740 833 726 861 q 763 724 756 786 q 771 588 771 661 q 761 418 771 506 q 731 247 751 331 q 679 87 710 163 q 606 -47 649 11 q 508 -137 563 -104 q 388 -171 454 -171 q 374 -171 381 -171 q 360 -168 367 -171 m 324 417 q 311 242 318 328 q 293 72 304 156 q 327 9 310 33 q 360 -15 344 -15 q 410 18 388 -15 q 450 106 432 51 q 481 231 468 160 q 501 376 493 301 q 514 523 510 450 q 518 656 518 596 q 515 762 518 713 q 504 848 511 811 q 487 906 497 885 q 463 928 476 928 q 421 903 442 928 q 383 842 400 878 q 353 767 365 807 q 335 699 340 728 q 333 560 335 632 q 324 417 331 488 m 17 286 q -8 305 1 288 q -19 344 -18 322 q -10 383 -21 365 q 28 404 1 401 l 24 404 q 115 416 76 413 q 199 419 153 419 q 239 419 218 419 q 285 418 260 419 q 331 396 315 417 q 344 350 346 375 q 326 303 343 325 q 274 276 308 281 q 243 274 260 275 q 206 274 226 274 q 149 275 178 274 q 94 278 121 276 q 47 283 68 281 q 15 286 26 285 l 17 286 z "},"":{"ha":728,"x_min":8,"x_max":747,"o":"m 124 994 q 190 1062 151 1046 q 261 1078 229 1078 q 353 1034 310 1078 q 418 924 396 990 q 447 835 432 886 q 478 724 463 783 q 509 601 493 665 q 540 474 525 538 q 567 765 551 629 q 599 999 583 900 q 631 1060 607 1043 q 682 1078 654 1078 q 729 1063 711 1078 q 740 1000 747 1047 q 726 867 733 932 q 713 724 719 801 q 698 551 706 647 q 682 324 690 454 q 679 295 681 321 q 676 231 678 269 q 673 147 675 193 q 670 58 671 101 q 669 -22 669 14 q 668 -74 668 -57 q 590 -149 664 -149 q 538 -135 561 -149 q 504 -85 514 -121 q 482 17 493 -33 q 461 118 471 67 q 441 201 450 160 q 422 283 432 243 l 411 340 q 376 506 393 422 q 333 685 358 590 q 331 540 335 619 q 322 365 328 460 l 318 315 q 319 292 318 304 q 321 267 321 279 q 303 85 313 165 q 289 -33 294 4 q 272 -81 285 -58 q 240 -119 258 -103 q 199 -146 221 -136 q 151 -156 176 -156 q 103 -142 126 -156 q 63 -106 79 -128 q 35 -51 47 -83 q 17 28 24 -18 q 10 139 11 75 q 13 288 8 203 q 15 322 14 303 q 17 363 15 342 q 19 403 18 383 q 22 439 21 422 q 34 590 26 511 q 54 744 42 669 q 83 883 67 818 q 124 994 100 949 m 289 854 q 288 849 289 851 q 289 844 288 847 l 289 849 q 291 850 292 850 q 290 851 290 850 l 289 854 m 356 1147 q 333 1158 340 1154 q 310 1165 325 1161 q 297 1162 299 1164 q 296 1157 296 1160 l 299 1153 q 286 1129 299 1138 q 254 1121 274 1121 q 204 1168 197 1121 q 212 1198 204 1179 q 234 1235 219 1217 q 269 1266 249 1253 q 318 1279 290 1279 q 362 1272 342 1279 q 401 1257 382 1265 l 421 1246 q 436 1258 428 1253 q 460 1264 444 1264 q 508 1242 492 1264 q 522 1200 525 1221 q 502 1149 522 1175 q 438 1124 482 1124 q 384 1133 406 1124 q 354 1149 363 1143 l 356 1147 z "},"":{"ha":725,"x_min":6,"x_max":722,"o":"m 399 -154 q 227 -115 300 -154 q 106 -10 154 -76 q 33 143 57 56 q 7 329 8 231 q 6 367 6 349 q 7 404 7 385 q 58 660 17 539 q 160 875 99 782 q 297 1023 221 968 q 454 1078 374 1078 q 587 1033 533 1078 q 671 910 640 989 q 712 723 701 832 q 717 485 722 614 q 714 449 714 467 q 711 411 714 431 q 690 220 706 319 q 640 38 674 121 q 547 -100 606 -46 q 399 -154 489 -154 m 589 479 q 590 657 594 576 q 572 795 585 738 q 540 885 560 853 q 499 917 521 917 q 424 872 457 917 q 365 756 390 828 q 324 592 340 683 q 300 410 307 501 q 297 252 294 328 q 309 118 299 176 q 340 24 319 60 q 390 -11 360 -11 q 451 13 425 -11 q 498 76 478 38 q 532 165 518 115 q 556 267 546 215 q 573 369 567 319 q 583 456 579 418 q 589 479 583 469 m 456 1122 q 435 1130 444 1126 q 414 1136 425 1133 q 346 1160 379 1147 q 263 1200 313 1172 q 223 1243 231 1214 q 226 1299 215 1272 q 265 1342 238 1326 q 328 1347 292 1358 l 333 1344 q 369 1318 354 1329 q 401 1294 383 1307 q 445 1264 418 1281 q 519 1222 472 1247 q 529 1190 529 1210 q 520 1152 529 1169 q 494 1124 511 1135 q 456 1122 478 1114 z "},"":{"ha":725,"x_min":6,"x_max":722,"o":"m 399 -154 q 227 -115 300 -154 q 106 -10 154 -76 q 33 143 57 56 q 7 329 8 231 q 6 367 6 349 q 7 404 7 385 q 58 660 17 539 q 160 875 99 782 q 297 1023 221 968 q 454 1078 374 1078 q 587 1033 533 1078 q 671 910 640 989 q 712 723 701 832 q 717 485 722 614 q 714 449 714 467 q 711 411 714 431 q 690 220 706 319 q 640 38 674 121 q 547 -100 606 -46 q 399 -154 489 -154 m 589 479 q 590 657 594 576 q 572 795 585 738 q 540 885 560 853 q 499 917 521 917 q 424 872 457 917 q 365 756 390 828 q 324 592 340 683 q 300 410 307 501 q 297 252 294 328 q 309 118 299 176 q 340 24 319 60 q 390 -11 360 -11 q 451 13 425 -11 q 498 76 478 38 q 532 165 518 115 q 556 267 546 215 q 573 369 567 319 q 583 456 579 418 q 589 479 583 469 m 269 1122 q 231 1124 247 1114 q 205 1152 214 1135 q 195 1190 196 1169 q 206 1222 194 1210 q 280 1264 253 1247 q 324 1294 307 1281 q 356 1318 342 1307 q 392 1344 371 1329 l 397 1347 q 460 1342 433 1358 q 499 1299 488 1326 q 502 1243 510 1272 q 463 1200 494 1214 q 379 1160 413 1172 q 311 1136 346 1147 q 290 1130 300 1133 q 269 1122 281 1126 z "},"":{"ha":725,"x_min":6,"x_max":722,"o":"m 399 -154 q 227 -115 300 -154 q 106 -10 154 -76 q 33 143 57 56 q 7 329 8 231 q 6 367 6 349 q 7 404 7 385 q 58 660 17 539 q 160 875 99 782 q 297 1023 221 968 q 454 1078 374 1078 q 587 1033 533 1078 q 671 910 640 989 q 712 723 701 832 q 717 485 722 614 q 714 449 714 467 q 711 411 714 431 q 690 220 706 319 q 640 38 674 121 q 547 -100 606 -46 q 399 -154 489 -154 m 589 479 q 590 657 594 576 q 572 795 585 738 q 540 885 560 853 q 499 917 521 917 q 424 872 457 917 q 365 756 390 828 q 324 592 340 683 q 300 410 307 501 q 297 252 294 328 q 309 118 299 176 q 340 24 319 60 q 390 -11 360 -11 q 451 13 425 -11 q 498 76 478 38 q 532 165 518 115 q 556 267 546 215 q 573 369 567 319 q 583 456 579 418 q 589 479 583 469 m 549 1143 q 528 1155 538 1150 q 510 1166 519 1160 q 489 1180 500 1172 q 461 1201 478 1188 q 390 1164 419 1178 q 328 1138 360 1150 l 289 1119 q 251 1119 268 1111 q 226 1144 235 1128 q 216 1179 217 1160 q 226 1213 215 1199 q 262 1237 240 1221 q 309 1272 283 1253 q 362 1313 335 1292 q 413 1351 389 1333 q 458 1380 432 1374 q 507 1371 485 1386 l 524 1351 q 562 1311 542 1332 q 602 1271 582 1290 q 641 1235 622 1251 q 676 1208 660 1218 q 678 1175 683 1196 q 658 1138 672 1154 q 626 1113 644 1121 q 588 1121 607 1106 l 589 1121 l 549 1143 z "},"":{"ha":725,"x_min":6,"x_max":722,"o":"m 399 -154 q 227 -115 300 -154 q 106 -10 154 -76 q 33 143 57 56 q 7 329 8 231 q 6 367 6 349 q 7 404 7 385 q 58 660 17 539 q 160 875 99 782 q 297 1023 221 968 q 454 1078 374 1078 q 587 1033 533 1078 q 671 910 640 989 q 712 723 701 832 q 717 485 722 614 q 714 449 714 467 q 711 411 714 431 q 690 220 706 319 q 640 38 674 121 q 547 -100 606 -46 q 399 -154 489 -154 m 589 479 q 590 657 594 576 q 572 795 585 738 q 540 885 560 853 q 499 917 521 917 q 424 872 457 917 q 365 756 390 828 q 324 592 340 683 q 300 410 307 501 q 297 252 294 328 q 309 118 299 176 q 340 24 319 60 q 390 -11 360 -11 q 451 13 425 -11 q 498 76 478 38 q 532 165 518 115 q 556 267 546 215 q 573 369 567 319 q 583 456 579 418 q 589 479 583 469 m 443 1153 q 420 1163 428 1160 q 397 1171 413 1167 q 385 1167 386 1169 q 383 1163 383 1165 l 386 1158 q 374 1135 386 1143 q 342 1126 361 1126 q 292 1174 285 1126 q 299 1203 292 1185 q 322 1240 307 1222 q 357 1272 336 1258 q 406 1285 378 1285 q 449 1278 429 1285 q 489 1263 469 1271 l 508 1251 q 524 1264 515 1258 q 547 1269 532 1269 q 596 1248 579 1269 q 610 1206 613 1226 q 590 1155 610 1181 q 525 1129 569 1129 q 472 1139 493 1129 q 442 1154 450 1149 l 443 1153 z "},"":{"ha":725,"x_min":6,"x_max":722,"o":"m 399 -154 q 227 -115 300 -154 q 106 -10 154 -76 q 33 143 57 56 q 7 329 8 231 q 6 367 6 349 q 7 404 7 385 q 58 660 17 539 q 160 875 99 782 q 297 1023 221 968 q 454 1078 374 1078 q 587 1033 533 1078 q 671 910 640 989 q 712 723 701 832 q 717 485 722 614 q 714 449 714 467 q 711 411 714 431 q 690 220 706 319 q 640 38 674 121 q 547 -100 606 -46 q 399 -154 489 -154 m 589 479 q 590 657 594 576 q 572 795 585 738 q 540 885 560 853 q 499 917 521 917 q 424 872 457 917 q 365 756 390 828 q 324 592 340 683 q 300 410 307 501 q 297 252 294 328 q 309 118 299 176 q 340 24 319 60 q 390 -11 360 -11 q 451 13 425 -11 q 498 76 478 38 q 532 165 518 115 q 556 267 546 215 q 573 369 567 319 q 583 456 579 418 q 589 479 583 469 m 353 1119 q 286 1148 304 1119 q 278 1210 268 1176 q 306 1260 283 1238 q 368 1278 329 1282 q 431 1247 413 1275 q 442 1190 449 1219 q 412 1142 435 1163 q 353 1119 389 1121 m 539 1115 q 472 1144 490 1115 q 464 1206 454 1172 q 492 1256 469 1233 q 554 1274 515 1278 q 617 1243 599 1271 q 628 1186 635 1215 q 598 1138 621 1158 q 539 1115 575 1117 z "},"":{"ha":725,"x_min":6,"x_max":746,"o":"m 399 -154 q 227 -115 300 -154 q 106 -10 154 -76 q 33 143 57 56 q 7 329 8 231 q 6 367 6 349 q 7 404 7 385 q 58 660 17 539 q 160 875 99 782 q 297 1023 221 968 q 454 1078 374 1078 q 587 1033 533 1078 q 671 910 640 989 q 712 723 701 832 q 717 485 722 614 q 714 449 714 467 q 711 411 714 431 q 690 220 706 319 q 640 38 674 121 q 547 -100 606 -46 q 399 -154 489 -154 m 589 479 q 590 657 594 576 q 572 795 585 738 q 540 885 560 853 q 499 917 521 917 q 424 872 457 917 q 365 756 390 828 q 324 592 340 683 q 300 410 307 501 q 297 252 294 328 q 309 118 299 176 q 340 24 319 60 q 390 -11 360 -11 q 451 13 425 -11 q 498 76 478 38 q 532 165 518 115 q 556 267 546 215 q 573 369 567 319 q 583 456 579 418 q 589 479 583 469 m 231 192 q 440 744 361 544 q 536 975 518 944 l 536 974 q 587 1028 554 1011 q 651 1046 619 1046 q 695 1038 675 1046 q 728 1014 715 1029 q 743 978 740 999 q 735 931 746 957 q 638 719 679 814 q 562 542 596 625 q 498 385 528 460 q 435 231 468 310 l 394 139 q 346 26 365 69 q 314 -44 326 -18 q 292 -83 301 -71 q 275 -103 283 -96 q 235 -121 260 -118 q 191 -112 211 -124 q 160 -76 171 -101 q 161 -11 150 -51 l 175 22 q 192 94 178 50 q 231 192 207 138 z "},"":{"ha":689,"x_min":3,"x_max":679,"o":"m 265 -165 q 155 -119 204 -157 q 72 -19 106 -82 q 20 130 38 43 q 6 322 3 217 q 10 432 3 375 q 22 584 14 507 q 42 733 31 661 q 69 867 54 804 q 103 977 85 931 q 144 1051 122 1024 q 190 1078 167 1078 q 272 1037 240 1076 q 313 940 304 997 q 321 843 318 897 q 324 731 324 789 q 322 616 324 674 q 315 511 319 558 q 311 388 310 436 l 310 306 q 308 185 308 243 q 309 84 307 128 q 317 14 311 40 q 335 -12 324 -12 q 394 20 368 -12 q 442 106 421 53 q 478 226 463 158 q 506 363 494 293 q 524 499 517 432 q 535 615 531 565 q 539 718 540 686 l 543 744 q 538 831 543 789 q 529 907 532 874 l 532 907 q 524 946 525 928 q 522 972 522 964 q 543 1036 522 1021 q 590 1051 564 1051 q 640 1017 622 1051 q 667 933 658 983 q 677 824 675 882 q 679 717 679 765 l 679 696 q 676 610 679 656 q 671 524 674 564 q 640 274 663 394 q 573 59 617 154 q 463 -97 529 -36 q 300 -167 396 -157 l 265 -165 m 438 1118 q 417 1126 426 1122 q 396 1132 407 1129 q 328 1156 361 1143 q 244 1196 294 1168 q 205 1239 213 1210 q 208 1295 197 1268 q 247 1338 219 1322 q 310 1343 274 1354 l 315 1340 q 351 1314 336 1325 q 383 1290 365 1303 q 427 1260 400 1276 q 501 1218 454 1243 q 511 1185 511 1206 q 502 1148 511 1165 q 476 1120 493 1131 q 438 1118 460 1110 z "},"":{"ha":689,"x_min":3,"x_max":679,"o":"m 265 -165 q 155 -119 204 -157 q 72 -19 106 -82 q 20 130 38 43 q 6 322 3 217 q 10 432 3 375 q 22 584 14 507 q 42 733 31 661 q 69 867 54 804 q 103 977 85 931 q 144 1051 122 1024 q 190 1078 167 1078 q 272 1037 240 1076 q 313 940 304 997 q 321 843 318 897 q 324 731 324 789 q 322 616 324 674 q 315 511 319 558 q 311 388 310 436 l 310 306 q 308 185 308 243 q 309 84 307 128 q 317 14 311 40 q 335 -12 324 -12 q 394 20 368 -12 q 442 106 421 53 q 478 226 463 158 q 506 363 494 293 q 524 499 517 432 q 535 615 531 565 q 539 718 540 686 l 543 744 q 538 831 543 789 q 529 907 532 874 l 532 907 q 524 946 525 928 q 522 972 522 964 q 543 1036 522 1021 q 590 1051 564 1051 q 640 1017 622 1051 q 667 933 658 983 q 677 824 675 882 q 679 717 679 765 l 679 696 q 676 610 679 656 q 671 524 674 564 q 640 274 663 394 q 573 59 617 154 q 463 -97 529 -36 q 300 -167 396 -157 l 265 -165 m 251 1115 q 213 1117 229 1107 q 187 1145 196 1128 q 177 1183 178 1163 q 188 1215 176 1203 q 262 1257 235 1240 q 306 1287 289 1274 q 338 1311 324 1300 q 374 1338 353 1322 l 379 1340 q 442 1335 415 1351 q 481 1292 469 1319 q 484 1236 492 1265 q 444 1193 476 1207 q 361 1153 394 1165 q 293 1129 328 1140 q 272 1123 282 1126 q 251 1115 263 1119 z "},"":{"ha":689,"x_min":3,"x_max":679,"o":"m 265 -165 q 155 -119 204 -157 q 72 -19 106 -82 q 20 130 38 43 q 6 322 3 217 q 10 432 3 375 q 22 584 14 507 q 42 733 31 661 q 69 867 54 804 q 103 977 85 931 q 144 1051 122 1024 q 190 1078 167 1078 q 272 1037 240 1076 q 313 940 304 997 q 321 843 318 897 q 324 731 324 789 q 322 616 324 674 q 315 511 319 558 q 311 388 310 436 l 310 306 q 308 185 308 243 q 309 84 307 128 q 317 14 311 40 q 335 -12 324 -12 q 394 20 368 -12 q 442 106 421 53 q 478 226 463 158 q 506 363 494 293 q 524 499 517 432 q 535 615 531 565 q 539 718 540 686 l 543 744 q 538 831 543 789 q 529 907 532 874 l 532 907 q 524 946 525 928 q 522 972 522 964 q 543 1036 522 1021 q 590 1051 564 1051 q 640 1017 622 1051 q 667 933 658 983 q 677 824 675 882 q 679 717 679 765 l 679 696 q 676 610 679 656 q 671 524 674 564 q 640 274 663 394 q 573 59 617 154 q 463 -97 529 -36 q 300 -167 396 -157 l 265 -165 m 503 1151 q 483 1163 492 1158 q 464 1174 474 1168 q 443 1188 454 1181 q 415 1210 432 1196 q 344 1172 374 1186 q 282 1146 314 1158 l 243 1128 q 206 1128 222 1119 q 180 1152 189 1136 q 170 1188 171 1168 q 181 1221 169 1207 q 216 1245 194 1229 q 263 1281 238 1261 q 316 1321 289 1300 q 367 1360 343 1342 q 413 1388 386 1382 q 461 1379 439 1394 l 478 1360 q 516 1319 496 1340 q 556 1279 536 1299 q 595 1243 576 1260 q 631 1217 614 1226 q 632 1183 638 1204 q 613 1146 626 1163 q 580 1122 599 1129 q 542 1129 561 1114 l 543 1129 l 503 1151 z "},"":{"ha":689,"x_min":3,"x_max":679,"o":"m 265 -165 q 155 -119 204 -157 q 72 -19 106 -82 q 20 130 38 43 q 6 322 3 217 q 10 432 3 375 q 22 584 14 507 q 42 733 31 661 q 69 867 54 804 q 103 977 85 931 q 144 1051 122 1024 q 190 1078 167 1078 q 272 1037 240 1076 q 313 940 304 997 q 321 843 318 897 q 324 731 324 789 q 322 616 324 674 q 315 511 319 558 q 311 388 310 436 l 310 306 q 308 185 308 243 q 309 84 307 128 q 317 14 311 40 q 335 -12 324 -12 q 394 20 368 -12 q 442 106 421 53 q 478 226 463 158 q 506 363 494 293 q 524 499 517 432 q 535 615 531 565 q 539 718 540 686 l 543 744 q 538 831 543 789 q 529 907 532 874 l 532 907 q 524 946 525 928 q 522 972 522 964 q 543 1036 522 1021 q 590 1051 564 1051 q 640 1017 622 1051 q 667 933 658 983 q 677 824 675 882 q 679 717 679 765 l 679 696 q 676 610 679 656 q 671 524 674 564 q 640 274 663 394 q 573 59 617 154 q 463 -97 529 -36 q 300 -167 396 -157 l 265 -165 m 324 1128 q 257 1156 275 1128 q 249 1218 239 1185 q 277 1268 254 1246 q 339 1286 300 1290 q 401 1256 383 1283 q 413 1199 419 1228 q 383 1150 406 1171 q 324 1128 360 1129 m 510 1124 q 443 1152 461 1124 q 435 1214 425 1181 q 463 1264 440 1242 q 525 1282 486 1286 q 588 1251 569 1279 q 599 1194 606 1224 q 569 1146 592 1167 q 510 1124 546 1125 z "},"":{"ha":656,"x_min":0,"x_max":649,"o":"m 8 972 q 17 1030 0 1007 q 58 1058 33 1053 q 110 1049 83 1064 q 149 994 136 1033 l 168 940 q 198 833 183 883 q 226 737 213 783 q 251 646 239 690 q 276 556 264 601 q 330 742 300 644 q 396 918 360 840 q 433 997 414 963 q 474 1053 451 1032 q 526 1078 497 1074 q 592 1071 554 1083 q 635 1008 622 1054 q 646 904 649 963 q 628 792 639 850 q 610 690 618 735 q 605 672 607 683 q 603 656 603 661 l 593 624 q 592 611 592 618 q 563 490 578 549 q 532 376 547 431 q 527 367 529 369 q 525 360 525 364 l 496 257 q 450 102 471 168 q 409 -12 429 36 q 368 -91 389 -60 q 321 -143 347 -122 l 324 -143 q 277 -169 300 -162 q 238 -176 254 -176 q 192 -164 213 -176 q 156 -131 171 -151 q 135 -85 142 -111 q 132 -32 129 -60 q 153 79 136 0 q 197 257 171 158 l 143 451 q 72 706 108 574 q 8 971 36 838 l 8 972 m 235 1114 q 196 1116 213 1106 q 170 1144 179 1126 q 160 1181 161 1161 q 171 1214 160 1201 q 245 1256 218 1239 q 290 1285 272 1272 q 322 1310 307 1299 q 357 1336 336 1321 l 363 1339 q 426 1334 399 1350 q 464 1291 453 1318 q 467 1235 475 1264 q 428 1192 460 1206 q 344 1151 378 1164 q 276 1128 311 1139 q 256 1122 265 1125 q 235 1114 246 1118 z "},"":{"ha":722,"x_min":0,"x_max":715,"o":"m 715 -74 q 696 -134 715 -111 q 649 -157 676 -157 q 610 -142 628 -157 q 583 -94 592 -128 q 576 -62 582 -90 q 563 7 571 -35 q 544 100 554 49 q 524 203 533 151 q 506 301 514 254 q 493 382 497 349 l 338 382 l 321 274 l 279 50 q 249 -28 268 8 q 205 -91 229 -64 q 152 -133 181 -118 q 93 -149 124 -149 q 39 -132 58 -149 q 11 -91 19 -115 q 1 -41 3 -67 q 0 1 0 -15 l 1 67 q 14 185 4 114 q 40 338 24 256 q 78 510 57 421 q 128 685 100 600 q 188 844 156 769 q 256 972 219 918 q 313 1024 279 1007 q 379 1040 346 1040 q 504 968 457 1040 q 556 839 531 918 q 602 664 581 760 q 642 463 624 568 q 676 259 661 358 q 700 74 690 160 q 715 -72 710 -12 l 715 -74 m 417 757 l 410 733 l 404 690 q 380 607 389 647 q 361 518 371 567 q 394 520 378 519 q 426 522 411 521 q 449 522 440 522 q 460 522 458 522 q 467 522 463 522 q 478 521 471 522 q 448 644 465 585 q 418 756 431 703 l 417 757 m 454 1088 q 433 1095 443 1092 q 413 1101 424 1099 q 344 1125 378 1113 q 261 1165 311 1138 q 222 1208 229 1179 q 225 1265 214 1238 q 263 1308 236 1292 q 326 1313 290 1324 l 332 1310 q 367 1283 353 1294 q 399 1259 382 1272 q 444 1229 417 1246 q 518 1188 471 1213 q 528 1155 528 1175 q 519 1117 528 1135 q 493 1090 510 1100 q 454 1088 476 1079 z "},"":{"ha":722,"x_min":0,"x_max":715,"o":"m 715 -74 q 696 -134 715 -111 q 649 -157 676 -157 q 610 -142 628 -157 q 583 -94 592 -128 q 576 -62 582 -90 q 563 7 571 -35 q 544 100 554 49 q 524 203 533 151 q 506 301 514 254 q 493 382 497 349 l 338 382 l 321 274 l 279 50 q 249 -28 268 8 q 205 -91 229 -64 q 152 -133 181 -118 q 93 -149 124 -149 q 39 -132 58 -149 q 11 -91 19 -115 q 1 -41 3 -67 q 0 1 0 -15 l 1 67 q 14 185 4 114 q 40 338 24 256 q 78 510 57 421 q 128 685 100 600 q 188 844 156 769 q 256 972 219 918 q 313 1024 279 1007 q 379 1040 346 1040 q 504 968 457 1040 q 556 839 531 918 q 602 664 581 760 q 642 463 624 568 q 676 259 661 358 q 700 74 690 160 q 715 -72 710 -12 l 715 -74 m 417 757 l 410 733 l 404 690 q 380 607 389 647 q 361 518 371 567 q 394 520 378 519 q 426 522 411 521 q 449 522 440 522 q 460 522 458 522 q 467 522 463 522 q 478 521 471 522 q 448 644 465 585 q 418 756 431 703 l 417 757 m 268 1088 q 229 1090 246 1079 q 203 1117 213 1100 q 194 1155 194 1135 q 204 1188 193 1175 q 278 1229 251 1213 q 323 1259 306 1246 q 355 1283 340 1272 q 390 1310 369 1294 l 396 1313 q 459 1308 432 1324 q 497 1265 486 1292 q 501 1208 508 1238 q 461 1165 493 1179 q 378 1125 411 1138 q 310 1101 344 1113 q 289 1095 299 1099 q 268 1088 279 1092 z "},"":{"ha":722,"x_min":0,"x_max":715,"o":"m 715 -74 q 696 -134 715 -111 q 649 -157 676 -157 q 610 -142 628 -157 q 583 -94 592 -128 q 576 -62 582 -90 q 563 7 571 -35 q 544 100 554 49 q 524 203 533 151 q 506 301 514 254 q 493 382 497 349 l 338 382 l 321 274 l 279 50 q 249 -28 268 8 q 205 -91 229 -64 q 152 -133 181 -118 q 93 -149 124 -149 q 39 -132 58 -149 q 11 -91 19 -115 q 1 -41 3 -67 q 0 1 0 -15 l 1 67 q 14 185 4 114 q 40 338 24 256 q 78 510 57 421 q 128 685 100 600 q 188 844 156 769 q 256 972 219 918 q 313 1024 279 1007 q 379 1040 346 1040 q 504 968 457 1040 q 556 839 531 918 q 602 664 581 760 q 642 463 624 568 q 676 259 661 358 q 700 74 690 160 q 715 -72 710 -12 l 715 -74 m 417 757 l 410 733 l 404 690 q 380 607 389 647 q 361 518 371 567 q 394 520 378 519 q 426 522 411 521 q 449 522 440 522 q 460 522 458 522 q 467 522 463 522 q 478 521 471 522 q 448 644 465 585 q 418 756 431 703 l 417 757 m 464 1104 q 444 1116 453 1111 q 425 1127 435 1121 q 404 1141 415 1133 q 376 1163 393 1149 q 305 1125 335 1139 q 243 1099 275 1111 l 204 1081 q 167 1081 183 1072 q 141 1105 150 1089 q 131 1140 132 1121 q 142 1174 131 1160 q 177 1198 156 1182 q 224 1233 199 1214 q 277 1274 250 1253 q 328 1313 304 1294 q 374 1341 347 1335 q 422 1332 400 1347 l 439 1313 q 477 1272 457 1293 q 517 1232 497 1251 q 556 1196 538 1213 q 592 1169 575 1179 q 593 1136 599 1157 q 574 1099 588 1115 q 541 1074 560 1082 q 503 1082 522 1067 l 504 1082 l 464 1104 z "},"":{"ha":722,"x_min":0,"x_max":715,"o":"m 715 -74 q 696 -134 715 -111 q 649 -157 676 -157 q 610 -142 628 -157 q 583 -94 592 -128 q 576 -62 582 -90 q 563 7 571 -35 q 544 100 554 49 q 524 203 533 151 q 506 301 514 254 q 493 382 497 349 l 338 382 l 321 274 l 279 50 q 249 -28 268 8 q 205 -91 229 -64 q 152 -133 181 -118 q 93 -149 124 -149 q 39 -132 58 -149 q 11 -91 19 -115 q 1 -41 3 -67 q 0 1 0 -15 l 1 67 q 14 185 4 114 q 40 338 24 256 q 78 510 57 421 q 128 685 100 600 q 188 844 156 769 q 256 972 219 918 q 313 1024 279 1007 q 379 1040 346 1040 q 504 968 457 1040 q 556 839 531 918 q 602 664 581 760 q 642 463 624 568 q 676 259 661 358 q 700 74 690 160 q 715 -72 710 -12 l 715 -74 m 417 757 l 410 733 l 404 690 q 380 607 389 647 q 361 518 371 567 q 394 520 378 519 q 426 522 411 521 q 449 522 440 522 q 460 522 458 522 q 467 522 463 522 q 478 521 471 522 q 448 644 465 585 q 418 756 431 703 l 417 757 m 353 1118 q 330 1128 338 1125 q 307 1136 322 1132 q 294 1133 296 1135 q 293 1128 293 1131 l 296 1124 q 283 1100 296 1108 q 251 1092 271 1092 q 201 1139 194 1092 q 209 1169 201 1150 q 231 1206 217 1188 q 267 1237 246 1224 q 315 1250 288 1250 q 359 1243 339 1250 q 399 1228 379 1236 l 418 1217 q 433 1229 425 1224 q 457 1235 442 1235 q 506 1213 489 1235 q 519 1171 522 1192 q 499 1120 519 1146 q 435 1094 479 1094 q 381 1104 403 1094 q 351 1119 360 1114 l 353 1118 z "},"":{"ha":722,"x_min":0,"x_max":715,"o":"m 715 -74 q 696 -134 715 -111 q 649 -157 676 -157 q 610 -142 628 -157 q 583 -94 592 -128 q 576 -62 582 -90 q 563 7 571 -35 q 544 100 554 49 q 524 203 533 151 q 506 301 514 254 q 493 382 497 349 l 338 382 l 321 274 l 279 50 q 249 -28 268 8 q 205 -91 229 -64 q 152 -133 181 -118 q 93 -149 124 -149 q 39 -132 58 -149 q 11 -91 19 -115 q 1 -41 3 -67 q 0 1 0 -15 l 1 67 q 14 185 4 114 q 40 338 24 256 q 78 510 57 421 q 128 685 100 600 q 188 844 156 769 q 256 972 219 918 q 313 1024 279 1007 q 379 1040 346 1040 q 504 968 457 1040 q 556 839 531 918 q 602 664 581 760 q 642 463 624 568 q 676 259 661 358 q 700 74 690 160 q 715 -72 710 -12 l 715 -74 m 417 757 l 410 733 l 404 690 q 380 607 389 647 q 361 518 371 567 q 394 520 378 519 q 426 522 411 521 q 449 522 440 522 q 460 522 458 522 q 467 522 463 522 q 478 521 471 522 q 448 644 465 585 q 418 756 431 703 l 417 757 m 263 1090 q 196 1119 214 1090 q 188 1181 178 1147 q 216 1231 193 1208 q 278 1249 239 1253 q 340 1218 322 1246 q 351 1161 358 1190 q 322 1113 344 1133 q 263 1090 299 1092 m 449 1086 q 382 1115 400 1086 q 374 1176 364 1143 q 402 1226 379 1204 q 464 1244 425 1249 q 526 1214 508 1242 q 538 1157 544 1186 q 508 1108 531 1129 q 449 1086 485 1088 z "},"":{"ha":722,"x_min":0,"x_max":715,"o":"m 715 -74 q 696 -134 715 -111 q 649 -157 676 -157 q 610 -142 628 -157 q 583 -94 592 -128 q 576 -62 582 -90 q 563 7 571 -35 q 544 100 554 49 q 524 203 533 151 q 506 301 514 254 q 493 382 497 349 l 338 382 l 321 274 l 279 50 q 249 -28 268 8 q 205 -91 229 -64 q 152 -133 181 -118 q 93 -149 124 -149 q 39 -132 58 -149 q 11 -91 19 -115 q 1 -41 3 -67 q 0 1 0 -15 l 1 67 q 14 185 4 114 q 40 338 24 256 q 78 510 57 421 q 128 685 100 600 q 188 844 156 769 q 256 972 219 918 q 313 1024 279 1007 q 379 1040 346 1040 q 504 968 457 1040 q 556 839 531 918 q 602 664 581 760 q 642 463 624 568 q 676 259 661 358 q 700 74 690 160 q 715 -72 710 -12 l 715 -74 m 417 757 l 410 733 l 404 690 q 380 607 389 647 q 361 518 371 567 q 394 520 378 519 q 426 522 411 521 q 449 522 440 522 q 460 522 458 522 q 467 522 463 522 q 478 521 471 522 q 448 644 465 585 q 418 756 431 703 l 417 757 m 390 1074 q 335 1085 358 1074 q 298 1113 313 1096 q 276 1153 283 1131 q 271 1199 269 1175 q 306 1278 274 1243 q 404 1315 338 1313 q 488 1275 461 1313 q 511 1194 514 1238 q 478 1111 508 1149 q 390 1074 447 1074 m 396 1178 q 395 1188 396 1182 q 396 1204 394 1193 q 374 1188 378 1197 q 393 1179 369 1179 q 396 1178 396 1179 z "},"":{"ha":1121,"x_min":0,"x_max":1110,"o":"m 715 -74 q 696 -134 715 -111 q 649 -157 676 -157 q 610 -142 628 -157 q 583 -94 592 -128 q 576 -62 582 -90 q 563 7 571 -35 q 544 100 554 49 q 524 203 533 151 q 506 301 514 254 q 493 382 497 349 l 338 382 l 321 274 l 279 50 q 249 -28 268 8 q 205 -91 229 -64 q 152 -133 181 -118 q 93 -149 124 -149 q 39 -132 58 -149 q 11 -91 19 -115 q 1 -41 3 -67 q 0 1 0 -15 l 1 67 q 14 185 4 114 q 40 338 24 256 q 78 510 57 421 q 128 685 100 600 q 188 844 156 769 q 256 972 219 918 q 313 1024 279 1007 q 379 1040 346 1040 q 504 968 457 1040 q 556 839 531 918 q 602 664 581 760 q 642 463 624 568 q 676 259 661 358 q 700 74 690 160 q 715 -72 710 -12 l 715 -74 m 417 757 l 410 733 l 404 690 q 380 607 389 647 q 361 518 371 567 q 394 520 378 519 q 426 522 411 521 q 449 522 440 522 q 460 522 458 522 q 467 522 463 522 q 478 521 471 522 q 448 644 465 585 q 418 756 431 703 l 417 757 m 635 -124 q 599 -88 614 -110 q 574 -34 583 -67 q 559 44 564 -1 q 554 150 554 89 q 556 228 554 190 q 561 307 557 267 l 572 426 q 595 683 581 557 q 642 913 610 808 q 665 949 649 931 q 703 984 682 968 q 747 1011 724 1000 q 790 1026 769 1022 l 789 1024 q 889 1042 839 1039 q 983 1046 939 1046 q 1029 1044 1010 1046 q 1063 1035 1049 1042 l 1061 1038 q 1098 1010 1086 1026 q 1110 974 1110 993 q 1094 935 1110 953 q 1051 911 1079 917 l 892 894 q 875 894 885 894 q 858 893 865 893 q 863 852 863 869 q 867 824 864 835 l 875 561 l 913 561 q 1053 534 1008 561 q 1099 474 1099 507 q 1074 442 1099 454 q 1012 422 1049 429 q 935 410 975 414 q 864 407 894 407 l 864 388 q 862 360 861 372 q 863 335 863 347 q 846 161 857 249 q 818 -1 835 74 l 818 -6 l 1031 39 q 1078 24 1060 39 q 1097 -19 1097 10 q 1090 -51 1097 -35 q 1063 -83 1082 -68 q 1018 -105 1050 -93 q 944 -126 986 -117 q 856 -142 903 -136 q 767 -149 808 -149 q 693 -144 726 -149 q 636 -126 660 -139 l 635 -124 z "},"":{"ha":688,"x_min":11,"x_max":690,"o":"m 381 -154 q 203 -109 274 -154 q 89 8 132 -64 q 28 169 46 79 q 11 346 11 258 q 24 490 11 413 q 62 645 36 568 q 126 794 88 722 q 216 920 164 865 q 334 1008 268 975 q 479 1040 400 1040 q 555 1031 517 1040 q 623 1003 593 1022 q 672 953 653 983 q 690 879 690 922 q 675 809 690 838 q 628 781 660 781 q 581 796 601 781 q 560 828 560 811 q 563 840 563 835 q 563 851 563 846 q 559 872 563 864 q 553 888 556 881 q 476 850 521 883 q 392 744 432 817 q 322 552 351 671 q 293 257 293 433 q 299 151 293 200 q 317 65 304 101 q 349 6 329 28 q 399 -15 369 -15 q 435 -8 414 -15 q 476 17 456 0 q 516 60 497 33 q 546 126 535 88 q 566 159 553 150 q 596 168 579 168 q 642 153 619 168 q 664 122 664 138 q 642 28 660 76 q 590 -60 624 -21 q 503 -126 556 -100 q 381 -154 451 -153 m 444 -119 l 439 -192 q 419 -275 436 -242 q 374 -328 401 -308 q 315 -358 347 -349 q 251 -367 283 -367 q 174 -351 207 -367 q 143 -333 157 -346 q 119 -303 129 -319 q 103 -269 108 -286 q 100 -235 99 -251 q 104 -214 100 -224 q 115 -196 108 -204 q 146 -178 129 -183 q 176 -176 163 -172 q 197 -191 190 -179 q 194 -224 203 -203 q 195 -262 188 -240 q 222 -290 203 -283 q 262 -267 240 -296 q 289 -171 283 -237 l 292 -124 l 444 -119 z "},"":{"ha":569,"x_min":6,"x_max":561,"o":"m 86 -124 q 50 -88 65 -110 q 25 -34 35 -67 q 10 44 15 -1 q 6 150 6 89 q 7 228 6 190 q 13 307 8 267 l 24 426 q 47 683 32 557 q 93 913 61 808 q 117 949 100 931 q 154 984 133 968 q 198 1011 175 1000 q 242 1026 221 1022 l 240 1024 q 340 1042 290 1039 q 435 1046 390 1046 q 481 1044 461 1046 q 514 1035 500 1042 l 513 1038 q 549 1010 538 1026 q 561 974 561 993 q 546 935 561 953 q 503 911 531 917 l 343 894 q 326 894 336 894 q 310 893 317 893 q 315 852 314 869 q 318 824 315 835 l 326 561 l 364 561 q 505 534 460 561 q 550 474 550 507 q 525 442 550 454 q 463 422 500 429 q 386 410 426 414 q 315 407 346 407 l 315 388 q 313 360 313 372 q 314 335 314 347 q 297 161 308 249 q 269 -1 286 74 l 269 -6 l 482 39 q 530 24 511 39 q 549 -19 549 10 q 541 -51 549 -35 q 514 -83 533 -68 q 469 -105 501 -93 q 396 -126 438 -117 q 307 -142 354 -136 q 218 -149 260 -149 q 144 -144 178 -149 q 88 -126 111 -139 l 86 -124 m 378 1088 q 357 1095 367 1092 q 336 1101 347 1099 q 268 1125 301 1113 q 185 1165 235 1138 q 145 1208 153 1179 q 149 1265 138 1238 q 187 1308 160 1292 q 250 1313 214 1324 l 256 1310 q 291 1283 276 1294 q 323 1259 306 1272 q 367 1229 340 1246 q 442 1188 394 1213 q 451 1155 451 1175 q 442 1117 451 1135 q 417 1090 433 1100 q 378 1088 400 1079 z "},"":{"ha":569,"x_min":6,"x_max":561,"o":"m 86 -124 q 50 -88 65 -110 q 25 -34 35 -67 q 10 44 15 -1 q 6 150 6 89 q 7 228 6 190 q 13 307 8 267 l 24 426 q 47 683 32 557 q 93 913 61 808 q 117 949 100 931 q 154 984 133 968 q 198 1011 175 1000 q 242 1026 221 1022 l 240 1024 q 340 1042 290 1039 q 435 1046 390 1046 q 481 1044 461 1046 q 514 1035 500 1042 l 513 1038 q 549 1010 538 1026 q 561 974 561 993 q 546 935 561 953 q 503 911 531 917 l 343 894 q 326 894 336 894 q 310 893 317 893 q 315 852 314 869 q 318 824 315 835 l 326 561 l 364 561 q 505 534 460 561 q 550 474 550 507 q 525 442 550 454 q 463 422 500 429 q 386 410 426 414 q 315 407 346 407 l 315 388 q 313 360 313 372 q 314 335 314 347 q 297 161 308 249 q 269 -1 286 74 l 269 -6 l 482 39 q 530 24 511 39 q 549 -19 549 10 q 541 -51 549 -35 q 514 -83 533 -68 q 469 -105 501 -93 q 396 -126 438 -117 q 307 -142 354 -136 q 218 -149 260 -149 q 144 -144 178 -149 q 88 -126 111 -139 l 86 -124 m 192 1088 q 153 1090 169 1079 q 127 1117 136 1100 q 117 1155 118 1135 q 128 1188 117 1175 q 202 1229 175 1213 q 247 1259 229 1246 q 278 1283 264 1272 q 314 1310 293 1294 l 319 1313 q 383 1308 356 1324 q 421 1265 410 1292 q 424 1208 432 1238 q 385 1165 417 1179 q 301 1125 335 1138 q 233 1101 268 1113 q 213 1095 222 1099 q 192 1088 203 1092 z "},"":{"ha":569,"x_min":6,"x_max":576,"o":"m 86 -124 q 50 -88 65 -110 q 25 -34 35 -67 q 10 44 15 -1 q 6 150 6 89 q 7 228 6 190 q 13 307 8 267 l 24 426 q 47 683 32 557 q 93 913 61 808 q 117 949 100 931 q 154 984 133 968 q 198 1011 175 1000 q 242 1026 221 1022 l 240 1024 q 340 1042 290 1039 q 435 1046 390 1046 q 481 1044 461 1046 q 514 1035 500 1042 l 513 1038 q 549 1010 538 1026 q 561 974 561 993 q 546 935 561 953 q 503 911 531 917 l 343 894 q 326 894 336 894 q 310 893 317 893 q 315 852 314 869 q 318 824 315 835 l 326 561 l 364 561 q 505 534 460 561 q 550 474 550 507 q 525 442 550 454 q 463 422 500 429 q 386 410 426 414 q 315 407 346 407 l 315 388 q 313 360 313 372 q 314 335 314 347 q 297 161 308 249 q 269 -1 286 74 l 269 -6 l 482 39 q 530 24 511 39 q 549 -19 549 10 q 541 -51 549 -35 q 514 -83 533 -68 q 469 -105 501 -93 q 396 -126 438 -117 q 307 -142 354 -136 q 218 -149 260 -149 q 144 -144 178 -149 q 88 -126 111 -139 l 86 -124 m 442 1121 q 422 1133 431 1128 q 403 1144 413 1138 q 382 1158 393 1150 q 354 1179 371 1165 q 283 1142 313 1156 q 221 1115 253 1128 l 182 1097 q 144 1097 161 1089 q 119 1122 128 1106 q 109 1157 110 1138 q 119 1190 108 1176 q 155 1215 133 1199 q 202 1250 176 1231 q 255 1290 228 1269 q 306 1329 282 1311 q 351 1358 325 1351 q 400 1349 378 1364 l 417 1329 q 455 1289 435 1310 q 495 1249 475 1268 q 534 1213 515 1229 q 569 1186 553 1196 q 571 1153 576 1174 q 551 1115 565 1132 q 519 1091 538 1099 q 481 1099 500 1083 l 482 1099 l 442 1121 z "},"":{"ha":569,"x_min":6,"x_max":561,"o":"m 86 -124 q 50 -88 65 -110 q 25 -34 35 -67 q 10 44 15 -1 q 6 150 6 89 q 7 228 6 190 q 13 307 8 267 l 24 426 q 47 683 32 557 q 93 913 61 808 q 117 949 100 931 q 154 984 133 968 q 198 1011 175 1000 q 242 1026 221 1022 l 240 1024 q 340 1042 290 1039 q 435 1046 390 1046 q 481 1044 461 1046 q 514 1035 500 1042 l 513 1038 q 549 1010 538 1026 q 561 974 561 993 q 546 935 561 953 q 503 911 531 917 l 343 894 q 326 894 336 894 q 310 893 317 893 q 315 852 314 869 q 318 824 315 835 l 326 561 l 364 561 q 505 534 460 561 q 550 474 550 507 q 525 442 550 454 q 463 422 500 429 q 386 410 426 414 q 315 407 346 407 l 315 388 q 313 360 313 372 q 314 335 314 347 q 297 161 308 249 q 269 -1 286 74 l 269 -6 l 482 39 q 530 24 511 39 q 549 -19 549 10 q 541 -51 549 -35 q 514 -83 533 -68 q 469 -105 501 -93 q 396 -126 438 -117 q 307 -142 354 -136 q 218 -149 260 -149 q 144 -144 178 -149 q 88 -126 111 -139 l 86 -124 m 261 1078 q 194 1106 213 1078 q 186 1168 176 1135 q 215 1218 192 1196 q 276 1236 238 1240 q 339 1206 321 1233 q 350 1149 357 1178 q 320 1100 343 1121 q 261 1078 297 1079 m 447 1074 q 381 1102 399 1074 q 372 1164 363 1131 q 401 1214 378 1192 q 463 1232 424 1236 q 525 1201 507 1229 q 536 1144 543 1174 q 506 1096 529 1117 q 447 1074 483 1075 z "},"":{"ha":463,"x_min":-6,"x_max":533,"o":"m 18 -28 l 68 -22 q 58 101 58 22 q 71 310 58 182 q 74 330 74 319 q 74 350 74 340 l 79 390 q 112 635 94 508 q 154 876 129 763 q 124 874 133 876 q 107 871 115 871 q 67 886 79 871 q 56 921 56 901 q 72 969 56 946 q 113 993 88 992 q 251 1027 174 1014 q 404 1040 329 1040 q 446 1034 424 1040 q 488 1017 468 1028 q 520 992 507 1006 q 533 961 533 978 q 514 931 533 946 q 449 911 494 917 l 400 906 q 402 867 401 888 q 403 818 403 846 q 397 647 403 751 q 378 379 392 543 l 367 288 q 329 22 342 88 q 352 25 339 25 q 374 25 365 25 q 426 -7 426 25 q 411 -47 426 -25 q 372 -90 396 -69 q 333 -112 353 -104 q 294 -124 314 -119 q 253 -131 274 -128 q 215 -139 233 -135 l 218 -139 q 140 -149 185 -146 q 51 -153 94 -153 q 28 -151 39 -153 q 10 -142 18 -150 q -1 -120 3 -135 q -6 -79 -6 -106 q 0 -47 -6 -61 q 18 -28 6 -33 m 324 1088 q 303 1095 313 1092 q 282 1101 293 1099 q 214 1125 247 1113 q 131 1165 181 1138 q 91 1208 99 1179 q 94 1265 83 1238 q 133 1308 106 1292 q 196 1313 160 1324 l 201 1310 q 237 1283 222 1294 q 269 1259 251 1272 q 313 1229 286 1246 q 388 1188 340 1213 q 397 1155 397 1175 q 388 1117 397 1135 q 363 1090 379 1100 q 324 1088 346 1079 z "},"":{"ha":463,"x_min":-6,"x_max":533,"o":"m 18 -28 l 68 -22 q 58 101 58 22 q 71 310 58 182 q 74 330 74 319 q 74 350 74 340 l 79 390 q 112 635 94 508 q 154 876 129 763 q 124 874 133 876 q 107 871 115 871 q 67 886 79 871 q 56 921 56 901 q 72 969 56 946 q 113 993 88 992 q 251 1027 174 1014 q 404 1040 329 1040 q 446 1034 424 1040 q 488 1017 468 1028 q 520 992 507 1006 q 533 961 533 978 q 514 931 533 946 q 449 911 494 917 l 400 906 q 402 867 401 888 q 403 818 403 846 q 397 647 403 751 q 378 379 392 543 l 367 288 q 329 22 342 88 q 352 25 339 25 q 374 25 365 25 q 426 -7 426 25 q 411 -47 426 -25 q 372 -90 396 -69 q 333 -112 353 -104 q 294 -124 314 -119 q 253 -131 274 -128 q 215 -139 233 -135 l 218 -139 q 140 -149 185 -146 q 51 -153 94 -153 q 28 -151 39 -153 q 10 -142 18 -150 q -1 -120 3 -135 q -6 -79 -6 -106 q 0 -47 -6 -61 q 18 -28 6 -33 m 185 1068 q 146 1070 163 1060 q 120 1098 129 1081 q 110 1135 111 1115 q 121 1168 110 1156 q 195 1210 168 1193 q 240 1240 222 1226 q 272 1264 257 1253 q 307 1290 286 1275 l 313 1293 q 376 1288 349 1304 q 414 1245 403 1272 q 417 1189 425 1218 q 378 1146 410 1160 q 294 1106 328 1118 q 226 1082 261 1093 q 206 1076 215 1079 q 185 1068 196 1072 z "},"":{"ha":463,"x_min":-6,"x_max":535,"o":"m 18 -28 l 68 -22 q 58 101 58 22 q 71 310 58 182 q 74 330 74 319 q 74 350 74 340 l 79 390 q 112 635 94 508 q 154 876 129 763 q 124 874 133 876 q 107 871 115 871 q 67 886 79 871 q 56 921 56 901 q 72 969 56 946 q 113 993 88 992 q 251 1027 174 1014 q 404 1040 329 1040 q 446 1034 424 1040 q 488 1017 468 1028 q 520 992 507 1006 q 533 961 533 978 q 514 931 533 946 q 449 911 494 917 l 400 906 q 402 867 401 888 q 403 818 403 846 q 397 647 403 751 q 378 379 392 543 l 367 288 q 329 22 342 88 q 352 25 339 25 q 374 25 365 25 q 426 -7 426 25 q 411 -47 426 -25 q 372 -90 396 -69 q 333 -112 353 -104 q 294 -124 314 -119 q 253 -131 274 -128 q 215 -139 233 -135 l 218 -139 q 140 -149 185 -146 q 51 -153 94 -153 q 28 -151 39 -153 q 10 -142 18 -150 q -1 -120 3 -135 q -6 -79 -6 -106 q 0 -47 -6 -61 q 18 -28 6 -33 m 400 1113 q 380 1124 389 1119 q 361 1135 371 1129 q 340 1149 351 1142 q 313 1171 329 1157 q 241 1133 271 1147 q 179 1107 211 1119 l 140 1089 q 103 1089 119 1081 q 77 1113 86 1097 q 67 1149 68 1129 q 78 1182 67 1168 q 113 1206 92 1190 q 160 1242 135 1222 q 213 1282 186 1261 q 264 1321 240 1303 q 310 1349 283 1343 q 358 1340 336 1356 l 375 1321 q 413 1281 393 1301 q 453 1240 433 1260 q 492 1204 474 1221 q 528 1178 511 1188 q 529 1144 535 1165 q 510 1107 524 1124 q 477 1083 496 1090 q 439 1090 458 1075 l 440 1090 l 400 1113 z "},"":{"ha":463,"x_min":-6,"x_max":533,"o":"m 18 -28 l 68 -22 q 58 101 58 22 q 71 310 58 182 q 74 330 74 319 q 74 350 74 340 l 79 390 q 112 635 94 508 q 154 876 129 763 q 124 874 133 876 q 107 871 115 871 q 67 886 79 871 q 56 921 56 901 q 72 969 56 946 q 113 993 88 992 q 251 1027 174 1014 q 404 1040 329 1040 q 446 1034 424 1040 q 488 1017 468 1028 q 520 992 507 1006 q 533 961 533 978 q 514 931 533 946 q 449 911 494 917 l 400 906 q 402 867 401 888 q 403 818 403 846 q 397 647 403 751 q 378 379 392 543 l 367 288 q 329 22 342 88 q 352 25 339 25 q 374 25 365 25 q 426 -7 426 25 q 411 -47 426 -25 q 372 -90 396 -69 q 333 -112 353 -104 q 294 -124 314 -119 q 253 -131 274 -128 q 215 -139 233 -135 l 218 -139 q 140 -149 185 -146 q 51 -153 94 -153 q 28 -151 39 -153 q 10 -142 18 -150 q -1 -120 3 -135 q -6 -79 -6 -106 q 0 -47 -6 -61 q 18 -28 6 -33 m 236 1085 q 169 1113 188 1085 q 161 1175 151 1142 q 190 1225 167 1203 q 251 1243 213 1247 q 314 1213 296 1240 q 325 1156 332 1185 q 295 1107 318 1128 q 236 1085 272 1086 m 422 1081 q 356 1109 374 1081 q 347 1171 338 1138 q 376 1221 353 1199 q 438 1239 399 1243 q 500 1208 482 1236 q 511 1151 518 1181 q 481 1103 504 1124 q 422 1081 458 1082 z "},"":{"ha":689,"x_min":6,"x_max":713,"o":"m 118 961 q 179 1025 142 1010 q 247 1040 217 1040 q 340 994 303 1040 q 407 869 378 949 q 461 685 436 790 q 518 460 486 579 q 544 738 531 607 q 575 963 558 869 q 607 1024 586 1007 q 653 1040 628 1040 q 699 1025 685 1040 q 713 965 713 1010 q 697 838 704 900 q 683 701 690 775 q 669 533 676 626 q 651 313 661 439 q 651 285 651 310 q 649 224 650 261 q 647 143 647 188 q 644 57 646 99 q 642 -19 643 15 q 642 -72 642 -54 q 620 -124 639 -106 q 567 -143 601 -143 q 514 -131 538 -143 q 483 -82 490 -118 q 444 99 465 10 q 406 272 422 188 l 394 329 q 361 489 379 408 q 319 661 343 569 l 306 304 q 302 198 306 250 q 293 101 299 146 q 283 22 288 57 q 274 -32 278 -12 q 227 -115 264 -81 q 142 -150 190 -150 q 88 -134 113 -150 q 44 -81 63 -118 q 16 20 26 -43 q 6 178 6 83 q 10 357 6 251 q 26 574 14 463 q 60 789 39 686 q 118 961 82 892 m 454 1118 q 431 1128 439 1125 q 408 1136 424 1132 q 396 1133 397 1135 q 394 1128 394 1131 l 397 1124 q 385 1100 397 1108 q 353 1092 372 1092 q 303 1139 296 1092 q 310 1169 303 1150 q 333 1206 318 1188 q 368 1237 347 1224 q 417 1250 389 1250 q 460 1243 440 1250 q 500 1228 481 1236 l 519 1217 q 535 1229 526 1224 q 558 1235 543 1235 q 607 1213 590 1235 q 621 1171 624 1192 q 601 1120 621 1146 q 536 1094 581 1094 q 483 1104 504 1094 q 453 1119 461 1114 l 454 1118 z "},"":{"ha":701,"x_min":11,"x_max":697,"o":"m 389 -149 q 216 -107 288 -149 q 99 5 144 -65 q 32 167 53 75 q 11 360 11 258 q 11 375 11 367 q 13 390 11 383 q 60 638 21 521 q 158 845 99 756 q 291 988 217 935 q 443 1040 365 1040 q 558 1006 510 1040 q 638 911 607 972 q 683 765 668 850 q 697 576 697 679 q 697 523 697 550 q 694 468 697 496 l 693 396 q 672 213 688 308 q 624 36 657 117 q 533 -97 590 -44 q 389 -149 476 -149 m 571 463 q 575 571 575 518 q 568 699 575 642 q 549 799 561 757 q 519 863 536 840 q 485 885 503 885 q 428 858 454 885 q 380 788 401 832 q 342 683 358 743 q 314 557 325 624 q 297 420 303 490 q 292 285 292 350 q 297 169 292 224 q 314 76 303 115 q 342 13 325 36 q 383 -10 360 -10 q 442 13 417 -10 q 487 74 468 36 q 519 160 506 113 q 542 258 533 208 q 558 356 551 308 q 568 440 564 403 q 569 452 568 447 q 571 463 571 457 m 500 1088 q 479 1095 489 1092 q 458 1101 469 1099 q 390 1125 424 1113 q 307 1165 357 1138 q 267 1208 275 1179 q 271 1265 260 1238 q 309 1308 282 1292 q 372 1313 336 1324 l 378 1310 q 413 1283 399 1294 q 445 1259 428 1272 q 490 1229 463 1246 q 564 1188 517 1213 q 574 1155 574 1175 q 565 1117 574 1135 q 539 1090 556 1100 q 500 1088 522 1079 z "},"":{"ha":701,"x_min":11,"x_max":697,"o":"m 389 -149 q 216 -107 288 -149 q 99 5 144 -65 q 32 167 53 75 q 11 360 11 258 q 11 375 11 367 q 13 390 11 383 q 60 638 21 521 q 158 845 99 756 q 291 988 217 935 q 443 1040 365 1040 q 558 1006 510 1040 q 638 911 607 972 q 683 765 668 850 q 697 576 697 679 q 697 523 697 550 q 694 468 697 496 l 693 396 q 672 213 688 308 q 624 36 657 117 q 533 -97 590 -44 q 389 -149 476 -149 m 571 463 q 575 571 575 518 q 568 699 575 642 q 549 799 561 757 q 519 863 536 840 q 485 885 503 885 q 428 858 454 885 q 380 788 401 832 q 342 683 358 743 q 314 557 325 624 q 297 420 303 490 q 292 285 292 350 q 297 169 292 224 q 314 76 303 115 q 342 13 325 36 q 383 -10 360 -10 q 442 13 417 -10 q 487 74 468 36 q 519 160 506 113 q 542 258 533 208 q 558 356 551 308 q 568 440 564 403 q 569 452 568 447 q 571 463 571 457 m 335 1069 q 296 1072 313 1061 q 270 1099 279 1082 q 260 1137 261 1117 q 271 1169 260 1157 q 345 1211 318 1194 q 390 1241 372 1228 q 422 1265 407 1254 q 457 1292 436 1276 l 463 1294 q 526 1290 499 1306 q 564 1247 553 1274 q 567 1190 575 1219 q 528 1147 560 1161 q 444 1107 478 1119 q 376 1083 411 1094 q 356 1077 365 1081 q 335 1069 346 1074 z "},"":{"ha":701,"x_min":11,"x_max":697,"o":"m 389 -149 q 216 -107 288 -149 q 99 5 144 -65 q 32 167 53 75 q 11 360 11 258 q 11 375 11 367 q 13 390 11 383 q 60 638 21 521 q 158 845 99 756 q 291 988 217 935 q 443 1040 365 1040 q 558 1006 510 1040 q 638 911 607 972 q 683 765 668 850 q 697 576 697 679 q 697 523 697 550 q 694 468 697 496 l 693 396 q 672 213 688 308 q 624 36 657 117 q 533 -97 590 -44 q 389 -149 476 -149 m 571 463 q 575 571 575 518 q 568 699 575 642 q 549 799 561 757 q 519 863 536 840 q 485 885 503 885 q 428 858 454 885 q 380 788 401 832 q 342 683 358 743 q 314 557 325 624 q 297 420 303 490 q 292 285 292 350 q 297 169 292 224 q 314 76 303 115 q 342 13 325 36 q 383 -10 360 -10 q 442 13 417 -10 q 487 74 468 36 q 519 160 506 113 q 542 258 533 208 q 558 356 551 308 q 568 440 564 403 q 569 452 568 447 q 571 463 571 457 m 536 1106 q 516 1117 525 1113 q 497 1128 507 1122 q 476 1142 488 1135 q 449 1164 465 1150 q 377 1126 407 1140 q 315 1100 347 1113 l 276 1082 q 239 1082 256 1074 q 213 1106 222 1090 q 203 1142 204 1122 q 214 1175 203 1161 q 249 1199 228 1183 q 297 1235 271 1215 q 349 1275 322 1254 q 400 1314 376 1296 q 446 1342 419 1336 q 494 1333 472 1349 l 511 1314 q 549 1274 529 1294 q 590 1233 569 1253 q 628 1197 610 1214 q 664 1171 647 1181 q 665 1138 671 1158 q 646 1100 660 1117 q 613 1076 632 1083 q 575 1083 594 1068 l 576 1083 l 536 1106 z "},"":{"ha":701,"x_min":11,"x_max":697,"o":"m 389 -149 q 216 -107 288 -149 q 99 5 144 -65 q 32 167 53 75 q 11 360 11 258 q 11 375 11 367 q 13 390 11 383 q 60 638 21 521 q 158 845 99 756 q 291 988 217 935 q 443 1040 365 1040 q 558 1006 510 1040 q 638 911 607 972 q 683 765 668 850 q 697 576 697 679 q 697 523 697 550 q 694 468 697 496 l 693 396 q 672 213 688 308 q 624 36 657 117 q 533 -97 590 -44 q 389 -149 476 -149 m 571 463 q 575 571 575 518 q 568 699 575 642 q 549 799 561 757 q 519 863 536 840 q 485 885 503 885 q 428 858 454 885 q 380 788 401 832 q 342 683 358 743 q 314 557 325 624 q 297 420 303 490 q 292 285 292 350 q 297 169 292 224 q 314 76 303 115 q 342 13 325 36 q 383 -10 360 -10 q 442 13 417 -10 q 487 74 468 36 q 519 160 506 113 q 542 258 533 208 q 558 356 551 308 q 568 440 564 403 q 569 452 568 447 q 571 463 571 457 m 424 1096 q 401 1106 408 1103 q 378 1114 393 1110 q 365 1110 367 1113 q 364 1106 364 1108 l 367 1101 q 354 1078 367 1086 q 322 1069 342 1069 q 272 1117 265 1069 q 280 1147 272 1128 q 302 1183 288 1165 q 338 1215 317 1201 q 386 1228 358 1228 q 430 1221 410 1228 q 469 1206 450 1214 l 489 1194 q 504 1207 496 1201 q 528 1213 513 1213 q 576 1191 560 1213 q 590 1149 593 1169 q 570 1098 590 1124 q 506 1072 550 1072 q 452 1082 474 1072 q 422 1097 431 1092 l 424 1096 z "},"":{"ha":701,"x_min":11,"x_max":697,"o":"m 389 -149 q 216 -107 288 -149 q 99 5 144 -65 q 32 167 53 75 q 11 360 11 258 q 11 375 11 367 q 13 390 11 383 q 60 638 21 521 q 158 845 99 756 q 291 988 217 935 q 443 1040 365 1040 q 558 1006 510 1040 q 638 911 607 972 q 683 765 668 850 q 697 576 697 679 q 697 523 697 550 q 694 468 697 496 l 693 396 q 672 213 688 308 q 624 36 657 117 q 533 -97 590 -44 q 389 -149 476 -149 m 571 463 q 575 571 575 518 q 568 699 575 642 q 549 799 561 757 q 519 863 536 840 q 485 885 503 885 q 428 858 454 885 q 380 788 401 832 q 342 683 358 743 q 314 557 325 624 q 297 420 303 490 q 292 285 292 350 q 297 169 292 224 q 314 76 303 115 q 342 13 325 36 q 383 -10 360 -10 q 442 13 417 -10 q 487 74 468 36 q 519 160 506 113 q 542 258 533 208 q 558 356 551 308 q 568 440 564 403 q 569 452 568 447 q 571 463 571 457 m 340 1081 q 274 1109 292 1081 q 265 1171 256 1138 q 294 1221 271 1199 q 356 1239 317 1243 q 418 1208 400 1236 q 429 1151 436 1181 q 399 1103 422 1124 q 340 1081 376 1082 m 526 1076 q 460 1105 478 1076 q 451 1167 442 1133 q 480 1217 457 1194 q 542 1235 503 1239 q 604 1204 586 1232 q 615 1147 622 1176 q 585 1099 608 1119 q 526 1076 563 1078 z "},"":{"ha":701,"x_min":11,"x_max":729,"o":"m 389 -149 q 216 -107 288 -149 q 99 5 144 -65 q 32 167 53 75 q 11 360 11 258 q 11 375 11 367 q 13 390 11 383 q 60 638 21 521 q 158 845 99 756 q 291 988 217 935 q 443 1040 365 1040 q 558 1006 510 1040 q 638 911 607 972 q 683 765 668 850 q 697 576 697 679 q 697 523 697 550 q 694 468 697 496 l 693 396 q 672 213 688 308 q 624 36 657 117 q 533 -97 590 -44 q 389 -149 476 -149 m 571 463 q 575 571 575 518 q 568 699 575 642 q 549 799 561 757 q 519 863 536 840 q 485 885 503 885 q 428 858 454 885 q 380 788 401 832 q 342 683 358 743 q 314 557 325 624 q 297 420 303 490 q 292 285 292 350 q 297 169 292 224 q 314 76 303 115 q 342 13 325 36 q 383 -10 360 -10 q 442 13 417 -10 q 487 74 468 36 q 519 160 506 113 q 542 258 533 208 q 558 356 551 308 q 568 440 564 403 q 569 452 568 447 q 571 463 571 457 m 214 161 q 423 714 344 514 q 519 944 501 914 l 519 943 q 570 998 538 981 q 635 1015 603 1015 q 678 1007 658 1015 q 711 983 699 999 q 726 947 724 968 q 718 900 729 926 q 621 689 663 783 q 545 512 579 594 q 481 354 511 429 q 418 200 451 279 l 378 108 q 329 -5 349 39 q 297 -75 310 -49 q 276 -114 285 -101 q 258 -133 267 -126 q 219 -151 243 -149 q 174 -143 194 -154 q 144 -107 154 -132 q 144 -42 133 -82 l 158 -8 q 176 63 161 19 q 214 161 190 107 z "},"":{"ha":676,"x_min":7,"x_max":663,"o":"m 261 -160 q 153 -115 200 -151 q 74 -19 106 -79 q 24 125 42 42 q 7 311 7 208 l 11 417 q 35 636 19 525 q 72 837 50 747 q 124 983 94 926 q 188 1040 153 1040 q 261 1013 235 1040 q 300 942 288 986 q 315 840 313 897 q 318 722 318 782 q 316 628 318 675 q 312 540 314 582 q 308 461 310 497 q 306 399 306 425 q 306 386 306 392 q 307 374 307 381 l 306 294 q 303 224 304 258 q 303 157 303 189 q 308 35 303 82 q 329 -11 314 -11 q 401 37 371 -11 q 453 158 432 85 q 487 317 474 231 q 508 483 500 404 q 521 619 517 561 q 528 694 525 678 l 528 718 q 523 803 528 763 q 515 876 518 844 l 517 876 q 510 913 514 896 q 507 939 507 931 q 531 1000 510 985 q 578 1015 553 1015 q 626 982 608 1015 q 651 900 643 949 q 660 794 658 851 q 663 690 663 738 q 660 681 660 686 q 661 672 661 675 q 650 478 658 575 q 626 290 642 381 q 583 121 610 200 q 516 -18 556 42 q 422 -116 476 -78 q 294 -161 367 -154 l 261 -160 m 431 1088 q 410 1095 419 1092 q 389 1101 400 1099 q 321 1125 354 1113 q 238 1165 288 1138 q 198 1208 206 1179 q 201 1265 190 1238 q 240 1308 213 1292 q 303 1313 267 1324 l 308 1310 q 344 1283 329 1294 q 376 1259 358 1272 q 420 1229 393 1246 q 494 1188 447 1213 q 504 1155 504 1175 q 495 1117 504 1135 q 469 1090 486 1100 q 431 1088 453 1079 z "},"":{"ha":676,"x_min":7,"x_max":663,"o":"m 261 -160 q 153 -115 200 -151 q 74 -19 106 -79 q 24 125 42 42 q 7 311 7 208 l 11 417 q 35 636 19 525 q 72 837 50 747 q 124 983 94 926 q 188 1040 153 1040 q 261 1013 235 1040 q 300 942 288 986 q 315 840 313 897 q 318 722 318 782 q 316 628 318 675 q 312 540 314 582 q 308 461 310 497 q 306 399 306 425 q 306 386 306 392 q 307 374 307 381 l 306 294 q 303 224 304 258 q 303 157 303 189 q 308 35 303 82 q 329 -11 314 -11 q 401 37 371 -11 q 453 158 432 85 q 487 317 474 231 q 508 483 500 404 q 521 619 517 561 q 528 694 525 678 l 528 718 q 523 803 528 763 q 515 876 518 844 l 517 876 q 510 913 514 896 q 507 939 507 931 q 531 1000 510 985 q 578 1015 553 1015 q 626 982 608 1015 q 651 900 643 949 q 660 794 658 851 q 663 690 663 738 q 660 681 660 686 q 661 672 661 675 q 650 478 658 575 q 626 290 642 381 q 583 121 610 200 q 516 -18 556 42 q 422 -116 476 -78 q 294 -161 367 -154 l 261 -160 m 311 1074 q 272 1076 289 1065 q 247 1103 256 1086 q 237 1141 238 1121 q 247 1174 236 1161 q 322 1215 294 1199 q 366 1245 349 1232 q 398 1269 383 1258 q 433 1296 413 1281 l 439 1299 q 502 1294 475 1310 q 540 1251 529 1278 q 544 1194 551 1224 q 504 1151 536 1165 q 421 1111 454 1124 q 353 1088 388 1099 q 332 1081 342 1085 q 311 1074 322 1078 z "},"":{"ha":676,"x_min":7,"x_max":663,"o":"m 261 -160 q 153 -115 200 -151 q 74 -19 106 -79 q 24 125 42 42 q 7 311 7 208 l 11 417 q 35 636 19 525 q 72 837 50 747 q 124 983 94 926 q 188 1040 153 1040 q 261 1013 235 1040 q 300 942 288 986 q 315 840 313 897 q 318 722 318 782 q 316 628 318 675 q 312 540 314 582 q 308 461 310 497 q 306 399 306 425 q 306 386 306 392 q 307 374 307 381 l 306 294 q 303 224 304 258 q 303 157 303 189 q 308 35 303 82 q 329 -11 314 -11 q 401 37 371 -11 q 453 158 432 85 q 487 317 474 231 q 508 483 500 404 q 521 619 517 561 q 528 694 525 678 l 528 718 q 523 803 528 763 q 515 876 518 844 l 517 876 q 510 913 514 896 q 507 939 507 931 q 531 1000 510 985 q 578 1015 553 1015 q 626 982 608 1015 q 651 900 643 949 q 660 794 658 851 q 663 690 663 738 q 660 681 660 686 q 661 672 661 675 q 650 478 658 575 q 626 290 642 381 q 583 121 610 200 q 516 -18 556 42 q 422 -116 476 -78 q 294 -161 367 -154 l 261 -160 m 496 1100 q 476 1112 485 1107 q 457 1123 467 1117 q 436 1137 447 1129 q 408 1158 425 1144 q 337 1121 367 1135 q 275 1094 307 1107 l 236 1076 q 199 1076 215 1068 q 173 1101 182 1085 q 163 1136 164 1117 q 174 1169 163 1156 q 209 1194 188 1178 q 256 1229 231 1210 q 309 1269 282 1249 q 360 1308 336 1290 q 406 1337 379 1331 q 454 1328 432 1343 l 471 1308 q 509 1268 489 1289 q 549 1228 529 1247 q 588 1192 569 1208 q 624 1165 607 1175 q 625 1132 631 1153 q 606 1094 619 1111 q 573 1070 592 1078 q 535 1078 554 1063 l 536 1078 l 496 1100 z "},"":{"ha":676,"x_min":7,"x_max":663,"o":"m 261 -160 q 153 -115 200 -151 q 74 -19 106 -79 q 24 125 42 42 q 7 311 7 208 l 11 417 q 35 636 19 525 q 72 837 50 747 q 124 983 94 926 q 188 1040 153 1040 q 261 1013 235 1040 q 300 942 288 986 q 315 840 313 897 q 318 722 318 782 q 316 628 318 675 q 312 540 314 582 q 308 461 310 497 q 306 399 306 425 q 306 386 306 392 q 307 374 307 381 l 306 294 q 303 224 304 258 q 303 157 303 189 q 308 35 303 82 q 329 -11 314 -11 q 401 37 371 -11 q 453 158 432 85 q 487 317 474 231 q 508 483 500 404 q 521 619 517 561 q 528 694 525 678 l 528 718 q 523 803 528 763 q 515 876 518 844 l 517 876 q 510 913 514 896 q 507 939 507 931 q 531 1000 510 985 q 578 1015 553 1015 q 626 982 608 1015 q 651 900 643 949 q 660 794 658 851 q 663 690 663 738 q 660 681 660 686 q 661 672 661 675 q 650 478 658 575 q 626 290 642 381 q 583 121 610 200 q 516 -18 556 42 q 422 -116 476 -78 q 294 -161 367 -154 l 261 -160 m 318 1081 q 251 1109 269 1081 q 243 1171 233 1138 q 272 1221 249 1199 q 333 1239 294 1243 q 396 1208 378 1236 q 407 1151 414 1181 q 377 1103 400 1124 q 318 1081 354 1082 m 504 1076 q 438 1105 456 1076 q 429 1167 419 1133 q 458 1217 435 1194 q 519 1235 481 1239 q 582 1204 564 1232 q 593 1147 600 1176 q 563 1099 586 1119 q 504 1076 540 1078 z "},"":{"ha":639,"x_min":10,"x_max":631,"o":"m 11 939 q 10 956 10 944 q 31 1006 10 988 q 78 1024 51 1024 q 122 1008 101 1024 q 154 961 143 993 l 171 910 q 202 805 188 853 q 230 712 217 757 q 255 624 243 667 q 278 538 267 582 q 325 708 300 619 q 381 872 350 797 q 450 994 413 946 q 535 1042 488 1042 q 610 1002 590 1042 q 631 893 631 963 q 626 820 631 863 q 614 738 621 778 q 600 669 607 699 q 589 633 593 639 l 583 601 q 582 590 582 599 q 554 472 569 529 q 521 363 539 415 q 519 353 521 357 q 517 346 517 350 l 488 250 q 443 100 463 164 q 404 -10 424 36 q 365 -87 385 -56 q 319 -137 344 -118 l 321 -137 q 277 -164 299 -157 q 239 -171 256 -171 q 197 -160 217 -171 q 163 -133 178 -150 q 140 -93 149 -115 q 132 -46 132 -71 q 137 -17 132 -42 q 150 47 142 7 q 171 139 158 88 q 200 249 183 190 l 149 438 q 77 682 114 556 q 11 938 40 808 l 11 939 m 253 1054 q 214 1056 231 1046 q 188 1084 197 1067 q 178 1122 179 1101 q 189 1154 178 1142 q 263 1196 236 1179 q 308 1226 290 1213 q 340 1250 325 1239 q 375 1276 354 1261 l 381 1279 q 444 1274 417 1290 q 482 1231 471 1258 q 485 1175 493 1204 q 446 1132 478 1146 q 363 1092 396 1104 q 294 1068 329 1079 q 274 1062 283 1065 q 253 1054 264 1058 z "},"":{"ha":639,"x_min":10,"x_max":631,"o":"m 11 939 q 10 956 10 944 q 31 1006 10 988 q 78 1024 51 1024 q 122 1008 101 1024 q 154 961 143 993 l 171 910 q 202 805 188 853 q 230 712 217 757 q 255 624 243 667 q 278 538 267 582 q 325 708 300 619 q 381 872 350 797 q 450 994 413 946 q 535 1042 488 1042 q 610 1002 590 1042 q 631 893 631 963 q 626 820 631 863 q 614 738 621 778 q 600 669 607 699 q 589 633 593 639 l 583 601 q 582 590 582 599 q 554 472 569 529 q 521 363 539 415 q 519 353 521 357 q 517 346 517 350 l 488 250 q 443 100 463 164 q 404 -10 424 36 q 365 -87 385 -56 q 319 -137 344 -118 l 321 -137 q 277 -164 299 -157 q 239 -171 256 -171 q 197 -160 217 -171 q 163 -133 178 -150 q 140 -93 149 -115 q 132 -46 132 -71 q 137 -17 132 -42 q 150 47 142 7 q 171 139 158 88 q 200 249 183 190 l 149 438 q 77 682 114 556 q 11 938 40 808 l 11 939 m 233 1072 q 167 1101 185 1072 q 158 1163 149 1129 q 187 1213 164 1190 q 249 1231 210 1235 q 311 1200 293 1228 q 322 1143 329 1172 q 292 1094 315 1115 q 233 1072 269 1074 m 419 1068 q 353 1097 371 1068 q 344 1158 335 1125 q 373 1208 350 1186 q 435 1226 396 1231 q 497 1196 479 1224 q 508 1139 515 1168 q 478 1090 501 1111 q 419 1068 456 1069 z "},"#":{"ha":940,"x_min":33,"x_max":925,"o":"m 304 943 q 328 966 308 960 q 372 971 349 972 q 417 962 396 969 q 442 944 438 954 q 440 878 442 922 q 432 772 438 835 q 498 774 458 774 q 571 774 538 774 q 586 887 581 843 q 603 950 592 931 q 630 970 610 965 q 673 973 650 975 q 715 963 696 971 q 738 944 733 954 q 736 877 738 922 q 728 772 735 832 l 733 772 q 781 771 761 771 q 815 771 801 771 q 871 743 853 768 q 886 690 889 718 q 862 638 883 663 q 811 606 840 613 q 776 602 800 603 q 719 601 751 601 l 717 601 l 708 504 q 738 503 725 504 q 765 501 751 501 q 819 501 793 501 q 860 500 846 501 q 910 472 894 496 q 925 418 925 447 q 902 367 922 392 q 850 335 882 343 q 809 332 836 332 q 749 332 782 332 l 693 332 q 683 223 689 269 q 675 161 678 176 q 639 101 663 125 q 586 78 615 78 q 532 97 554 78 q 506 149 510 117 q 507 219 501 168 q 519 333 513 269 q 461 334 488 335 q 397 335 435 333 l 389 257 q 384 224 386 242 q 381 193 382 207 q 378 161 378 176 q 341 101 365 125 q 289 78 317 78 q 235 97 256 78 q 210 149 214 117 q 210 220 204 168 q 222 340 215 272 l 125 344 q 85 347 100 346 q 64 349 69 349 q 39 369 44 349 q 35 414 33 389 q 47 460 38 439 q 67 485 56 482 q 129 491 86 489 q 228 496 172 493 l 242 496 l 256 611 q 179 615 211 613 q 139 618 147 617 q 119 643 124 622 q 117 688 115 664 q 128 733 119 713 q 147 756 136 753 q 197 760 164 758 q 275 765 229 763 q 290 885 285 836 q 304 949 296 933 l 304 943 m 421 606 q 416 557 419 578 q 410 501 413 536 q 472 504 443 504 q 538 504 501 504 l 553 604 l 421 606 z "},"!":{"ha":457,"x_min":81,"x_max":407,"o":"m 235 -125 q 180 -122 203 -128 q 142 -103 157 -115 q 122 -73 128 -90 q 117 -36 115 -56 q 143 18 119 -8 q 215 49 167 44 q 187 56 200 51 q 161 69 174 61 l 163 69 q 108 130 125 88 q 85 226 90 172 q 83 335 81 279 q 89 436 86 392 l 100 533 q 110 644 104 585 q 126 763 117 704 q 151 876 136 822 q 185 972 165 931 q 234 1038 206 1013 q 300 1063 263 1063 q 353 1042 333 1063 q 383 992 372 1021 q 396 934 393 964 q 401 886 399 904 q 403 880 401 883 q 404 875 404 876 q 406 682 407 792 q 396 458 404 572 l 385 331 q 373 234 381 282 q 350 147 365 186 q 309 82 335 108 q 244 50 283 56 q 322 22 297 47 q 344 -36 347 -4 q 314 -92 342 -65 q 238 -125 286 -118 l 235 -125 z "},"\"":{"ha":356,"x_min":17,"x_max":339,"o":"m 294 817 q 269 797 286 801 q 231 794 251 792 q 190 803 210 796 q 161 822 171 811 q 160 818 161 819 q 160 815 160 817 l 161 817 q 128 794 153 797 q 79 797 104 792 q 35 815 54 803 q 18 840 17 828 l 18 846 l 24 1021 q 38 1033 24 1029 q 72 1038 51 1038 q 115 1036 92 1039 q 160 1026 139 1033 q 196 1038 167 1036 q 257 1035 225 1040 q 314 1015 289 1029 q 338 979 339 1001 q 319 888 331 929 q 293 815 307 847 l 294 817 z "}}}
